SplineFontDB: 3.2
FontName: Handy0-Regular
FullName: Handy0 Regular
FamilyName: Handy0
Weight: Book
Copyright: Copyright 2024 Handy0 Project Authors (github.com/mitradranirban/handy0-fonts)
Version: 1.003
ItalicAngle: 0
UnderlinePosition: -510
UnderlineWidth: 204
Ascent: 3276
Descent: 820
InvalidEm: 0
sfntRevision: 0x000100c5
LayerCount: 2
Layer: 0 0 "Back" 1
Layer: 1 0 "Fore" 0
XUID: [1021 557 1747282856 1514932]
StyleMap: 0x0040
FSType: 0
OS2Version: 4
OS2_WeightWidthSlopeOnly: 0
OS2_UseTypoMetrics: 1
CreationTime: 1720421314
ModificationTime: 1721553448
PfmFamily: 65
TTFWeight: 400
TTFWidth: 5
LineGap: 0
VLineGap: 0
Panose: 0 0 0 0 0 0 0 0 0 0
OS2TypoAscent: 4864
OS2TypoAOffset: 0
OS2TypoDescent: -1155
OS2TypoDOffset: 0
OS2TypoLinegap: 0
OS2WinAscent: 4864
OS2WinAOffset: 0
OS2WinDescent: 1155
OS2WinDOffset: 0
HheadAscent: 4864
HheadAOffset: 0
HheadDescent: -1155
HheadDOffset: 0
OS2SubXSize: 2662
OS2SubYSize: 2458
OS2SubXOff: 0
OS2SubYOff: 308
OS2SupXSize: 2662
OS2SupYSize: 2458
OS2SupXOff: 0
OS2SupYOff: 1434
OS2StrikeYSize: 204
OS2StrikeYPos: 1228
OS2CapHeight: 2868
OS2XHeight: 2048
OS2FamilyClass: 514
OS2Vendor: 'anir'
OS2CodePages: 00000003.00000000
OS2UnicodeRanges: e00020ff.50c1addb.0000101e.00000000
Lookup: 4 0 0 "'liga' Standard Ligatures in Latin lookup 0" { "'liga' Standard Ligatures in Latin lookup 0-1"  } ['liga' ('DFLT' <'dflt' > 'latn' <'dflt' > ) ]
Lookup: 258 0 0 "'kern' Horizontal Kerning in Latin lookup 0" { "'kern' Horizontal Kerning in Latin lookup 0 subtable"  } ['kern' ('latn' <'dflt' > ) ]
MarkAttachClasses: 1
DEI: 91125
ShortTable: cvt  2
  136
  2594
EndShort
ShortTable: maxp 16
  1
  0
  422
  282
  4
  293
  5
  2
  0
  1
  1
  0
  64
  46
  2
  2
EndShort
LangName: 1033 "" "" "" "FontForge : Handy0 Regular : 21-7-2024" "" "Version 1.003" "" "" "" "" "" "" "" "This Font Software is licensed under the SIL Open Font License, Version 1.1. This license is available with a FAQ at: https://openfontlicense.org" "https://openfontlicense.org"

StartChar: .notdef
Encoding: 65536 -1 0
Width: 1497
Flags: W
HStem: 0 136<272 1089> 2594 136<272 1089>
VStem: 136 136<136 2594> 1089 136<136 2594>
LayerCount: 2
Fore
SplineSet
136 0 m 1
 136 2730 l 1
 1225 2730 l 1
 1225 0 l 1
 136 0 l 1
272 136 m 1
 1089 136 l 1
 1089 2594 l 1
 272 2594 l 1
 272 136 l 1
EndSplineSet
EndChar

StartChar: glyph1
Encoding: 0 -1 1
AltUni2: 000000.ffffffff.0
Width: 1326
Flags: HW
LayerCount: 2
Fore
SplineSet
30 2580 m 2
 30 2608.66666667 39.6666666667 2632.83333333 59 2652.5 c 128
 78.3333333333 2672.16666667 102.666666667 2682 132 2682 c 2
 1156 2682 l 2
 1184 2682 1208 2672 1228 2652 c 128
 1248 2632 1258 2608 1258 2580 c 2
 1258 458 l 2
 1258 430 1248 406 1228 386 c 128
 1208 366 1184 356 1156 356 c 2
 132 356 l 2
 102.666666667 356 78.3333333333 365.833333333 59 385.5 c 128
 39.6666666667 405.166666667 30 429.333333333 30 458 c 2
 30 2580 l 2
1054 2478 m 1
 234 2478 l 1
 234 562 l 1
 1054 562 l 1
 1054 2478 l 1
EndSplineSet
EndChar

StartChar: exclam
Encoding: 33 33 4
Width: 1644
Flags: HW
LayerCount: 2
Fore
SplineSet
1334 1540 m 2
 1334 984 l 2
 1336 948 1330.33333333 914.833333333 1317 884.5 c 128
 1303.66666667 854.166666667 1283.16666667 827 1255.5 803 c 128
 1227.83333333 779 1199.83333333 758.666666667 1171.5 742 c 128
 1143.16666667 725.333333333 1109.33333333 708 1070 690 c 0
 1016.66666667 666 974.666666667 654 944 654 c 0
 936 654 928.666666667 654.666666667 922 656 c 0
 884.666666667 656 859 662.666666667 845 676 c 128
 831 689.333333333 824 715.333333333 824 754 c 2
 824 820 l 1
 868 820 l 1
 870 823.333333333 875.666666667 834.333333333 885 853 c 128
 894.333333333 871.666666667 904.666666667 890.166666667 916 908.5 c 128
 927.333333333 926.833333333 939.333333333 942 952 954 c 0
 994 994 1022 1039.33333333 1036 1090 c 0
 1042.66666667 1116.66666667 1050.5 1146.16666667 1059.5 1178.5 c 128
 1068.5 1210.83333333 1074.66666667 1233.5 1078 1246.5 c 128
 1081.33333333 1259.5 1084.66666667 1275.5 1088 1294.5 c 128
 1091.33333333 1313.5 1092.66666667 1330.66666667 1092 1346 c 128
 1091.33333333 1361.33333333 1089.33333333 1379.33333333 1086 1400 c 1
 1086.66666667 1418 1087 1435.66666667 1087 1453 c 0
 1087 1531 1077.66666667 1607.33333333 1059 1682 c 0
 1035.66666667 1774 993.333333333 1892.66666667 932 2038 c 0
 826.666666667 2288 774 2450 774 2524 c 1
 764 2562.66666667 774.666666667 2582 806 2582 c 0
 890 2582 959 2559.33333333 1013 2514 c 128
 1067 2468.66666667 1114 2395.33333333 1154 2294 c 0
 1177.33333333 2236 1196.16666667 2186.33333333 1210.5 2145 c 128
 1224.83333333 2103.66666667 1234.33333333 2074.5 1239 2057.5 c 128
 1243.66666667 2040.5 1251.66666667 2008.5 1263 1961.5 c 128
 1274.33333333 1914.5 1283.33333333 1878 1290 1852 c 1
 1290 1770 l 2
 1290 1752.66666667 1297.33333333 1713.5 1312 1652.5 c 128
 1326.66666667 1591.5 1334 1554 1334 1540 c 2
1026 152 m 1
 1004.66666667 146.666666667 982 164.666666667 958 206 c 128
 934 247.333333333 915 291.833333333 901 339.5 c 128
 887 387.166666667 880 422 880 444 c 2
 880 508 l 2
 880 523.333333333 886 528 898 522 c 0
 911.333333333 515.333333333 935.333333333 512 970 512 c 2
 1160 512 l 1
 1161.33333333 504 1167 492 1177 476 c 128
 1187 460 1192 440.666666667 1192 418 c 0
 1192 394.666666667 1183.33333333 362 1166 320 c 128
 1148.66666667 278 1126.5 239.5 1099.5 204.5 c 128
 1072.5 169.5 1048 152 1026 152 c 1
EndSplineSet
EndChar

StartChar: quotedbl
Encoding: 34 34 5
Width: 1134
Flags: HW
LayerCount: 2
Fore
SplineSet
792 2704 m 1
 798 2690.66666667 795 2678.5 783 2667.5 c 128
 771 2656.5 755.333333333 2646.66666667 736 2638 c 128
 716.666666667 2629.33333333 706 2624 704 2622 c 0
 698 2622 692.333333333 2625.66666667 687 2633 c 128
 681.666666667 2640.33333333 676.833333333 2650 672.5 2662 c 128
 668.166666667 2674 664.333333333 2685.83333333 661 2697.5 c 128
 657.666666667 2709.16666667 654.5 2720.83333333 651.5 2732.5 c 128
 648.5 2744.16666667 646.666666667 2751.33333333 646 2754 c 0
 632.666666667 2795.33333333 637.833333333 2834.66666667 661.5 2872 c 128
 685.166666667 2909.33333333 715.333333333 2928 752 2928 c 128
 788.666666667 2928 825 2909.16666667 861 2871.5 c 128
 897 2833.83333333 918.666666667 2796 926 2758 c 0
 939.333333333 2679.33333333 947.666666667 2626.83333333 951 2600.5 c 128
 954.333333333 2574.16666667 956 2542.66666667 956 2506 c 0
 956 2445.33333333 950.666666667 2405.5 940 2386.5 c 128
 929.333333333 2367.5 905.333333333 2358 868 2358 c 1
 896.666666667 2374 909.333333333 2404.16666667 906 2448.5 c 128
 902.666666667 2492.83333333 893.166666667 2537.16666667 877.5 2581.5 c 128
 861.833333333 2625.83333333 848 2654 836 2666 c 0
 834 2668 826.666666667 2674.33333333 814 2685 c 128
 801.333333333 2695.66666667 794 2702 792 2704 c 1
398 2704 m 1
 404 2690.66666667 401 2678.5 389 2667.5 c 128
 377 2656.5 361.333333333 2646.66666667 342 2638 c 128
 322.666666667 2629.33333333 312 2624 310 2622 c 0
 304.666666667 2622 299.333333333 2625.83333333 294 2633.5 c 128
 288.666666667 2641.16666667 283.833333333 2651 279.5 2663 c 128
 275.166666667 2675 271.5 2686.83333333 268.5 2698.5 c 128
 265.5 2710.16666667 262.5 2721.66666667 259.5 2733 c 128
 256.5 2744.33333333 254.666666667 2751.33333333 254 2754 c 0
 241.333333333 2794 246.5 2833 269.5 2871 c 128
 292.5 2909 321.333333333 2928 356 2928 c 0
 394.666666667 2927.33333333 436.333333333 2904.66666667 481 2860 c 0
 519.666666667 2820.66666667 539 2782.33333333 539 2745 c 0
 539 2739 538.666666667 2733.33333333 538 2728 c 0
 539.333333333 2711.33333333 542.333333333 2685.66666667 547 2651 c 128
 551.666666667 2616.33333333 555.666666667 2585.66666667 559 2559 c 128
 562.333333333 2532.33333333 563.833333333 2503.83333333 563.5 2473.5 c 128
 563.166666667 2443.16666667 560 2418.66666667 554 2400 c 1
 496 2326 l 1
 495.333333333 2342.66666667 497.666666667 2373.83333333 503 2419.5 c 128
 508.333333333 2465.16666667 508 2497.33333333 502 2516 c 0
 492.666666667 2564 480.5 2602.66666667 465.5 2632 c 128
 450.5 2661.33333333 428 2685.33333333 398 2704 c 1
EndSplineSet
EndChar

StartChar: numbersign
Encoding: 35 35 6
Width: 2820
Flags: HW
LayerCount: 2
Fore
SplineSet
2054 918 m 1
 2056 947.333333333 2057 979.666666667 2057 1015 c 0
 2057 1055 2055.66666667 1098.33333333 2053 1145 c 0
 2047.66666667 1233 2039.33333333 1302 2028 1352 c 1
 1422 1352 l 1
 1422 918 l 1
 2054 918 l 1
1360 360 m 1
 1357.33333333 325.333333333 1344.66666667 291.5 1322 258.5 c 128
 1299.33333333 225.5 1271 202 1237 188 c 128
 1203 174 1166 176.666666667 1126 196 c 1
 1216 336 l 2
 1272 422 1300 564 1300 762 c 1
 1228 762 l 1
 1080 728 941.333333333 639.333333333 812 496 c 1
 812 520 l 1
 876 692 l 1
 1016 840 l 1
 1278 960 l 1
 1292 1066 l 1
 1292 1128.66666667 1285.33333333 1204.66666667 1272 1294 c 1
 1176 1273.33333333 1090.83333333 1242.33333333 1016.5 1201 c 128
 942.166666667 1159.66666667 874 1104.66666667 812 1036 c 1
 812 1060 l 1
 876 1232 l 1
 1016 1380 l 1
 1230 1478 l 1
 1186.66666667 1660 1108 1802.66666667 994 1906 c 1
 1184 1826 l 1
 1332 1688 l 1
 1433 1467 l 1
 1998 1462 l 1
 1949.33333333 1654.66666667 1868 1802.66666667 1754 1906 c 1
 1946 1826 l 1
 2094 1688 l 1
 2202 1450 l 1
 2260 1442 l 1
 2260 1422 l 1
 2294.66666667 1422 2322 1418 2342 1410 c 1
 2374 1410 2412.33333333 1393.83333333 2457 1361.5 c 128
 2501.66666667 1329.16666667 2524 1299.33333333 2524 1272 c 0
 2524 1257.33333333 2522.16666667 1237.66666667 2518.5 1213 c 128
 2514.83333333 1188.33333333 2510.66666667 1176 2506 1176 c 2
 2368 1266 l 1
 2323.33333333 1298.66666667 2262 1322 2184 1336 c 1
 2184 900 l 1
 2260 900 l 1
 2260 880 l 1
 2294.66666667 880 2322 876 2342 868 c 1
 2374 868 2412.33333333 851.833333333 2457 819.5 c 128
 2501.66666667 787.166666667 2524 757.333333333 2524 730 c 0
 2524 715.333333333 2522.16666667 695.666666667 2518.5 671 c 128
 2514.83333333 646.333333333 2510.66666667 634 2506 634 c 2
 2368 724 l 1
 2323.33333333 756.666666667 2262 780 2184 794 c 1
 2184 606 l 1
 2134 410 l 1
 2134 398.666666667 2130 382 2122 360 c 1
 2119.33333333 325.333333333 2106.66666667 291.5 2084 258.5 c 128
 2061.33333333 225.5 2033 202 1999 188 c 128
 1965 174 1928 176.666666667 1888 196 c 1
 1978 336 l 2
 2032.66666667 425.333333333 2060 582 2060 806 c 1
 1420 806 l 1
 1420 606 l 1
 1372 410 l 1
 1372 398.666666667 1368 382 1360 360 c 1
EndSplineSet
EndChar

StartChar: dollar
Encoding: 36 36 7
Width: 1466
Flags: HW
LayerCount: 2
Fore
SplineSet
778 3076 m 1
 790.666666667 3092 807.666666667 3116.5 829 3149.5 c 128
 850.333333333 3182.5 868.166666667 3208.5 882.5 3227.5 c 128
 896.833333333 3246.5 916.5 3265 941.5 3283 c 128
 966.5 3301 993.333333333 3311.33333333 1022 3314 c 0
 1053.33333333 3317.33333333 1082 3310.83333333 1108 3294.5 c 128
 1134 3278.16666667 1150 3257.66666667 1156 3233 c 128
 1162 3208.33333333 1155.33333333 3182 1136 3154 c 1
 1070 3076 1018 3006 980 2944 c 1
 1022.66666667 2907.33333333 1044 2874.66666667 1044 2846 c 0
 1044 2820 1034.66666667 2797.33333333 1016 2778 c 128
 997.333333333 2758.66666667 975 2746.66666667 949 2742 c 128
 923 2737.33333333 896 2739.33333333 868 2748 c 1
 738 2486 670 2209.33333333 664 1918 c 1
 692 1900.66666667 756 1839.33333333 856 1734 c 128
 956 1628.66666667 1017.33333333 1560 1040 1528 c 0
 1147.33333333 1392 1217.5 1274.33333333 1250.5 1175 c 128
 1283.5 1075.66666667 1300 935.333333333 1300 754 c 2
 1300 372 l 2
 1300 365 1300 365 1300 359 c 0
 1300 265.666666667 1280 197.333333333 1240 154 c 1
 1246 143.333333333 1243.5 128.166666667 1232.5 108.5 c 128
 1221.5 88.8333333333 1216 78.6666666667 1216 78 c 0
 1224 38 1228 10.6666666667 1228 -4 c 0
 1228 -24 1214.16666667 -42.6666666667 1186.5 -60 c 128
 1158.83333333 -77.3333333333 1132 -86 1106 -86 c 0
 1036 -86 990 -50 968 22 c 1
 968 34 l 1
 919.333333333 22.6666666667 870 16.6666666667 820 16 c 0
 816 16 816 16 813 16 c 0
 765.666666667 16 722 19.3333333333 682 26 c 0
 640.666666667 32 595.666666667 44.1666666667 547 62.5 c 128
 498.333333333 80.8333333333 457.5 97.5 424.5 112.5 c 128
 391.5 127.5 351.666666667 149.166666667 305 177.5 c 128
 258.333333333 205.833333333 223.166666667 228 199.5 244 c 128
 175.833333333 260 142.666666667 282.666666667 100 312 c 0
 79.3333333333 326.666666667 67.1666666667 344.5 63.5 365.5 c 128
 59.8333333333 386.5 63 406.166666667 73 424.5 c 128
 83 442.833333333 98.3333333333 458.166666667 119 470.5 c 128
 139.666666667 482.833333333 162 488.666666667 186 488 c 0
 219.333333333 488 260.666666667 471.333333333 310 438 c 0
 314.666666667 435.333333333 321.666666667 431 331 425 c 0
 371 400.333333333 402.666666667 381 426 367 c 128
 449.333333333 353 482.833333333 334.5 526.5 311.5 c 128
 570.166666667 288.5 607.5 271.166666667 638.5 259.5 c 128
 669.5 247.833333333 704.166666667 238.166666667 742.5 230.5 c 128
 780.833333333 222.833333333 815.333333333 220.666666667 846 224 c 1
 827.333333333 264.666666667 799.666666667 323.333333333 763 400 c 128
 726.333333333 476.666666667 697.5 538.166666667 676.5 584.5 c 128
 655.5 630.833333333 629.666666667 690.5 599 763.5 c 128
 568.333333333 836.5 544 903.166666667 526 963.5 c 128
 508 1023.83333333 490 1091.83333333 472 1167.5 c 128
 454 1243.16666667 440.833333333 1321.5 432.5 1402.5 c 128
 424.166666667 1483.5 420 1567.33333333 420 1654 c 0
 420 1678.66666667 418.166666667 1712.16666667 414.5 1754.5 c 128
 410.833333333 1796.83333333 408.666666667 1826.66666667 408 1844 c 1
 392 1861.33333333 368 1887 336 1921 c 128
 304 1955 280 1980.83333333 264 1998.5 c 128
 248 2016.16666667 226.5 2040.5 199.5 2071.5 c 128
 172.5 2102.5 151.833333333 2128.66666667 137.5 2150 c 128
 123.166666667 2171.33333333 105.833333333 2197.83333333 85.5 2229.5 c 128
 65.1666666667 2261.16666667 49.5 2291 38.5 2319 c 128
 27.5 2347 16.1666666667 2378.5 4.5 2413.5 c 128
 -7.16666666667 2448.5 -15.8333333333 2485.16666667 -21.5 2523.5 c 128
 -27.1666666667 2561.83333333 -30.6666666667 2602 -32 2644 c 0
 -32.6666666667 2678.66666667 -33 2704.66666667 -33 2722 c 128
 -33 2739.33333333 -32.8333333333 2765.33333333 -32.5 2800 c 128
 -32.1666666667 2834.66666667 -32 2860.66666667 -32 2878 c 0
 -31.3333333333 3049.33333333 49.3333333333 3142.66666667 210 3158 c 1
 334 3158 l 1
 402.666666667 3155.33333333 480.333333333 3146.5 567 3131.5 c 128
 653.666666667 3116.5 724 3098 778 3076 c 1
1044 742 m 2
 1042.66666667 752 1037.83333333 799.5 1029.5 884.5 c 128
 1021.16666667 969.5 1011.66666667 1039.33333333 1001 1094 c 128
 990.333333333 1148.66666667 976.666666667 1184.66666667 960 1202 c 1
 912 1310 815.333333333 1438.66666667 670 1588 c 1
 670 1576 670 1576 670 1565 c 0
 670 1504.33333333 672.333333333 1446 677 1390 c 0
 682.333333333 1326.66666667 692.166666667 1265.16666667 706.5 1205.5 c 128
 720.833333333 1145.83333333 734.833333333 1092.33333333 748.5 1045 c 128
 762.166666667 997.666666667 781.833333333 944.166666667 807.5 884.5 c 128
 833.166666667 824.833333333 855 775.5 873 736.5 c 128
 891 697.5 916.333333333 644 949 576 c 128
 981.666666667 508 1007.33333333 454 1026 414 c 1
 1038 472 1044 556.666666667 1044 668 c 2
 1044 742 l 2
352 2960 m 1
 334.666666667 2960 296 2958 236 2954 c 1
 228 2940 224 2914.66666667 224 2878 c 2
 224 2644 l 2
 224 2492.66666667 292 2334 428 2168 c 1
 462 2418 541.333333333 2658.66666667 666 2890 c 1
 642 2901.33333333 587.5 2914.66666667 502.5 2930 c 128
 417.5 2945.33333333 367.333333333 2955.33333333 352 2960 c 1
EndSplineSet
EndChar

StartChar: percent
Encoding: 37 37 8
Width: 2800
Flags: HW
LayerCount: 2
Fore
SplineSet
1314 2724 m 0
 1284 2688.66666667 1247.83333333 2667.5 1205.5 2660.5 c 128
 1163.16666667 2653.5 1123.66666667 2660.66666667 1087 2682 c 128
 1050.33333333 2703.33333333 1024 2734.66666667 1008 2776 c 0
 999.333333333 2800 994.833333333 2823.33333333 994.5 2846 c 128
 994.166666667 2868.66666667 998.166666667 2888.83333333 1006.5 2906.5 c 128
 1014.83333333 2924.16666667 1025.66666667 2940.33333333 1039 2955 c 128
 1052.33333333 2969.66666667 1068 2981.5 1086 2990.5 c 128
 1104 2999.5 1122.5 3006.33333333 1141.5 3011 c 128
 1160.5 3015.66666667 1180.16666667 3016.66666667 1200.5 3014 c 128
 1220.83333333 3011.33333333 1240 3006 1258 2998 c 128
 1276 2990 1292.5 2977.66666667 1307.5 2961 c 128
 1322.5 2944.33333333 1334.66666667 2924.66666667 1344 2902 c 0
 1352.66666667 2878.66666667 1357 2856 1357 2834 c 0
 1357 2794 1342.66666667 2757.33333333 1314 2724 c 0
1226 576 m 0
 1236.66666667 547.333333333 1240.83333333 521.333333333 1238.5 498 c 128
 1236.16666667 474.666666667 1229.83333333 452.833333333 1219.5 432.5 c 128
 1209.16666667 412.166666667 1195 395.333333333 1177 382 c 128
 1159 368.666666667 1139.66666667 357.666666667 1119 349 c 128
 1098.33333333 340.333333333 1076.33333333 336.166666667 1053 336.5 c 128
 1029.66666667 336.833333333 1007.66666667 340.5 987 347.5 c 128
 966.333333333 354.5 947.166666667 366.666666667 929.5 384 c 128
 911.833333333 401.333333333 898 422.666666667 888 448 c 0
 877.333333333 478.666666667 873.5 508.166666667 876.5 536.5 c 128
 879.5 564.833333333 888.833333333 588.833333333 904.5 608.5 c 128
 920.166666667 628.166666667 938.666666667 645.166666667 960 659.5 c 128
 981.333333333 673.833333333 1005.33333333 682.666666667 1032 686 c 128
 1058.66666667 689.333333333 1084 688.5 1108 683.5 c 128
 1132 678.5 1154.83333333 666.666666667 1176.5 648 c 128
 1198.16666667 629.333333333 1214.66666667 605.333333333 1226 576 c 0
292 14 m 0
 284 -20 263.666666667 -42.5 231 -53.5 c 128
 198.333333333 -64.5 167 -62 137 -46 c 128
 107 -30 91.3333333333 -6 90 26 c 0
 90 40.6666666667 91.3333333333 54.6666666667 94 68 c 0
 198.666666667 461.333333333 414 868 740 1288 c 0
 762.666666667 1316.66666667 799.666666667 1375.83333333 851 1465.5 c 128
 902.333333333 1555.16666667 956 1651 1012 1753 c 128
 1068 1855 1102.66666667 1917.33333333 1116 1940 c 0
 1271.33333333 2200.66666667 1438.66666667 2411.66666667 1618 2573 c 128
 1797.33333333 2734.33333333 2010 2870 2256 2980 c 0
 2276 2988.66666667 2298.83333333 2998.33333333 2324.5 3009 c 128
 2350.16666667 3019.66666667 2366 3026.33333333 2372 3029 c 128
 2378 3031.66666667 2388.33333333 3037 2403 3045 c 128
 2417.66666667 3053 2430.33333333 3061 2441 3069 c 128
 2451.66666667 3077 2468 3089.33333333 2490 3106 c 0
 2538.66666667 3140.66666667 2586.66666667 3158 2634 3158 c 0
 2662 3158 2687.33333333 3147.83333333 2710 3127.5 c 128
 2732.66666667 3107.16666667 2744 3084 2744 3058 c 0
 2744 3034 2735.33333333 3011.66666667 2718 2991 c 128
 2700.66666667 2970.33333333 2681.33333333 2958.66666667 2660 2956 c 0
 2644 2954 2613.66666667 2938.16666667 2569 2908.5 c 128
 2524.33333333 2878.83333333 2499.33333333 2862.66666667 2494 2860 c 0
 2282.66666667 2767.33333333 2153.33333333 2707.33333333 2106 2680 c 0
 2052 2648.66666667 2000 2615 1950 2579 c 128
 1900 2543 1853.83333333 2507.5 1811.5 2472.5 c 128
 1769.16666667 2437.5 1727.16666667 2398.16666667 1685.5 2354.5 c 128
 1643.83333333 2310.83333333 1606.33333333 2270 1573 2232 c 128
 1539.66666667 2194 1504.33333333 2148.83333333 1467 2096.5 c 128
 1429.66666667 2044.16666667 1397.16666667 1997.5 1369.5 1956.5 c 128
 1341.83333333 1915.5 1309.83333333 1864.5 1273.5 1803.5 c 128
 1237.16666667 1742.5 1206.16666667 1689.83333333 1180.5 1645.5 c 128
 1154.83333333 1601.16666667 1122.66666667 1544.66666667 1084 1476 c 0
 971.333333333 1276.66666667 910.666666667 1172.66666667 902 1164 c 0
 582 780.666666667 378.666666667 397.333333333 292 14 c 0
EndSplineSet
EndChar

StartChar: ampersand
Encoding: 38 38 9
Width: 1642
Flags: HW
LayerCount: 2
Fore
SplineSet
738 336 m 0
 781.333333333 336 824.166666667 354.5 866.5 391.5 c 128
 908.833333333 428.5 931.333333333 468.666666667 934 512 c 1
 934 690 l 2
 935.333333333 727.333333333 935.666666667 753.833333333 935 769.5 c 128
 934.333333333 785.166666667 931.5 812.833333333 926.5 852.5 c 128
 921.5 892.166666667 918.666666667 916.666666667 918 926 c 0
 916.666666667 935.333333333 915.5 942.833333333 914.5 948.5 c 128
 913.5 954.166666667 912 961.5 910 970.5 c 128
 908 979.5 906 986.833333333 904 992.5 c 128
 902 998.166666667 899.333333333 1004.33333333 896 1011 c 128
 892.666666667 1017.66666667 888.666666667 1022.83333333 884 1026.5 c 128
 879.333333333 1030.16666667 874.166666667 1033.5 868.5 1036.5 c 128
 862.833333333 1039.5 856.166666667 1040.83333333 848.5 1040.5 c 128
 840.833333333 1040.16666667 832.666666667 1038.66666667 824 1036 c 1
 728 1036 l 1
 654.666666667 978.666666667 597.333333333 910.166666667 556 830.5 c 128
 514.666666667 750.833333333 491.333333333 669.333333333 486 586 c 1
 486 476 l 1
 510 382.666666667 594 336 738 336 c 0
708 2904 m 1
 678 2905.33333333 651.166666667 2901.83333333 627.5 2893.5 c 128
 603.833333333 2885.16666667 584 2874.16666667 568 2860.5 c 128
 552 2846.83333333 538 2828.16666667 526 2804.5 c 128
 514 2780.83333333 504.5 2758.16666667 497.5 2736.5 c 128
 490.5 2714.83333333 484.666666667 2687.83333333 480 2655.5 c 128
 475.333333333 2623.16666667 472.166666667 2595.16666667 470.5 2571.5 c 128
 468.833333333 2547.83333333 467.333333333 2518.66666667 466 2484 c 2
 466 2306 l 2
 466 2230.66666667 472.666666667 2170 486 2124 c 1
 482 2110.66666667 491.166666667 2088.66666667 513.5 2058 c 128
 535.833333333 2027.33333333 561.166666667 1997 589.5 1967 c 128
 617.833333333 1937 642.666666667 1906.33333333 664 1875 c 128
 685.333333333 1843.66666667 693.333333333 1820.66666667 688 1806 c 1
 688 1784 l 1
 719.333333333 1758.66666667 744 1756.66666667 762 1778 c 0
 772 1789.33333333 788.666666667 1825.33333333 812 1886 c 0
 813 1888 813 1888 814 1890 c 0
 822.666666667 1912 831.333333333 1933.5 840 1954.5 c 128
 848.666666667 1975.5 854.333333333 1988.5 857 1993.5 c 128
 859.666666667 1998.5 862.5 2007 865.5 2019 c 128
 868.5 2031 870.5 2041.33333333 871.5 2050 c 128
 872.5 2058.66666667 874 2074.66666667 876 2098 c 0
 877.333333333 2124.66666667 884.333333333 2181.33333333 897 2268 c 128
 909.666666667 2354.66666667 916 2422 916 2470 c 0
 916 2570 897.333333333 2658.16666667 860 2734.5 c 128
 822.666666667 2810.83333333 772 2867.33333333 708 2904 c 1
1374 880 m 0
 1374 860.666666667 1370 845.333333333 1362 834 c 128
 1354 822.666666667 1343.33333333 812.5 1330 803.5 c 128
 1316.66666667 794.5 1307.33333333 785.333333333 1302 776 c 1
 1372 668 1432.66666667 566 1484 470 c 1
 1524 458 1544 433.333333333 1544 396 c 0
 1544 353.333333333 1531.5 323 1506.5 305 c 128
 1481.5 287 1454.66666667 282.166666667 1426 290.5 c 128
 1397.33333333 298.833333333 1377.33333333 315.333333333 1366 340 c 0
 1332 408 1284 492 1222 592 c 1
 1206 541.333333333 1187.33333333 496.833333333 1166 458.5 c 128
 1144.66666667 420.166666667 1125 390.833333333 1107 370.5 c 128
 1089 350.166666667 1064.83333333 324 1034.5 292 c 128
 1004.16666667 260 978.666666667 230.666666667 958 204 c 0
 902 132 806 96 670 96 c 0
 642.666666667 96 614.5 100.666666667 585.5 110 c 128
 556.5 119.333333333 534.5 127.833333333 519.5 135.5 c 128
 504.5 143.166666667 479.166666667 158.5 443.5 181.5 c 128
 407.833333333 204.5 385.333333333 218.666666667 376 224 c 0
 306.666666667 265.333333333 253.333333333 314.333333333 216 371 c 128
 178.666666667 427.666666667 160 504 160 600 c 1
 172.666666667 658.666666667 193 718.333333333 221 779 c 128
 249 839.666666667 283.5 899.5 324.5 958.5 c 128
 365.5 1017.5 403.833333333 1069.5 439.5 1114.5 c 128
 475.166666667 1159.5 517.166666667 1210.83333333 565.5 1268.5 c 128
 613.833333333 1326.16666667 648.666666667 1368.66666667 670 1396 c 1
 506 1647.33333333 390 1836 322 1962 c 0
 259.333333333 2078 218.666666667 2190 200 2298 c 128
 181.333333333 2406 172 2559.33333333 172 2758 c 0
 172 2939.33333333 205.333333333 3069.33333333 272 3148 c 0
 313.333333333 3197.33333333 365.333333333 3222 428 3222 c 2
 530 3222 l 2
 678.666666667 3222 790 3178 864 3090 c 0
 928 3014 975.5 2911.5 1006.5 2782.5 c 128
 1037.5 2653.5 1064.66666667 2478 1088 2256 c 0
 1094.66666667 2190 1098 2127.66666667 1098 2069 c 0
 1098 1969.66666667 1088.33333333 1879.33333333 1069 1798 c 0
 1037.66666667 1669.33333333 974 1533.33333333 878 1390 c 1
 1202 922 l 1
 1236.66666667 960.666666667 1266 980 1290 980 c 0
 1316 980 1336.5 970.666666667 1351.5 952 c 128
 1366.5 933.333333333 1374 909.333333333 1374 880 c 0
EndSplineSet
EndChar

StartChar: quotesingle
Encoding: 39 39 10
Width: 4096
Flags: HW
LayerCount: 2
Fore
SplineSet
2814 2728 m 0
 2814 2718.66666667 2819.66666667 2679.66666667 2831 2611 c 0
 2838.33333333 2567.66666667 2842 2533.66666667 2842 2509 c 0
 2842 2494.33333333 2840.66666667 2482.66666667 2838 2474 c 1
 2838 2453.33333333 2837.16666667 2436.66666667 2835.5 2424 c 128
 2833.83333333 2411.33333333 2830.33333333 2398.5 2825 2385.5 c 128
 2819.66666667 2372.5 2811 2363.83333333 2799 2359.5 c 128
 2787 2355.16666667 2771.33333333 2354.66666667 2752 2358 c 1
 2780 2374 2792.16666667 2404.16666667 2788.5 2448.5 c 128
 2784.83333333 2492.83333333 2775.16666667 2537.16666667 2759.5 2581.5 c 128
 2743.83333333 2625.83333333 2730 2654 2718 2666 c 0
 2716 2668 2708.66666667 2674.33333333 2696 2685 c 128
 2683.33333333 2695.66666667 2676 2702 2674 2704 c 1
 2680 2690.66666667 2677 2678.5 2665 2667.5 c 128
 2653 2656.5 2637.33333333 2646.66666667 2618 2638 c 128
 2598.66666667 2629.33333333 2588 2624 2586 2622 c 0
 2580.66666667 2622 2575.33333333 2625.83333333 2570 2633.5 c 128
 2564.66666667 2641.16666667 2559.83333333 2651 2555.5 2663 c 128
 2551.16666667 2675 2547.5 2686.83333333 2544.5 2698.5 c 128
 2541.5 2710.16666667 2538.5 2721.66666667 2535.5 2733 c 128
 2532.5 2744.33333333 2530.66666667 2751.33333333 2530 2754 c 0
 2516.66666667 2796.66666667 2521.33333333 2834.66666667 2544 2868 c 0
 2562 2896.66666667 2583.5 2914.66666667 2608.5 2922 c 128
 2633.5 2929.33333333 2657.66666667 2927 2681 2915 c 128
 2704.33333333 2903 2726.16666667 2887 2746.5 2867 c 128
 2766.83333333 2847 2783.16666667 2824.16666667 2795.5 2798.5 c 128
 2807.83333333 2772.83333333 2814 2749.33333333 2814 2728 c 0
2752 2358 m 1
 2742 2354 2730 2352 2716 2352 c 1
 2736 2356 2748 2358 2752 2358 c 1
EndSplineSet
EndChar

StartChar: parenleft
Encoding: 40 40 11
Width: 2194
Flags: HW
LayerCount: 2
Fore
SplineSet
1192 2420 m 1
 1200.66666667 2386 1204.5 2347 1203.5 2303 c 128
 1202.5 2259 1197.33333333 2224 1188 2198 c 0
 1188 2192 1188 2192 1188 2186 c 0
 1188 2150.66666667 1183 2105.33333333 1173 2050 c 0
 1161.66666667 1987.33333333 1156 1940 1156 1908 c 2
 1156 1646 l 1
 1193.33333333 1284.66666667 1212 962.666666667 1212 680 c 2
 1212 592 l 1
 1267.33333333 293.333333333 1311.83333333 75.1666666667 1345.5 -62.5 c 128
 1379.16666667 -200.166666667 1444.66666667 -427.333333333 1542 -744 c 1
 1542 -822 l 2
 1543.33333333 -826.666666667 1550.33333333 -834.833333333 1563 -846.5 c 128
 1575.66666667 -858.166666667 1582 -867.333333333 1582 -874 c 0
 1582 -898.666666667 1569.83333333 -919.5 1545.5 -936.5 c 128
 1521.16666667 -953.5 1494 -962 1464 -962 c 0
 1424.66666667 -962 1398 -940.666666667 1384 -898 c 1
 1384 -816 l 2
 1382 -814 1375.83333333 -803.666666667 1365.5 -785 c 128
 1355.16666667 -766.333333333 1340 -733.166666667 1320 -685.5 c 128
 1300 -637.833333333 1281.33333333 -586 1264 -530 c 0
 1252 -491.333333333 1240.33333333 -451.833333333 1229 -411.5 c 128
 1217.66666667 -371.166666667 1207.66666667 -335.666666667 1199 -305 c 128
 1190.33333333 -274.333333333 1180.66666667 -236.333333333 1170 -191 c 128
 1159.33333333 -145.666666667 1151.16666667 -111.666666667 1145.5 -89 c 128
 1139.83333333 -66.3333333333 1131.83333333 -29 1121.5 23 c 128
 1111.16666667 75 1104.16666667 109 1100.5 125 c 128
 1096.83333333 141 1089.5 179 1078.5 239 c 128
 1067.5 299 1061 334.333333333 1059 345 c 128
 1057 355.666666667 1049.66666667 395.666666667 1037 465 c 128
 1024.33333333 534.333333333 1017.33333333 573.333333333 1016 582 c 2
 1016 680 l 2
 1016.66666667 686.666666667 1017 695 1017 705 c 0
 1017 778.333333333 1003.66666667 942 977 1196 c 0
 947 1484 932 1644.66666667 932 1678 c 2
 932 2076 l 1
 935.333333333 2092.66666667 944.833333333 2112.83333333 960.5 2136.5 c 128
 976.166666667 2160.16666667 984 2180 984 2196 c 2
 984 2384 l 2
 984 2440 991.666666667 2494 1007 2546 c 128
 1022.33333333 2598 1040.5 2650.16666667 1061.5 2702.5 c 128
 1082.5 2754.83333333 1096.66666667 2800.66666667 1104 2840 c 0
 1106.66666667 2854.66666667 1112.33333333 2879.33333333 1121 2914 c 128
 1129.66666667 2948.66666667 1135.33333333 2976 1138 2996 c 1
 1138 3050 l 1
 1148 3122.66666667 1179.33333333 3215.33333333 1232 3328 c 0
 1240 3345.33333333 1253 3358.33333333 1271 3367 c 128
 1289 3375.66666667 1307.66666667 3379.16666667 1327 3377.5 c 128
 1346.33333333 3375.83333333 1364.5 3371.16666667 1381.5 3363.5 c 128
 1398.5 3355.83333333 1411.5 3344 1420.5 3328 c 128
 1429.5 3312 1431.33333333 3294.66666667 1426 3276 c 2
 1192 2420 l 1
EndSplineSet
EndChar

StartChar: parenright
Encoding: 41 41 12
Width: 2194
Flags: HW
LayerCount: 2
Fore
SplineSet
1300 1824 m 1
 1289.33333333 1877.33333333 1273 1959.83333333 1251 2071.5 c 128
 1229 2183.16666667 1214.5 2255.5 1207.5 2288.5 c 128
 1200.5 2321.5 1188 2378.33333333 1170 2459 c 128
 1152 2539.66666667 1135.33333333 2606.83333333 1120 2660.5 c 128
 1104.66666667 2714.16666667 1084.33333333 2784 1059 2870 c 128
 1033.66666667 2956 1004 3052.66666667 970 3160 c 1
 970 3238 l 2
 968.666666667 3242 962 3250.16666667 950 3262.5 c 128
 938 3274.83333333 932 3284.66666667 932 3292 c 0
 932 3316.66666667 944 3337.5 968 3354.5 c 128
 992 3371.5 1019.33333333 3380 1050 3380 c 0
 1087.33333333 3380 1114 3358 1130 3314 c 1
 1130 3232 l 2
 1132 3230 1138.16666667 3219.5 1148.5 3200.5 c 128
 1158.83333333 3181.5 1174 3148.33333333 1194 3101 c 128
 1214 3053.66666667 1232.66666667 3002 1250 2946 c 0
 1262 2907.33333333 1273.66666667 2868 1285 2828 c 128
 1296.33333333 2788 1306.5 2752.5 1315.5 2721.5 c 128
 1324.5 2690.5 1334.16666667 2652.5 1344.5 2607.5 c 128
 1354.83333333 2562.5 1363 2528.33333333 1369 2505 c 128
 1375 2481.66666667 1383 2444.5 1393 2393.5 c 128
 1403 2342.5 1409.83333333 2308.66666667 1413.5 2292 c 128
 1417.16666667 2275.33333333 1424.5 2237.5 1435.5 2178.5 c 128
 1446.5 2119.5 1453.16666667 2084.16666667 1455.5 2072.5 c 128
 1457.83333333 2060.83333333 1465 2021 1477 1953 c 128
 1489 1885 1496 1846 1498 1836 c 2
 1498 1736 l 2
 1498 1729 1498 1729 1498 1720 c 0
 1498 1652 1511.33333333 1486.66666667 1538 1224 c 0
 1567.33333333 936.666666667 1582 774.666666667 1582 738 c 2
 1582 340 l 1
 1578 324 1568.33333333 304.333333333 1553 281 c 128
 1537.66666667 257.666666667 1530 238 1530 222 c 2
 1530 32 l 2
 1530 -11.3333333333 1524.5 -54.6666666667 1513.5 -98 c 128
 1502.5 -141.333333333 1490.16666667 -178 1476.5 -208 c 128
 1462.83333333 -238 1449.5 -272.666666667 1436.5 -312 c 128
 1423.5 -351.333333333 1415.33333333 -388 1412 -422 c 0
 1410.66666667 -429.333333333 1405.33333333 -448.333333333 1396 -479 c 128
 1386.66666667 -509.666666667 1382 -530 1382 -540 c 2
 1382 -676 l 2
 1382 -695.333333333 1375.66666667 -719.333333333 1363 -748 c 128
 1350.33333333 -776.666666667 1334.83333333 -807.333333333 1316.5 -840 c 128
 1298.16666667 -872.666666667 1286.66666667 -894.666666667 1282 -906 c 0
 1268.66666667 -936.666666667 1245.83333333 -954.666666667 1213.5 -960 c 128
 1181.16666667 -965.333333333 1151.66666667 -958 1125 -938 c 128
 1098.33333333 -918 1086 -892 1088 -860 c 1
 1329 22 l 1
 1292 220 l 2
 1292 225 1292 225 1292 231 c 0
 1292 265 1302.33333333 310.333333333 1323 367 c 0
 1346.33333333 430.333333333 1358 477.333333333 1358 508 c 2
 1358 770 l 1
 1348 878 1335.83333333 1044 1321.5 1268 c 128
 1307.16666667 1492 1300 1648 1300 1736 c 2
 1300 1824 l 1
EndSplineSet
EndChar

StartChar: asterisk
Encoding: 42 42 13
Width: 1720
Flags: HW
LayerCount: 2
Fore
SplineSet
342 2158 m 1
 361.333333333 2164 389.833333333 2149.83333333 427.5 2115.5 c 128
 465.166666667 2081.16666667 501.333333333 2041.66666667 536 1997 c 128
 570.666666667 1952.33333333 604.833333333 1911 638.5 1873 c 128
 672.166666667 1835 695.333333333 1816 708 1816 c 1
 697.333333333 1940.66666667 692 2053 692 2153 c 0
 692 2161 692 2161 692 2170 c 0
 692 2199.33333333 702 2224 722 2244 c 128
 742 2264 766.666666667 2274 796 2274 c 0
 828.666666667 2272.66666667 853.833333333 2259.83333333 871.5 2235.5 c 128
 889.166666667 2211.16666667 898 2178.66666667 898 2138 c 0
 898 2026 904 1910 916 1790 c 1
 1055.33333333 1882 1153.33333333 1996 1210 2132 c 0
 1220.66666667 2158 1238.16666667 2175.16666667 1262.5 2183.5 c 128
 1286.83333333 2191.83333333 1310.83333333 2192.33333333 1334.5 2185 c 128
 1358.16666667 2177.66666667 1378.83333333 2164.5 1396.5 2145.5 c 128
 1414.16666667 2126.5 1422.66666667 2105.33333333 1422 2082 c 0
 1422 2038.66666667 1404 2008 1368 1990 c 1
 1313.33333333 1886.66666667 1239.33333333 1793.33333333 1146 1710 c 1
 1353.33333333 1705.33333333 1486 1702 1544 1700 c 0
 1570 1700 1592.83333333 1689.66666667 1612.5 1669 c 128
 1632.16666667 1648.33333333 1642 1624.66666667 1642 1598 c 0
 1642 1570 1631.83333333 1545.83333333 1611.5 1525.5 c 128
 1591.16666667 1505.16666667 1567.33333333 1495.33333333 1540 1496 c 0
 1320 1501.33333333 1173.33333333 1504 1100 1504 c 1
 1210.66666667 1389.33333333 1294 1305.33333333 1350 1252 c 0
 1367.33333333 1235.33333333 1377.16666667 1216 1379.5 1194 c 128
 1381.83333333 1172 1377.5 1152.33333333 1366.5 1135 c 128
 1355.5 1117.66666667 1341.66666667 1103.16666667 1325 1091.5 c 128
 1308.33333333 1079.83333333 1289.16666667 1074.83333333 1267.5 1076.5 c 128
 1245.83333333 1078.16666667 1226 1088 1208 1106 c 0
 1162 1154 1082 1234 968 1346 c 1
 968 1098 l 2
 968 1030 944 996 896 996 c 0
 884.666666667 996 874.166666667 997 864.5 999 c 128
 854.833333333 1001 846.5 1004.83333333 839.5 1010.5 c 128
 832.5 1016.16666667 826.5 1021.33333333 821.5 1026 c 128
 816.5 1030.66666667 812 1038 808 1048 c 128
 804 1058 800.833333333 1066 798.5 1072 c 128
 796.166666667 1078 794 1087.83333333 792 1101.5 c 128
 790 1115.16666667 788.666666667 1125.16666667 788 1131.5 c 128
 787.333333333 1137.83333333 786.333333333 1149 785 1165 c 128
 783.666666667 1181 782.666666667 1192 782 1198 c 0
 778 1222 774.5 1263.66666667 771.5 1323 c 128
 768.5 1382.33333333 767 1414.33333333 767 1419 c 1
 368 1073 l 1
 341.333333333 1073 311.333333333 1091 278 1127 c 128
 244.666666667 1163 228 1195.33333333 228 1224 c 1
 540 1494 l 1
 204 1508 l 2
 176.666666667 1508 152.833333333 1518.66666667 132.5 1540 c 128
 112.166666667 1561.33333333 102 1586 102 1614 c 128
 102 1642 112 1666 132 1686 c 128
 152 1706 176 1716 204 1716 c 2
 506 1716 l 1
 494 1728 458.333333333 1771 399 1845 c 128
 339.666666667 1919 301.333333333 1962.66666667 284 1976 c 0
 259.333333333 1995.33333333 246 2019.5 244 2048.5 c 128
 242 2077.5 250.5 2103 269.5 2125 c 128
 288.5 2147 312.666666667 2158 342 2158 c 1
EndSplineSet
EndChar

StartChar: plus
Encoding: 43 43 14
Width: 1702
Flags: HW
LayerCount: 2
Fore
SplineSet
1504 1372 m 0
 1502.66666667 1319.33333333 1482.66666667 1284.66666667 1444 1268 c 0
 1430 1262 1415.66666667 1259 1401 1259 c 0
 1374.33333333 1259 1346.66666667 1268.66666667 1318 1288 c 0
 1308 1294.66666667 1292.16666667 1303.5 1270.5 1314.5 c 128
 1248.83333333 1325.5 1217.83333333 1341 1177.5 1361 c 128
 1137.16666667 1381 1100.66666667 1399.33333333 1068 1416 c 1
 1017.33333333 1422 954 1426 878 1428 c 1
 878 1132 l 2
 878 976 860.666666667 880.666666667 826 846 c 2
 744 764 l 2
 716.666666667 734 684.166666667 725.333333333 646.5 738 c 128
 608.833333333 750.666666667 584.833333333 774 574.5 808 c 128
 564.166666667 842 572.666666667 875.333333333 600 908 c 1
 680 972 l 1
 680 1428 l 1
 635.333333333 1426 604.166666667 1424.5 586.5 1423.5 c 128
 568.833333333 1422.5 543.666666667 1419 511 1413 c 128
 478.333333333 1407 451.333333333 1398.66666667 430 1388 c 2
 168 1261 l 1
 147.333333333 1261.66666667 128.5 1270.5 111.5 1287.5 c 128
 94.5 1304.5 83 1324.16666667 77 1346.5 c 128
 71 1368.83333333 72 1391.66666667 80 1415 c 128
 88 1438.33333333 104 1456 128 1468 c 2
 348 1576 l 1
 464.666666667 1608 566 1626.66666667 652 1632 c 1
 652 1844 l 1
 637.333333333 1895.33333333 621 1944.5 603 1991.5 c 128
 585 2038.5 570.666666667 2073.66666667 560 2097 c 128
 549.333333333 2120.33333333 544 2134 544 2138 c 0
 544 2162.66666667 556.166666667 2183.16666667 580.5 2199.5 c 128
 604.833333333 2215.83333333 632.666666667 2224 664 2224 c 0
 677.333333333 2224 688.833333333 2221.5 698.5 2216.5 c 128
 708.166666667 2211.5 716.166666667 2205.66666667 722.5 2199 c 128
 728.833333333 2192.33333333 734.666666667 2182.16666667 740 2168.5 c 128
 745.333333333 2154.83333333 749.5 2142.83333333 752.5 2132.5 c 128
 755.5 2122.16666667 759.333333333 2107.33333333 764 2088 c 128
 768.666666667 2068.66666667 772.666666667 2053.33333333 776 2042 c 0
 783.333333333 2018 792.666666667 1992 804 1964 c 128
 815.333333333 1936 821.333333333 1920.66666667 822 1918 c 2
 822 1634 l 1
 1008.66666667 1629.33333333 1116 1620 1144 1606 c 0
 1328.66666667 1512.66666667 1422 1465.33333333 1424 1464 c 0
 1477.33333333 1438 1504 1407.33333333 1504 1372 c 0
EndSplineSet
EndChar

StartChar: comma
Encoding: 44 44 15
Width: 4096
Flags: HW
LayerCount: 2
Fore
SplineSet
1998 946 m 1
 1994.66666667 934 1990.66666667 922 1986 910 c 128
 1981.33333333 898 1975 884.666666667 1967 870 c 128
 1959 855.333333333 1950.16666667 844 1940.5 836 c 128
 1930.83333333 828 1919.33333333 821.833333333 1906 817.5 c 128
 1892.66666667 813.166666667 1878.66666667 815.333333333 1864 824 c 1
 1822.66666667 824 1787.66666667 844 1759 884 c 128
 1730.33333333 924 1712 968 1704 1016 c 0
 1696 1052.66666667 1692 1087.66666667 1692 1121 c 0
 1692 1143.66666667 1694 1165.33333333 1698 1186 c 0
 1707.33333333 1238 1732.66666667 1280.66666667 1774 1314 c 0
 1816 1349.33333333 1862.66666667 1367 1914 1367 c 0
 1925.33333333 1367 1937.33333333 1366 1950 1364 c 1
 1997.33333333 1374 2042.33333333 1379 2085 1379 c 0
 2167 1379 2241 1360.66666667 2307 1324 c 0
 2407 1268.66666667 2474.66666667 1186.66666667 2510 1078 c 0
 2522 1037.33333333 2528 995.333333333 2528 952 c 0
 2528 914 2523.33333333 875.333333333 2514 836 c 1
 2514.66666667 801.333333333 2516.66666667 750.833333333 2520 684.5 c 128
 2523.33333333 618.166666667 2525.33333333 564 2526 522 c 0
 2526 516 2526 516 2526 508 c 0
 2526 470 2524.66666667 426.333333333 2522 377 c 0
 2519.33333333 321.666666667 2512.16666667 270 2500.5 222 c 128
 2488.83333333 174 2472.66666667 128 2452 84 c 0
 2387.33333333 -51.3333333333 2277.33333333 -144.666666667 2122 -196 c 0
 2119.33333333 -197.333333333 2090.16666667 -212.5 2034.5 -241.5 c 128
 1978.83333333 -270.5 1924 -298.5 1870 -325.5 c 128
 1816 -352.5 1786 -366 1780 -366 c 0
 1779 -366 1779 -366 1778 -366 c 0
 1773.33333333 -366 1771 -364.333333333 1771 -361 c 0
 1771 -343.666666667 1824 -287.666666667 1930 -193 c 0
 1942 -182.333333333 1954.66666667 -171.333333333 1968 -160 c 0
 2060.66666667 -78 2121.5 -22.1666666667 2150.5 7.5 c 128
 2179.5 37.1666666667 2217.33333333 84 2264 148 c 0
 2326.66666667 233.333333333 2358 334.666666667 2358 452 c 0
 2358 477.333333333 2353.66666667 519.333333333 2345 578 c 0
 2339 618 2336 655.333333333 2336 690 c 0
 2336 706 2336.66666667 721.333333333 2338 736 c 0
 2340 760 2341 784 2341 808 c 0
 2341 855.333333333 2336.66666667 902 2328 948 c 0
 2321.33333333 988 2304.16666667 1017.33333333 2276.5 1036 c 128
 2248.83333333 1054.66666667 2209.33333333 1066 2158 1070 c 1
 2012 1070 l 2
 1945.33333333 1070 1912 1045.33333333 1912 996 c 2
 1912 946 l 1
 1998 946 l 1
EndSplineSet
EndChar

StartChar: hyphen
Encoding: 45 45 16
Width: 1702
Flags: HW
LayerCount: 2
Fore
SplineSet
778 1274 m 0
 755.333333333 1274 732.166666667 1273.33333333 708.5 1272 c 128
 684.833333333 1270.66666667 658.666666667 1268 630 1264 c 128
 601.333333333 1260 578.333333333 1256.83333333 561 1254.5 c 128
 543.666666667 1252.16666667 517.666666667 1247.66666667 483 1241 c 128
 448.333333333 1234.33333333 426.333333333 1230 417 1228 c 128
 407.666666667 1226 383.5 1221 344.5 1213 c 128
 305.5 1205 285.333333333 1200.66666667 284 1200 c 0
 263.333333333 1200 243.5 1210.66666667 224.5 1232 c 128
 205.5 1253.33333333 196 1275.33333333 196 1298 c 0
 196 1320 199.166666667 1338.16666667 205.5 1352.5 c 128
 211.833333333 1366.83333333 223 1378.5 239 1387.5 c 128
 255 1396.5 268.833333333 1403 280.5 1407 c 128
 292.166666667 1411 310.666666667 1416 336 1422 c 0
 494.666666667 1460.66666667 634.666666667 1480 756 1480 c 0
 862 1480 935.333333333 1475.33333333 976 1466 c 1
 1403 1272 l 2
 1423 1261.33333333 1436.66666667 1244.5 1444 1221.5 c 128
 1451.33333333 1198.5 1452.33333333 1175.83333333 1447 1153.5 c 128
 1441.66666667 1131.16666667 1430.83333333 1111.66666667 1414.5 1095 c 128
 1398.16666667 1078.33333333 1379 1070.33333333 1357 1071 c 1
 944 1254 l 1
 893.333333333 1267.33333333 838 1274 778 1274 c 0
EndSplineSet
EndChar

StartChar: period
Encoding: 46 46 17
Width: 548
Flags: HW
LayerCount: 2
Fore
SplineSet
94 248 m 0
 83.3333333333 277.333333333 79.3333333333 303.833333333 82 327.5 c 128
 84.6666666667 351.166666667 91.1666666667 373.166666667 101.5 393.5 c 128
 111.833333333 413.833333333 126 430.666666667 144 444 c 128
 162 457.333333333 181.166666667 468.333333333 201.5 477 c 128
 221.833333333 485.666666667 243.666666667 489.666666667 267 489 c 128
 290.333333333 488.333333333 312.166666667 484.5 332.5 477.5 c 128
 352.833333333 470.5 372 458.333333333 390 441 c 128
 408 423.666666667 422 402 432 376 c 0
 446 336.666666667 448.833333333 302.333333333 440.5 273 c 128
 432.166666667 243.666666667 418.166666667 217.666666667 398.5 195 c 128
 378.833333333 172.333333333 354.166666667 156.5 324.5 147.5 c 128
 294.833333333 138.5 265.5 134.833333333 236.5 136.5 c 128
 207.5 138.166666667 179.833333333 148.666666667 153.5 168 c 128
 127.166666667 187.333333333 107.333333333 214 94 248 c 0
EndSplineSet
EndChar

StartChar: slash
Encoding: 47 47 18
Width: 2800
Flags: HW
LayerCount: 2
Fore
SplineSet
292 14 m 0
 284 -20 263.666666667 -42.5 231 -53.5 c 128
 198.333333333 -64.5 167 -62 137 -46 c 128
 107 -30 91.3333333333 -6 90 26 c 0
 90 40.6666666667 91.3333333333 54.6666666667 94 68 c 0
 198.666666667 461.333333333 414 868 740 1288 c 0
 762.666666667 1316.66666667 799.666666667 1375.83333333 851 1465.5 c 128
 902.333333333 1555.16666667 956 1651 1012 1753 c 128
 1068 1855 1102.66666667 1917.33333333 1116 1940 c 0
 1271.33333333 2200.66666667 1438.66666667 2411.66666667 1618 2573 c 128
 1797.33333333 2734.33333333 2010 2870 2256 2980 c 0
 2276 2988.66666667 2298.83333333 2998.33333333 2324.5 3009 c 128
 2350.16666667 3019.66666667 2366 3026.33333333 2372 3029 c 128
 2378 3031.66666667 2388.33333333 3037 2403 3045 c 128
 2417.66666667 3053 2430.33333333 3061 2441 3069 c 128
 2451.66666667 3077 2468 3089.33333333 2490 3106 c 0
 2538.66666667 3140.66666667 2586.66666667 3158 2634 3158 c 0
 2662 3158 2687.33333333 3147.83333333 2710 3127.5 c 128
 2732.66666667 3107.16666667 2744 3084 2744 3058 c 0
 2744 3034 2735.33333333 3011.66666667 2718 2991 c 128
 2700.66666667 2970.33333333 2681.33333333 2958.66666667 2660 2956 c 0
 2644 2954 2613.66666667 2938.16666667 2569 2908.5 c 128
 2524.33333333 2878.83333333 2499.33333333 2862.66666667 2494 2860 c 0
 2282.66666667 2767.33333333 2153.33333333 2707.33333333 2106 2680 c 0
 2052 2648.66666667 2000 2615 1950 2579 c 128
 1900 2543 1853.83333333 2507.5 1811.5 2472.5 c 128
 1769.16666667 2437.5 1727.16666667 2398.16666667 1685.5 2354.5 c 128
 1643.83333333 2310.83333333 1606.33333333 2270 1573 2232 c 128
 1539.66666667 2194 1504.33333333 2148.83333333 1467 2096.5 c 128
 1429.66666667 2044.16666667 1397.16666667 1997.5 1369.5 1956.5 c 128
 1341.83333333 1915.5 1309.83333333 1864.5 1273.5 1803.5 c 128
 1237.16666667 1742.5 1206.16666667 1689.83333333 1180.5 1645.5 c 128
 1154.83333333 1601.16666667 1122.66666667 1544.66666667 1084 1476 c 0
 971.333333333 1276.66666667 910.666666667 1172.66666667 902 1164 c 0
 582 780.666666667 378.666666667 397.333333333 292 14 c 0
EndSplineSet
EndChar

StartChar: zero
Encoding: 48 48 19
Width: 1260
Flags: HW
LayerCount: 2
Fore
SplineSet
950 978 m 0
 950 1053.33333333 936.166666667 1173.33333333 908.5 1338 c 128
 880.833333333 1502.66666667 866.666666667 1611.33333333 866 1664 c 1
 850.666666667 1714.66666667 837.333333333 1769.5 826 1828.5 c 128
 814.666666667 1887.5 802.333333333 1963.83333333 789 2057.5 c 128
 775.666666667 2151.16666667 766.666666667 2213.33333333 762 2244 c 0
 755.333333333 2284.66666667 750.5 2332 747.5 2386 c 128
 744.5 2440 742.333333333 2486 741 2524 c 128
 739.666666667 2562 734.333333333 2604 725 2650 c 128
 715.666666667 2696 702 2738 684 2776 c 0
 659.333333333 2827.33333333 644 2884 638 2946 c 1
 616 2968 591.333333333 2985.33333333 564 2998 c 1
 556.666666667 2995.33333333 538.666666667 2981.16666667 510 2955.5 c 128
 481.333333333 2929.83333333 460.666666667 2910.66666667 448 2898 c 0
 402 2860.66666667 356.5 2784.33333333 311.5 2669 c 128
 266.5 2553.66666667 244 2452.66666667 244 2366 c 2
 244 1472 l 2
 243.333333333 1426 243 1382.33333333 243 1341 c 0
 243 1198.33333333 246.666666667 1089 254 1013 c 0
 263.333333333 915 286 796.666666667 322 658 c 0
 324 650 327 638.333333333 331 623 c 0
 343 577 343 577 349 554 c 128
 353 538.666666667 359.333333333 517.833333333 368 491.5 c 128
 376.666666667 465.166666667 384.666666667 444.833333333 392 430.5 c 128
 399.333333333 416.166666667 409.166666667 398.666666667 421.5 378 c 128
 433.833333333 357.333333333 447 340.5 461 327.5 c 128
 475 314.5 492 300.833333333 512 286.5 c 128
 532 272.166666667 554 259.333333333 578 248 c 0
 591.333333333 242 603.666666667 237.166666667 615 233.5 c 128
 626.333333333 229.833333333 636.5 226.833333333 645.5 224.5 c 128
 654.5 222.166666667 663.166666667 221.833333333 671.5 223.5 c 128
 679.833333333 225.166666667 687 226.5 693 227.5 c 128
 699 228.5 705.5 232.166666667 712.5 238.5 c 128
 719.5 244.833333333 725.166666667 250 729.5 254 c 128
 733.833333333 258 739.833333333 265.666666667 747.5 277 c 128
 755.166666667 288.333333333 761 297.333333333 765 304 c 128
 769 310.666666667 775.833333333 321.666666667 785.5 337 c 128
 795.166666667 352.333333333 802.666666667 364.666666667 808 374 c 0
 902.666666667 526 950 727.333333333 950 978 c 0
1050 1660 m 0
 1052 1640.66666667 1066.83333333 1541.16666667 1094.5 1361.5 c 128
 1122.16666667 1181.83333333 1136 1051.33333333 1136 970 c 0
 1136 795.333333333 1110.83333333 633 1060.5 483 c 128
 1010.16666667 333 937.333333333 206 842 102 c 0
 806.666666667 63.3333333333 752 42.6666666667 678 40 c 0
 671 40 671 40 664 40 c 0
 596 40 536 56.6666666667 484 90 c 0
 321.333333333 194 224 320.666666667 192 470 c 0
 191.333333333 472 182.833333333 495.333333333 166.5 540 c 128
 150.166666667 584.666666667 140.666666667 618.666666667 138 642 c 0
 136.666666667 646.666666667 130.833333333 657.333333333 120.5 674 c 128
 110.166666667 690.666666667 100 707.833333333 90 725.5 c 128
 80 743.166666667 70.8333333333 767.333333333 62.5 798 c 128
 54.1666666667 828.666666667 50 860 50 892 c 2
 50 2366 l 2
 50 2460.66666667 79.5 2580.33333333 138.5 2725 c 128
 197.5 2869.66666667 260 2973.33333333 326 3036 c 0
 329.333333333 3039.33333333 339.333333333 3049 356 3065 c 128
 372.666666667 3081 384 3091.66666667 390 3097 c 128
 396 3102.33333333 406.333333333 3111.33333333 421 3124 c 128
 435.666666667 3136.66666667 447.833333333 3145.5 457.5 3150.5 c 128
 467.166666667 3155.5 479 3161.66666667 493 3169 c 128
 507 3176.33333333 520.666666667 3181.33333333 534 3184 c 128
 547.333333333 3186.66666667 561.333333333 3188 576 3188 c 0
 587.333333333 3188.66666667 598.5 3187.66666667 609.5 3185 c 128
 620.5 3182.33333333 629.666666667 3179.66666667 637 3177 c 128
 644.333333333 3174.33333333 653.333333333 3169.16666667 664 3161.5 c 128
 674.666666667 3153.83333333 682 3148.33333333 686 3145 c 128
 690 3141.66666667 697.5 3135 708.5 3125 c 128
 719.5 3115 726 3109.33333333 728 3108 c 0
 794 3050 828 2984.66666667 830 2912 c 1
 894 2754.66666667 926 2600 926 2448 c 0
 926 2273.33333333 956 2067.33333333 1016 1830 c 0
 1038.66666667 1747.33333333 1050 1690.66666667 1050 1660 c 0
EndSplineSet
EndChar

StartChar: one
Encoding: 49 49 20
Width: 1874
Flags: HW
LayerCount: 2
Fore
SplineSet
1150 -6 m 1
 1134 -24 1113 -34 1087 -36 c 128
 1061 -38 1038.83333333 -30.6666666667 1020.5 -14 c 128
 1002.16666667 2.66666666667 995.666666667 25.6666666667 1001 55 c 1
 1368 946 l 1
 1368 2706 l 2
 1368 2717.33333333 1357.33333333 2741.5 1336 2778.5 c 128
 1314.66666667 2815.5 1303.33333333 2840.66666667 1302 2854 c 1
 1294 2876.66666667 1288.66666667 2900.66666667 1286 2926 c 1
 1274 2936 1259.33333333 2951.16666667 1242 2971.5 c 128
 1224.66666667 2991.83333333 1209.66666667 3009.16666667 1197 3023.5 c 128
 1184.33333333 3037.83333333 1167 3050.66666667 1145 3062 c 128
 1123 3073.33333333 1099.33333333 3078.66666667 1074 3078 c 1
 1074 3076 l 1
 1012 3076 l 2
 984 3077.33333333 950.666666667 3066.16666667 912 3042.5 c 128
 873.333333333 3018.83333333 835.833333333 2992.83333333 799.5 2964.5 c 128
 763.166666667 2936.16666667 738 2919.33333333 724 2914 c 0
 716 2908.66666667 708.166666667 2902.5 700.5 2895.5 c 128
 692.833333333 2888.5 686.833333333 2882.83333333 682.5 2878.5 c 128
 678.166666667 2874.16666667 671.833333333 2867.16666667 663.5 2857.5 c 128
 655.166666667 2847.83333333 650 2842 648 2840 c 2
 588 2774 l 2
 578.666666667 2764.66666667 555.333333333 2735.66666667 518 2687 c 128
 480.666666667 2638.33333333 457.333333333 2609.33333333 448 2600 c 1
 394 2508 333.333333333 2462 266 2462 c 0
 237.333333333 2462 210.5 2472.33333333 185.5 2493 c 128
 160.5 2513.66666667 148 2537.33333333 148 2564 c 0
 148 2591.33333333 157.333333333 2614.66666667 176 2634 c 128
 194.666666667 2653.33333333 217.333333333 2664 244 2666 c 1
 261.333333333 2690 281.5 2716.83333333 304.5 2746.5 c 128
 327.5 2776.16666667 353.833333333 2809.16666667 383.5 2845.5 c 128
 413.166666667 2881.83333333 435.333333333 2909.33333333 450 2928 c 2
 510 2994 l 2
 541.333333333 3028 568.333333333 3053.83333333 591 3071.5 c 128
 613.666666667 3089.16666667 641.5 3108.66666667 674.5 3130 c 128
 707.5 3151.33333333 740.666666667 3175.33333333 774 3202 c 0
 841.333333333 3255.33333333 921.333333333 3282 1014 3282 c 2
 1074 3282 l 2
 1197.33333333 3280 1291.33333333 3236.66666667 1356 3152 c 0
 1368.66666667 3134 1393.33333333 3108 1430 3074 c 1
 1564 2362 l 1
 1564 886 l 1
 1223 55 l 1
 1150 -6 l 1
EndSplineSet
EndChar

StartChar: two
Encoding: 50 50 21
Width: 1670
Flags: HW
LayerCount: 2
Fore
SplineSet
1272 2654 m 2
 1272 2779.33333333 1238.66666667 2883 1172 2965 c 128
 1105.33333333 3047 1017.33333333 3088 908 3088 c 2
 794 3088 l 2
 727.333333333 3088 665 3066 607 3022 c 128
 549 2978 504.666666667 2925.33333333 474 2864 c 1
 474.666666667 2834 465.333333333 2808.5 446 2787.5 c 128
 426.666666667 2766.5 402.666666667 2756 374 2756 c 0
 338 2756 307.833333333 2771.33333333 283.5 2802 c 128
 259.166666667 2832.66666667 254.666666667 2866.66666667 270 2904 c 0
 290.666666667 2954.66666667 317.166666667 3002.5 349.5 3047.5 c 128
 381.833333333 3092.5 419.666666667 3133.5 463 3170.5 c 128
 506.333333333 3207.5 556.666666667 3237 614 3259 c 128
 671.333333333 3281 731.333333333 3292 794 3292 c 2
 906 3292 l 2
 1018.66666667 3292 1118.16666667 3264 1204.5 3208 c 128
 1290.83333333 3152 1357 3075.83333333 1403 2979.5 c 128
 1449 2883.16666667 1472.66666667 2774.66666667 1474 2654 c 2
 1474 2504 l 2
 1476 2485.33333333 1477 2467 1477 2449 c 0
 1477 2414.33333333 1473 2381 1465 2349 c 0
 1452.33333333 2300.33333333 1431.66666667 2246.33333333 1403 2187 c 128
 1374.33333333 2127.66666667 1356 2086 1348 2062 c 0
 1321.33333333 1985.33333333 1277.16666667 1893 1215.5 1785 c 128
 1153.83333333 1677 1092.33333333 1577.33333333 1031 1486 c 128
 969.666666667 1394.66666667 906.333333333 1297.66666667 841 1195 c 128
 775.666666667 1092.33333333 728.666666667 1010.66666667 700 950 c 0
 632 806.666666667 598 658.666666667 598 506 c 0
 598 493 598 493 598 480 c 1
 608.666666667 448.666666667 628.666666667 415.333333333 658 380 c 1
 836 324 l 1
 1182 324 l 1
 1324 410 l 1
 1324 520 l 2
 1326 544 1339 565 1363 583 c 128
 1387 601 1412.66666667 610 1440 610 c 0
 1468.66666667 609.333333333 1492.5 598.166666667 1511.5 576.5 c 128
 1530.5 554.833333333 1540 528 1540 496 c 2
 1540 350 l 2
 1538.66666667 331.333333333 1525.16666667 310 1499.5 286 c 128
 1473.83333333 262 1452 245.333333333 1434 236 c 2
 1254 136 l 1
 794 136 l 1
 598 184 l 1
 548 192 500.666666667 231.333333333 456 302 c 0
 414.666666667 369.333333333 394 433 394 493 c 0
 394 499 394 499 394 504 c 0
 396.666666667 566 403.166666667 626.333333333 413.5 685 c 128
 423.833333333 743.666666667 435.5 797.166666667 448.5 845.5 c 128
 461.5 893.833333333 479.5 944.666666667 502.5 998 c 128
 525.5 1051.33333333 546.833333333 1097.83333333 566.5 1137.5 c 128
 586.166666667 1177.16666667 612.5 1223.66666667 645.5 1277 c 128
 678.5 1330.33333333 706.833333333 1374.83333333 730.5 1410.5 c 128
 754.166666667 1446.16666667 785.666666667 1493 825 1551 c 0
 851 1589.66666667 870.666666667 1618.66666667 884 1638 c 0
 914 1682 942 1725.33333333 968 1768 c 128
 994 1810.66666667 1014.83333333 1845.83333333 1030.5 1873.5 c 128
 1046.16666667 1901.16666667 1064.83333333 1938 1086.5 1984 c 128
 1108.16666667 2030 1122.83333333 2061.5 1130.5 2078.5 c 128
 1138.16666667 2095.5 1154.16666667 2132.83333333 1178.5 2190.5 c 128
 1202.83333333 2248.16666667 1218.66666667 2285.33333333 1226 2302 c 0
 1244 2346.66666667 1256.16666667 2382.16666667 1262.5 2408.5 c 128
 1268.83333333 2434.83333333 1272 2464.66666667 1272 2498 c 2
 1272 2654 l 2
EndSplineSet
EndChar

StartChar: three
Encoding: 51 51 22
Width: 1802
Flags: HW
LayerCount: 2
Fore
SplineSet
1368 2572 m 1
 1372.66666667 2611.33333333 1369.66666667 2648 1359 2682 c 128
 1348.33333333 2716 1333 2744.83333333 1313 2768.5 c 128
 1293 2792.16666667 1269 2815.5 1241 2838.5 c 128
 1213 2861.5 1185.66666667 2881.5 1159 2898.5 c 128
 1132.33333333 2915.5 1105.33333333 2934.66666667 1078 2956 c 128
 1050.66666667 2977.33333333 1029.33333333 2998 1014 3018 c 1
 820 3018 l 1
 440 2922 l 1
 419.333333333 2922 399.5 2934 380.5 2958 c 128
 361.5 2982 352 3005.33333333 352 3028 c 0
 352 3082 378 3116 430 3130 c 2
 805 3226 l 1
 1060 3224 l 2
 1094 3224 1123.33333333 3208.66666667 1148 3178 c 0
 1162 3159.33333333 1210.33333333 3117.83333333 1293 3053.5 c 128
 1375.66666667 2989.16666667 1422 2952 1432 2942 c 0
 1518 2856 1564.66666667 2737.33333333 1572 2586 c 0
 1573.33333333 2558.66666667 1574.83333333 2532.16666667 1576.5 2506.5 c 128
 1578.16666667 2480.83333333 1579.83333333 2459.5 1581.5 2442.5 c 128
 1583.16666667 2425.5 1584.66666667 2410.66666667 1586 2398 c 128
 1587.33333333 2385.33333333 1588.33333333 2376 1589 2370 c 2
 1590 2360 l 1
 1590 2314 l 2
 1591.33333333 2297.33333333 1592 2281 1592 2265 c 0
 1592 2213.66666667 1584 2164.66666667 1568 2118 c 0
 1547.33333333 2056 1517 2003 1477 1959 c 128
 1437 1915 1391.83333333 1877.66666667 1341.5 1847 c 128
 1291.16666667 1816.33333333 1238 1793.33333333 1182 1778 c 0
 1170 1774.66666667 1154.33333333 1770.5 1135 1765.5 c 128
 1115.66666667 1760.5 1102.33333333 1757 1095 1755 c 128
 1087.66666667 1753 1077.5 1750.16666667 1064.5 1746.5 c 128
 1051.5 1742.83333333 1042.66666667 1739.83333333 1038 1737.5 c 128
 1033.33333333 1735.16666667 1027 1732.33333333 1019 1729 c 128
 1011 1725.66666667 1005 1722.16666667 1001 1718.5 c 128
 997 1714.83333333 992.666666667 1710.66666667 988 1706 c 128
 983.333333333 1701.33333333 978.666666667 1696 974 1690 c 1
 974 1392 l 1
 969.333333333 1380.66666667 967.5 1372.16666667 968.5 1366.5 c 128
 969.5 1360.83333333 972.333333333 1350.5 977 1335.5 c 128
 981.666666667 1320.5 984.666666667 1308 986 1298 c 1
 1042.66666667 1272.66666667 1078.66666667 1251.33333333 1094 1234 c 1
 1134.66666667 1214.66666667 1178 1184 1224 1142 c 0
 1233.33333333 1134 1250.66666667 1119.16666667 1276 1097.5 c 128
 1301.33333333 1075.83333333 1320.16666667 1059.66666667 1332.5 1049 c 128
 1344.83333333 1038.33333333 1363 1021.66666667 1387 999 c 128
 1411 976.333333333 1429.66666667 957.333333333 1443 942 c 128
 1456.33333333 926.666666667 1473 906.5 1493 881.5 c 128
 1513 856.5 1528.5 833.666666667 1539.5 813 c 128
 1550.5 792.333333333 1562.5 767.666666667 1575.5 739 c 128
 1588.5 710.333333333 1598.16666667 682.166666667 1604.5 654.5 c 128
 1610.83333333 626.833333333 1615.83333333 596 1619.5 562 c 128
 1623.16666667 528 1624 493.333333333 1622 458 c 1
 1626 432 1628 407 1628 383 c 0
 1628 335.666666667 1620.66666667 292 1606 252 c 0
 1583.33333333 190.666666667 1548.5 141.166666667 1501.5 103.5 c 128
 1454.5 65.8333333333 1399.83333333 37.1666666667 1337.5 17.5 c 128
 1275.16666667 -2.16666666667 1208 -12 1136 -12 c 2
 666 -12 l 1
 526 68 l 1
 499.333333333 73.3333333333 480.5 86.8333333333 469.5 108.5 c 128
 458.5 130.166666667 455.166666667 152.5 459.5 175.5 c 128
 463.833333333 198.5 474.166666667 219.333333333 490.5 238 c 128
 506.833333333 256.666666667 526 266 548 266 c 0
 555.333333333 266 564.5 259.166666667 575.5 245.5 c 128
 586.5 231.833333333 593.333333333 224.666666667 596 224 c 2
 1134 224 l 2
 1155.33333333 222.666666667 1175.66666667 222 1195 222 c 0
 1347.66666667 222 1424 267.333333333 1424 358 c 0
 1424 369.333333333 1423 383.5 1421 400.5 c 128
 1419 417.5 1418 428 1418 432 c 0
 1417.33333333 460 1417 481 1417 495 c 128
 1417 509 1417.16666667 530.166666667 1417.5 558.5 c 128
 1417.83333333 586.833333333 1418 608 1418 622 c 1
 1409.33333333 658 1391.5 694.5 1364.5 731.5 c 128
 1337.5 768.5 1311 798.5 1285 821.5 c 128
 1259 844.5 1225.33333333 872.666666667 1184 906 c 128
 1142.66666667 939.333333333 1114 963.333333333 1098 978 c 0
 1082 992 1068.33333333 1003.66666667 1057 1013 c 128
 1045.66666667 1022.33333333 1036.16666667 1030 1028.5 1036 c 128
 1020.83333333 1042 1011.83333333 1048.33333333 1001.5 1055 c 128
 991.166666667 1061.66666667 983.166666667 1066.66666667 977.5 1070 c 128
 971.833333333 1073.33333333 960.833333333 1079.5 944.5 1088.5 c 128
 928.166666667 1097.5 914.666666667 1105.33333333 904 1112 c 0
 878 1127.33333333 857 1142.16666667 841 1156.5 c 128
 825 1170.83333333 812.666666667 1187 804 1205 c 128
 795.333333333 1223 789.166666667 1239.16666667 785.5 1253.5 c 128
 781.833333333 1267.83333333 777.333333333 1289 772 1317 c 128
 766.666666667 1345 760.666666667 1370 754 1392 c 1
 754 1504 l 2
 755.333333333 1516.66666667 756.666666667 1535 758 1559 c 0
 760 1589 761.666666667 1611.33333333 763 1626 c 128
 764.333333333 1640.66666667 766.666666667 1660.33333333 770 1685 c 128
 773.333333333 1709.66666667 777 1728.33333333 781 1741 c 128
 785 1753.66666667 790.5 1769.33333333 797.5 1788 c 128
 804.5 1806.66666667 812.833333333 1821.5 822.5 1832.5 c 128
 832.166666667 1843.5 843.833333333 1855.5 857.5 1868.5 c 128
 871.166666667 1881.5 887.166666667 1892.66666667 905.5 1902 c 128
 923.833333333 1911.33333333 944.666666667 1920 968 1928 c 0
 1028 1949.33333333 1084 1966 1136 1978 c 0
 1199.33333333 1992.66666667 1257.16666667 2026.16666667 1309.5 2078.5 c 128
 1361.83333333 2130.83333333 1388 2190.66666667 1388 2258 c 2
 1388 2360 l 1
 1386 2382 l 2
 1384 2397.33333333 1381.33333333 2422.5 1378 2457.5 c 128
 1374.66666667 2492.5 1371.33333333 2530.66666667 1368 2572 c 1
EndSplineSet
EndChar

StartChar: four
Encoding: 52 52 23
Width: 2392
Flags: HW
LayerCount: 2
Fore
SplineSet
32 2714 m 2
 33.3333333333 2779.33333333 38.3333333333 2854.16666667 47 2938.5 c 128
 55.6666666667 3022.83333333 67.3333333333 3086 82 3128 c 1
 82 3194 l 1
 86 3235.33333333 100.666666667 3274.66666667 126 3312 c 128
 151.333333333 3349.33333333 179.333333333 3368 210 3368 c 0
 266.666666667 3368 307.333333333 3348 332 3308 c 0
 343.333333333 3288.66666667 349 3268 349 3246 c 0
 349 3222 342.666666667 3196.66666667 330 3170 c 1
 330 3106 l 1
 320 3072.66666667 308.5 3008.66666667 295.5 2914 c 128
 282.5 2819.33333333 276 2752 276 2712 c 2
 276 2518 l 2
 276 2466.66666667 287.5 2410.5 310.5 2349.5 c 128
 333.5 2288.5 365.666666667 2229.5 407 2172.5 c 128
 448.333333333 2115.5 494.5 2063.16666667 545.5 2015.5 c 128
 596.5 1967.83333333 652.833333333 1929.66666667 714.5 1901 c 128
 776.166666667 1872.33333333 836 1858 894 1858 c 2
 1884 1858 l 1
 1900 1948 1908 2066.66666667 1908 2214 c 2
 1908 2570 l 2
 1908 2691.33333333 1883.33333333 2805 1834 2911 c 128
 1784.66666667 3017 1722 3104.66666667 1646 3174 c 0
 1627.33333333 3191.33333333 1615.83333333 3212.83333333 1611.5 3238.5 c 128
 1607.16666667 3264.16666667 1609.33333333 3288.16666667 1618 3310.5 c 128
 1626.66666667 3332.83333333 1641.16666667 3351.66666667 1661.5 3367 c 128
 1681.83333333 3382.33333333 1704.66666667 3389.33333333 1730 3388 c 0
 1760.66666667 3388 1789.33333333 3376.66666667 1816 3354 c 0
 1914.66666667 3261.33333333 1996.33333333 3147 2061 3011 c 128
 2125.66666667 2875 2158 2728.66666667 2158 2572 c 2
 2158 1920 l 1
 2218 1926.66666667 2250 1930 2254 1930 c 0
 2280 1930 2304.5 1916.83333333 2327.5 1890.5 c 128
 2350.5 1864.16666667 2362 1836.66666667 2362 1808 c 0
 2362 1776 2351.16666667 1748.33333333 2329.5 1725 c 128
 2307.83333333 1701.66666667 2282 1688 2252 1684 c 1
 2086 1684 l 1
 2049.33333333 1422 1969.16666667 1160.33333333 1845.5 899 c 128
 1721.83333333 637.666666667 1568.66666667 408.666666667 1386 212 c 0
 1370.66666667 195.333333333 1354.66666667 178 1338 160 c 128
 1321.33333333 142 1308.16666667 127.5 1298.5 116.5 c 128
 1288.83333333 105.5 1279.33333333 95 1270 85 c 128
 1260.66666667 75 1253.33333333 67.3333333333 1248 62 c 128
 1242.66666667 56.6666666667 1238.66666667 53.3333333333 1236 52 c 2
 1148 4 l 2
 1126.66666667 -9.33333333333 1105.66666667 -16 1085 -16 c 0
 1063.66666667 -16 1042.33333333 -8.33333333333 1021 7 c 0
 988.333333333 31.6666666667 969.666666667 64.3333333333 965 105 c 0
 964.333333333 111 964 117 964 123 c 0
 964 163.666666667 982.666666667 194.666666667 1020 216 c 0
 1024 218 1024 218 1028 220 c 2
 1098 220 l 1
 1104 226 1144 278.333333333 1218 377 c 128
 1292 475.666666667 1331.33333333 527.333333333 1336 532 c 0
 1464 700.666666667 1569.16666667 879.833333333 1651.5 1069.5 c 128
 1733.83333333 1259.16666667 1792.66666667 1452.66666667 1828 1650 c 1
 852 1570 l 1
 806 1578 750.333333333 1600 685 1636 c 128
 619.666666667 1672 562.166666667 1708.5 512.5 1745.5 c 128
 462.833333333 1782.5 419.333333333 1818 382 1852 c 0
 250 1971.33333333 156 2087.33333333 100 2200 c 0
 52.6666666667 2294.66666667 29 2399.66666667 29 2515 c 0
 29 2538.33333333 30 2562 32 2586 c 2
 32 2714 l 2
EndSplineSet
EndChar

StartChar: five
Encoding: 53 53 24
Width: 2120
Flags: HW
LayerCount: 2
Fore
SplineSet
540 418 m 0
 527.333333333 454.666666667 534.5 486.333333333 561.5 513 c 128
 588.5 539.666666667 620.333333333 550.166666667 657 544.5 c 128
 693.666666667 538.833333333 716.666666667 516 726 476 c 0
 737.333333333 428.666666667 761.666666667 385.5 799 346.5 c 128
 836.333333333 307.5 882 275.666666667 936 251 c 128
 990 226.333333333 1050.5 206 1117.5 190 c 128
 1184.5 174 1253.33333333 165.333333333 1324 164 c 0
 1339.33333333 163.333333333 1354.66666667 163 1370 163 c 2
 1536 170 l 1
 1640 170 l 2
 1707.33333333 170 1763.16666667 207.833333333 1807.5 283.5 c 128
 1851.83333333 359.166666667 1874 470 1874 616 c 0
 1874 688.666666667 1870.5 753.166666667 1863.5 809.5 c 128
 1856.5 865.833333333 1847.83333333 915 1837.5 957 c 128
 1827.16666667 999 1809.66666667 1037.66666667 1785 1073 c 128
 1760.33333333 1108.33333333 1737.5 1137.66666667 1716.5 1161 c 128
 1695.5 1184.33333333 1663.16666667 1209 1619.5 1235 c 128
 1575.83333333 1261 1537.16666667 1282.16666667 1503.5 1298.5 c 128
 1469.83333333 1314.83333333 1421.33333333 1337.33333333 1358 1366 c 0
 1306.66666667 1388 1257.5 1410.16666667 1210.5 1432.5 c 128
 1163.5 1454.83333333 1122 1475 1086 1493 c 128
 1032 1520 1032 1520 1016 1528 c 0
 941.333333333 1562.66666667 867.833333333 1601.66666667 795.5 1645 c 128
 723.166666667 1688.33333333 650.5 1737.5 577.5 1792.5 c 128
 504.5 1847.5 437.333333333 1907.66666667 376 1973 c 128
 314.666666667 2038.33333333 259.833333333 2106.66666667 211.5 2178 c 128
 163.166666667 2249.33333333 125.5 2326.66666667 98.5 2410 c 128
 71.5 2493.33333333 58 2577.33333333 58 2662 c 0
 58 2789.33333333 75.1666666667 2905.66666667 109.5 3011 c 128
 143.833333333 3116.33333333 194 3202 260 3268 c 1
 620 3268 l 1
 961 3211 l 1
 1194 2949 l 1
 1262 2911 1350 2892 1458 2892 c 0
 1576 2892 1652.66666667 2914.66666667 1688 2960 c 1
 1688 3026 l 1
 1684 3069.33333333 1698.83333333 3102.83333333 1732.5 3126.5 c 128
 1766.16666667 3150.16666667 1801.16666667 3156.16666667 1837.5 3144.5 c 128
 1873.83333333 3132.83333333 1894 3105.33333333 1898 3062 c 0
 1898 3038.66666667 1895.33333333 3020 1890 3006 c 1
 1890 2930 l 2
 1890 2900.66666667 1857.33333333 2853.33333333 1792 2788 c 0
 1732 2728 1622.66666667 2698 1464 2698 c 0
 1418 2698 1373.16666667 2703.16666667 1329.5 2713.5 c 128
 1285.83333333 2723.83333333 1251.5 2734.5 1226.5 2745.5 c 128
 1201.5 2756.5 1168.16666667 2772.83333333 1126.5 2794.5 c 128
 1084.83333333 2816.16666667 1055 2831 1037 2839 c 1
 842 3034 l 1
 381 3119 l 1
 341.666666667 3069 310.666666667 3003.5 288 2922.5 c 128
 265.333333333 2841.5 254 2758.66666667 254 2674 c 0
 254 2586 271.833333333 2499.33333333 307.5 2414 c 128
 343.166666667 2328.66666667 388.833333333 2252.33333333 444.5 2185 c 128
 500.166666667 2117.66666667 566.333333333 2052.5 643 1989.5 c 128
 719.666666667 1926.5 795 1872.66666667 869 1828 c 128
 943 1783.33333333 1020 1742 1100 1704 c 0
 1113.33333333 1697.33333333 1156 1676.66666667 1228 1642 c 128
 1300 1607.33333333 1367.83333333 1574.83333333 1431.5 1544.5 c 128
 1495.16666667 1514.16666667 1538.66666667 1494 1562 1484 c 0
 1642 1448 1710.5 1409.16666667 1767.5 1367.5 c 128
 1824.5 1325.83333333 1872.66666667 1280.16666667 1912 1230.5 c 128
 1951.33333333 1180.83333333 1982.33333333 1124 2005 1060 c 128
 2027.66666667 996 2043.83333333 927.5 2053.5 854.5 c 128
 2063.16666667 781.5 2068 696.666666667 2068 600 c 0
 2068 364 2022 193 1930 87 c 0
 1858 5 1762.33333333 -36 1643 -36 c 0
 1609 -36 1572.66666667 -32.6666666667 1534 -26 c 1
 1491.33333333 -28 1449.66666667 -29 1409 -29 c 0
 1262.33333333 -29 1128 -14 1006 16 c 0
 891.333333333 44.6666666667 793.833333333 93.8333333333 713.5 163.5 c 128
 633.166666667 233.166666667 575.333333333 318 540 418 c 0
EndSplineSet
EndChar

StartChar: six
Encoding: 54 54 25
Width: 1884
Flags: HW
LayerCount: 2
Fore
SplineSet
278 2810 m 0
 277.333333333 2886.66666667 301.5 2962.5 350.5 3037.5 c 128
 399.5 3112.5 462.5 3173.33333333 539.5 3220 c 128
 616.5 3266.66666667 693.333333333 3290 770 3290 c 0
 798.666666667 3290 823.5 3280.16666667 844.5 3260.5 c 128
 865.5 3240.83333333 876 3217.33333333 876 3190 c 0
 876 3168.66666667 872.5 3151 865.5 3137 c 128
 858.5 3123 848 3111.83333333 834 3103.5 c 128
 820 3095.16666667 806.166666667 3088.66666667 792.5 3084 c 128
 778.833333333 3079.33333333 761.5 3073.66666667 740.5 3067 c 128
 719.5 3060.33333333 702 3054 688 3048 c 0
 636.666666667 3025.33333333 589.833333333 2992.5 547.5 2949.5 c 128
 505.166666667 2906.5 484 2860 484 2810 c 2
 484 2744 l 2
 484 2739.33333333 481.666666667 2733 477 2725 c 128
 472.333333333 2717 470 2712.66666667 470 2712 c 2
 470 2632 l 1
 456 2607 l 2
 446 2590.33333333 437.166666667 2569.33333333 429.5 2544 c 128
 421.833333333 2518.66666667 418 2491.33333333 418 2462 c 2
 418 960 l 2
 420 956 428.166666667 949.166666667 442.5 939.5 c 128
 456.833333333 929.833333333 462.666666667 920 460 910 c 1
 460 840 l 1
 474.666666667 803.333333333 487.333333333 763 498 719 c 128
 508.666666667 675 519 626.166666667 529 572.5 c 128
 539 518.833333333 547.333333333 478.666666667 554 452 c 0
 561.333333333 422.666666667 571.5 398.333333333 584.5 379 c 128
 597.5 359.666666667 614 338.666666667 634 316 c 128
 654 293.333333333 671.333333333 269.333333333 686 244 c 1
 804 164 l 1
 1470 164 l 1
 1474.66666667 171.333333333 1487.66666667 180 1509 190 c 128
 1530.33333333 200 1544.66666667 210 1552 220 c 1
 1550 927 l 1
 980 1024 l 1
 980 1004 980.166666667 973.833333333 980.5 933.5 c 128
 980.833333333 893.166666667 981 862.833333333 981 842.5 c 128
 981 822.166666667 980.666666667 792 980 752 c 0
 979.333333333 727.333333333 965.166666667 705.166666667 937.5 685.5 c 128
 909.833333333 665.833333333 881.333333333 656 852 656 c 0
 824 656 799.666666667 666.166666667 779 686.5 c 128
 758.333333333 706.833333333 748.666666667 730.666666667 750 758 c 2
 750 922 l 2
 749.333333333 930.666666667 753.166666667 954.166666667 761.5 992.5 c 128
 769.833333333 1030.83333333 774 1063.33333333 774 1090 c 0
 774 1127.33333333 792.333333333 1160 829 1188 c 128
 865.666666667 1216 906 1230 950 1230 c 0
 1010 1230 1104.83333333 1217.66666667 1234.5 1193 c 128
 1364.16666667 1168.33333333 1454 1154.66666667 1504 1152 c 0
 1578.66666667 1148 1637.33333333 1126.16666667 1680 1086.5 c 128
 1722.66666667 1046.83333333 1744 993.333333333 1744 926 c 2
 1744 212 l 2
 1744 164.666666667 1721.33333333 116 1676 66 c 0
 1663.33333333 53.3333333333 1651.5 38 1640.5 20 c 128
 1629.5 2 1619.66666667 -15.1666666667 1611 -31.5 c 128
 1602.33333333 -47.8333333333 1596.66666667 -58 1594 -62 c 1
 754 -62 l 2
 746.666666667 -61.3333333333 737.666666667 -54.5 727 -41.5 c 128
 716.333333333 -28.5 710 -21.3333333333 708 -20 c 2
 552 88 l 2
 544.666666667 92.6666666667 532 109.333333333 514 138 c 0
 504.666666667 151.333333333 491.5 167.5 474.5 186.5 c 128
 457.5 205.5 442.666666667 222.166666667 430 236.5 c 128
 417.333333333 250.833333333 404.833333333 269 392.5 291 c 128
 380.166666667 313 371.333333333 335.666666667 366 359 c 2
 238 938 l 1
 253 1652 l 2
 252.333333333 1653.33333333 248 1654.83333333 240 1656.5 c 128
 232 1658.16666667 224 1659.33333333 216 1660 c 128
 208 1660.66666667 204 1661.33333333 204 1662 c 2
 204 2484 l 1
 206.666666667 2528 219.5 2592.83333333 242.5 2678.5 c 128
 265.5 2764.16666667 277.333333333 2808 278 2810 c 0
EndSplineSet
EndChar

StartChar: seven
Encoding: 55 55 26
Width: 1794
Flags: HW
LayerCount: 2
Fore
SplineSet
1332 2850 m 1
 1292 2839.33333333 1247.66666667 2823.5 1199 2802.5 c 128
 1150.33333333 2781.5 1108.83333333 2763 1074.5 2747 c 128
 1040.16666667 2731 996.666666667 2717 944 2705 c 0
 898 2695 850.333333333 2690 801 2690 c 0
 789 2690 789 2690 776 2690 c 0
 755.333333333 2690.66666667 733.5 2691 710.5 2691 c 128
 687.5 2691 661.833333333 2690.83333333 633.5 2690.5 c 128
 605.166666667 2690.16666667 583.333333333 2690 568 2690 c 0
 564 2690 564 2690 561 2690 c 0
 361 2690 154 2829.33333333 -60 3108 c 0
 -74 3128 -81 3149 -81 3171 c 128
 -81 3193 -74.1666666667 3212 -60.5 3228 c 128
 -46.8333333333 3244 -31 3256.5 -13 3265.5 c 128
 5 3274.5 24.8333333333 3276.5 46.5 3271.5 c 128
 68.1666666667 3266.5 86.6666666667 3254 102 3234 c 0
 131.333333333 3196 157.166666667 3163.83333333 179.5 3137.5 c 128
 201.833333333 3111.16666667 229.666666667 3081.5 263 3048.5 c 128
 296.333333333 3015.5 327.833333333 2989 357.5 2969 c 128
 387.166666667 2949 420.5 2931.83333333 457.5 2917.5 c 128
 494.5 2903.16666667 531.333333333 2896 568 2896 c 2
 760 2896 l 2
 882 2896 971.333333333 2914.66666667 1028 2952 c 1
 1041.33333333 2956 1070.16666667 2968 1114.5 2988 c 128
 1158.83333333 3008 1203 3024.33333333 1247 3037 c 128
 1291 3049.66666667 1334.66666667 3056 1378 3056 c 0
 1452 3056 1519.83333333 3028.66666667 1581.5 2974 c 128
 1643.16666667 2919.33333333 1679.33333333 2858.66666667 1690 2792 c 0
 1700 2728.66666667 1705 2670 1705 2616 c 0
 1705 2603.33333333 1704.66666667 2591.33333333 1704 2580 c 0
 1702.66666667 2546.66666667 1697.5 2514.16666667 1688.5 2482.5 c 128
 1679.5 2450.83333333 1670.16666667 2425.16666667 1660.5 2405.5 c 128
 1650.83333333 2385.83333333 1637.83333333 2361.16666667 1621.5 2331.5 c 128
 1605.16666667 2301.83333333 1593.33333333 2279.33333333 1586 2264 c 0
 1582.66666667 2256.66666667 1562 2216.66666667 1524 2144 c 128
 1486 2071.33333333 1451.33333333 2002 1420 1936 c 128
 1388.66666667 1870 1370 1824.66666667 1364 1800 c 0
 1311.33333333 1573.33333333 1271.5 1378.66666667 1244.5 1216 c 128
 1217.5 1053.33333333 1204 908.666666667 1204 782 c 0
 1204 767.333333333 1204.33333333 746.666666667 1205 720 c 128
 1205.66666667 693.333333333 1206 669.166666667 1206 647.5 c 128
 1206 625.833333333 1205.33333333 605.333333333 1204 586 c 0
 1202 552.666666667 1202.66666667 517.833333333 1206 481.5 c 128
 1209.33333333 445.166666667 1215.5 405.833333333 1224.5 363.5 c 128
 1233.5 321.166666667 1240.83333333 288.833333333 1246.5 266.5 c 128
 1252.16666667 244.166666667 1261.66666667 210.333333333 1275 165 c 128
 1288.33333333 119.666666667 1295.33333333 95.3333333333 1296 92 c 0
 1329.33333333 56.6666666667 1337.16666667 18.3333333333 1319.5 -23 c 128
 1301.83333333 -64.3333333333 1269.33333333 -85.3333333333 1222 -86 c 0
 1198.66666667 -86 1173.33333333 -72.3333333333 1146 -45 c 128
 1118.66666667 -17.6666666667 1103.33333333 6 1100 26 c 0
 1098.66666667 32 1087.16666667 71.8333333333 1065.5 145.5 c 128
 1043.83333333 219.166666667 1025.33333333 290.666666667 1010 360 c 0
 999.333333333 410.666666667 994 449.666666667 994 477 c 0
 994 487 994.666666667 495.333333333 996 502 c 0
 996 564.666666667 997.333333333 622.666666667 1000 676 c 1
 1000 788 l 2
 1000 1046.66666667 1055.33333333 1402 1166 1854 c 0
 1194 1968.66666667 1287.33333333 2160.66666667 1446 2430 c 0
 1464.66666667 2461.33333333 1479 2500 1489 2546 c 0
 1497.66666667 2585.33333333 1502 2624 1502 2662 c 0
 1502 2672 1502 2672 1502 2682 c 0
 1500 2726 1488.16666667 2764.33333333 1466.5 2797 c 128
 1444.83333333 2829.66666667 1414 2847.33333333 1374 2850 c 1
 1332 2850 l 1
EndSplineSet
EndChar

StartChar: eight
Encoding: 56 56 27
Width: 2014
Flags: HW
LayerCount: 2
Fore
SplineSet
1618 1774 m 1
 1702.66666667 1715.33333333 1779.5 1605 1848.5 1443 c 128
 1917.5 1281 1952.66666667 1132 1954 996 c 2
 1954 890 l 2
 1954 716.666666667 1919.5 573 1850.5 459 c 128
 1781.5 345 1661.33333333 231.333333333 1490 118 c 0
 1444 90 1402 76 1364 76 c 2
 706 76 l 2
 694.666666667 76 682.5 79.6666666667 669.5 87 c 128
 656.5 94.3333333333 641.5 104.5 624.5 117.5 c 128
 607.5 130.5 594 140 584 146 c 0
 494.666666667 204.666666667 420.333333333 260.5 361 313.5 c 128
 301.666666667 366.5 251.333333333 424 210 486 c 128
 168.666666667 548 140.666666667 614.333333333 126 685 c 0
 118 726.333333333 114 770.333333333 114 817 c 0
 114 849.666666667 116 883.333333333 120 918 c 1
 120 1026 l 1
 128.666666667 1189.33333333 164.333333333 1338.5 227 1473.5 c 128
 289.666666667 1608.5 365.333333333 1718 454 1802 c 1
 421.333333333 1813.33333333 392.333333333 1825.83333333 367 1839.5 c 128
 341.666666667 1853.16666667 318.166666667 1870.16666667 296.5 1890.5 c 128
 274.833333333 1910.83333333 256.333333333 1930.5 241 1949.5 c 128
 225.666666667 1968.5 209.166666667 1994.5 191.5 2027.5 c 128
 173.833333333 2060.5 158.833333333 2090.33333333 146.5 2117 c 128
 134.166666667 2143.66666667 118 2180.66666667 98 2228 c 1
 98 2598 l 2
 98 2664 107.833333333 2721 127.5 2769 c 128
 147.166666667 2817 180.666666667 2858.66666667 228 2894 c 0
 229.333333333 2894.66666667 254.333333333 2915.5 303 2956.5 c 128
 351.666666667 2997.5 387.333333333 3022.66666667 410 3032 c 0
 494.666666667 3068 564.833333333 3096.16666667 620.5 3116.5 c 128
 676.166666667 3136.83333333 733.5 3154.16666667 792.5 3168.5 c 128
 851.5 3182.83333333 903 3191 947 3193 c 0
 955.666666667 3193.66666667 964.666666667 3194 974 3194 c 0
 1011.33333333 3194 1053.33333333 3190.66666667 1100 3184 c 0
 1158 3176 1215.5 3163.66666667 1272.5 3147 c 128
 1329.5 3130.33333333 1398.66666667 3107.33333333 1480 3078 c 0
 1521.33333333 3063.33333333 1585.66666667 3028.16666667 1673 2972.5 c 128
 1760.33333333 2916.83333333 1812.66666667 2884.66666667 1830 2876 c 0
 1941.33333333 2822.66666667 1997 2733.33333333 1997 2608 c 0
 1997 2596.66666667 1996.66666667 2585.33333333 1996 2574 c 2
 1996 2200 l 1
 1953.33333333 2078.66666667 1898.33333333 1981.5 1831 1908.5 c 128
 1763.66666667 1835.5 1692.66666667 1790.66666667 1618 1774 c 1
692 1812 m 1
 692 1777.33333333 664 1740 608 1700 c 0
 510.666666667 1630 434.666666667 1524.66666667 380 1384 c 0
 328 1248 302 1157.33333333 302 1112 c 2
 302 822 l 2
 302 687.333333333 352.666666667 569.333333333 454 468 c 0
 566 356 656.666666667 293.333333333 726 280 c 1
 1345 189 l 1
 1350 252 l 1
 1362.66666667 252 1378.66666667 257.333333333 1398 268 c 0
 1655.33333333 425.333333333 1784 600.666666667 1784 794 c 2
 1784 1084 l 2
 1784 1090.66666667 1780.33333333 1101.66666667 1773 1117 c 128
 1765.66666667 1132.33333333 1760.66666667 1144.66666667 1758 1154 c 0
 1690 1407.33333333 1592 1580 1464 1672 c 0
 1435.33333333 1692.66666667 1414.16666667 1711.33333333 1400.5 1728 c 128
 1386.83333333 1744.66666667 1380 1762 1380 1780 c 0
 1380 1823.33333333 1392.16666667 1855.16666667 1416.5 1875.5 c 128
 1440.83333333 1895.83333333 1479.33333333 1914 1532 1930 c 0
 1668 1967.33333333 1756.66666667 2043.33333333 1798 2158 c 1
 1798 2716 l 1
 1793.33333333 2717.33333333 1776.83333333 2725.33333333 1748.5 2740 c 128
 1720.16666667 2754.66666667 1707.33333333 2763.33333333 1710 2766 c 0
 1710.66666667 2780 1701.83333333 2793 1683.5 2805 c 128
 1665.16666667 2817 1643.5 2828.16666667 1618.5 2838.5 c 128
 1593.5 2848.83333333 1578 2856 1572 2860 c 2
 1508 2908 l 1
 1409 2941 l 2
 1343 2963 1307.33333333 2976.66666667 1302 2982 c 0
 1270.66666667 3015.33333333 1230 3032 1180 3032 c 0
 1176 3032 1176 3032 1172 3032 c 2
 1006 3032 l 2
 884 3032 710 2979.33333333 484 2874 c 0
 476 2871.33333333 450.5 2851.83333333 407.5 2815.5 c 128
 364.5 2779.16666667 341.333333333 2760 338 2758 c 0
 282 2720 254 2667.33333333 254 2600 c 2
 254 2304 l 1
 262 2294 275.166666667 2268.33333333 293.5 2227 c 128
 311.833333333 2185.66666667 330.833333333 2145.66666667 350.5 2107 c 128
 370.166666667 2068.33333333 387.333333333 2044 402 2034 c 1
 416 2014.66666667 435.333333333 1999.16666667 460 1987.5 c 128
 484.666666667 1975.83333333 509.166666667 1967 533.5 1961 c 128
 557.833333333 1955 581.666666667 1947.5 605 1938.5 c 128
 628.333333333 1929.5 647.833333333 1914.66666667 663.5 1894 c 128
 679.166666667 1873.33333333 688.666666667 1846 692 1812 c 1
EndSplineSet
EndChar

StartChar: nine
Encoding: 57 57 28
Width: 1884
Flags: HW
LayerCount: 2
Fore
SplineSet
1688 418 m 0
 1688 342.666666667 1663.16666667 269.5 1613.5 198.5 c 128
 1563.83333333 127.5 1501.33333333 69.3333333333 1426 24 c 128
 1350.66666667 -21.3333333333 1274 -49.3333333333 1196 -60 c 0
 1172 -63.3333333333 1151.5 -59.3333333333 1134.5 -48 c 128
 1117.5 -36.6666666667 1106.16666667 -21.5 1100.5 -2.5 c 128
 1094.83333333 16.5 1093 36 1095 56 c 128
 1097 76 1104.83333333 94.3333333333 1118.5 111 c 128
 1132.16666667 127.666666667 1150 138 1172 142 c 0
 1198 147.333333333 1224.66666667 155.166666667 1252 165.5 c 128
 1279.33333333 175.833333333 1306.66666667 189.166666667 1334 205.5 c 128
 1361.33333333 221.833333333 1385.66666667 240.166666667 1407 260.5 c 128
 1428.33333333 280.833333333 1445.83333333 304.666666667 1459.5 332 c 128
 1473.16666667 359.333333333 1480.66666667 388 1482 418 c 2
 1482 484 l 2
 1482 486.666666667 1486.66666667 491.333333333 1496 498 c 128
 1505.33333333 504.666666667 1515.66666667 513 1527 523 c 128
 1538.33333333 533 1546 543.333333333 1550 554 c 1
 1550 2268 l 2
 1548 2272 1539.5 2278.83333333 1524.5 2288.5 c 128
 1509.5 2298.16666667 1503.33333333 2308 1506 2318 c 1
 1506 2388 l 1
 1494 2424.66666667 1479.5 2480.33333333 1462.5 2555 c 128
 1445.5 2629.66666667 1434.66666667 2675.33333333 1430 2692 c 0
 1428 2700 1424.5 2714.5 1419.5 2735.5 c 128
 1414.5 2756.5 1410.33333333 2773.5 1407 2786.5 c 128
 1403.66666667 2799.5 1398.5 2813.83333333 1391.5 2829.5 c 128
 1384.5 2845.16666667 1376.66666667 2857.33333333 1368 2866 c 0
 1351.33333333 2882.66666667 1322 2922 1280 2984 c 1
 1162 3064 l 1
 496 3064 l 1
 491.333333333 3056.66666667 478.166666667 3048 456.5 3038 c 128
 434.833333333 3028 420.666666667 3018 414 3008 c 1
 416 2301 l 1
 986 2204 l 1
 986 2476 l 2
 986 2500.66666667 1000 2522.83333333 1028 2542.5 c 128
 1056 2562.16666667 1084.66666667 2572 1114 2572 c 0
 1142 2572 1166.33333333 2561.83333333 1187 2541.5 c 128
 1207.66666667 2521.16666667 1217.33333333 2497.33333333 1216 2470 c 2
 1216 2306 l 2
 1216.66666667 2297.33333333 1212.83333333 2273.83333333 1204.5 2235.5 c 128
 1196.16666667 2197.16666667 1192 2164.66666667 1192 2138 c 0
 1192 2101.33333333 1173.83333333 2068.83333333 1137.5 2040.5 c 128
 1101.16666667 2012.16666667 1061.33333333 1998 1018 1998 c 0
 960 1998 866.333333333 2010.5 737 2035.5 c 128
 607.666666667 2060.5 517.333333333 2074 466 2076 c 0
 400.666666667 2078.66666667 350 2098 314 2134 c 1
 280 2164 256.166666667 2189.83333333 242.5 2211.5 c 128
 228.833333333 2233.16666667 222 2263.33333333 222 2302 c 2
 222 3016 l 2
 222 3064.66666667 245.333333333 3113.33333333 292 3162 c 0
 304 3175.33333333 315.5 3190.5 326.5 3207.5 c 128
 337.5 3224.5 347.666666667 3241.66666667 357 3259 c 128
 366.333333333 3276.33333333 372 3286.66666667 374 3290 c 1
 1212 3290 l 2
 1218.66666667 3289.33333333 1227.33333333 3282.33333333 1238 3269 c 128
 1248.66666667 3255.66666667 1255.33333333 3248 1258 3246 c 2
 1414 3140 l 2
 1426 3128.66666667 1443.5 3106.66666667 1466.5 3074 c 128
 1489.5 3041.33333333 1508.66666667 3017.33333333 1524 3002 c 0
 1543.33333333 2982 1564.5 2945.5 1587.5 2892.5 c 128
 1610.5 2839.5 1622 2798 1622 2768 c 1
 1729 2290 l 1
 1713 1574 l 1
 1762 1574 l 1
 1762 744 l 1
 1759.33333333 707.333333333 1746.33333333 653 1723 581 c 128
 1699.66666667 509 1688 454.666666667 1688 418 c 0
EndSplineSet
EndChar

StartChar: colon
Encoding: 58 58 29
Width: 548
Flags: HW
LayerCount: 2
Fore
SplineSet
94 1722 m 0
 83.3333333333 1751.33333333 79.3333333333 1777.83333333 82 1801.5 c 128
 84.6666666667 1825.16666667 91.1666666667 1847.16666667 101.5 1867.5 c 128
 111.833333333 1887.83333333 126 1904.66666667 144 1918 c 128
 162 1931.33333333 181.166666667 1942.33333333 201.5 1951 c 128
 221.833333333 1959.66666667 243.666666667 1963.66666667 267 1963 c 128
 290.333333333 1962.33333333 312.166666667 1958.5 332.5 1951.5 c 128
 352.833333333 1944.5 372 1932.33333333 390 1915 c 128
 408 1897.66666667 422 1876 432 1850 c 0
 442.666666667 1819.33333333 446.5 1789.83333333 443.5 1761.5 c 128
 440.5 1733.16666667 431.166666667 1709.16666667 415.5 1689.5 c 128
 399.833333333 1669.83333333 381.166666667 1652.83333333 359.5 1638.5 c 128
 337.833333333 1624.16666667 313.833333333 1615.33333333 287.5 1612 c 128
 261.166666667 1608.66666667 236 1609.5 212 1614.5 c 128
 188 1619.5 165.166666667 1631.33333333 143.5 1650 c 128
 121.833333333 1668.66666667 105.333333333 1692.66666667 94 1722 c 0
94 552 m 0
 83.3333333333 581.333333333 79.3333333333 607.833333333 82 631.5 c 128
 84.6666666667 655.166666667 91.1666666667 677.333333333 101.5 698 c 128
 111.833333333 718.666666667 126 735.5 144 748.5 c 128
 162 761.5 181.333333333 772 202 780 c 128
 222.666666667 788 244.5 791.666666667 267.5 791 c 128
 290.5 790.333333333 312.333333333 786.5 333 779.5 c 128
 353.666666667 772.5 372.833333333 760.166666667 390.5 742.5 c 128
 408.166666667 724.833333333 422 703.333333333 432 678 c 0
 442.666666667 649.333333333 446.833333333 623.333333333 444.5 600 c 128
 442.166666667 576.666666667 435.833333333 554.666666667 425.5 534 c 128
 415.166666667 513.333333333 401 496.333333333 383 483 c 128
 365 469.666666667 345.666666667 458.666666667 325 450 c 128
 304.333333333 441.333333333 282.333333333 437.166666667 259 437.5 c 128
 235.666666667 437.833333333 213.666666667 441.5 193 448.5 c 128
 172.333333333 455.5 153.166666667 468 135.5 486 c 128
 117.833333333 504 104 526 94 552 c 0
EndSplineSet
EndChar

StartChar: semicolon
Encoding: 59 59 30
Width: 1802
Flags: HW
LayerCount: 2
Fore
SplineSet
960 2386 m 0
 973.333333333 2343.33333333 974.5 2303.5 963.5 2266.5 c 128
 952.5 2229.5 931 2201.5 899 2182.5 c 128
 867 2163.5 833.666666667 2151.16666667 799 2145.5 c 128
 764.333333333 2139.83333333 730.166666667 2147 696.5 2167 c 128
 662.833333333 2187 638.666666667 2218 624 2260 c 0
 612.666666667 2290.66666667 608.166666667 2320 610.5 2348 c 128
 612.833333333 2376 621.833333333 2399.83333333 637.5 2419.5 c 128
 653.166666667 2439.16666667 671.666666667 2456 693 2470 c 128
 714.333333333 2484 738.333333333 2492.5 765 2495.5 c 128
 791.666666667 2498.5 817.166666667 2497.66666667 841.5 2493 c 128
 865.833333333 2488.33333333 888.833333333 2476.66666667 910.5 2458 c 128
 932.166666667 2439.33333333 948.666666667 2415.33333333 960 2386 c 0
1220 452 m 0
 1220 477.333333333 1215.66666667 519.333333333 1207 578 c 0
 1201 618 1198 655.333333333 1198 690 c 0
 1198 706 1198.66666667 721.333333333 1200 736 c 0
 1202.66666667 762 1204 788.333333333 1204 815 c 0
 1204 859 1200 903.333333333 1192 948 c 0
 1185.33333333 988 1168.16666667 1017.33333333 1140.5 1036 c 128
 1112.83333333 1054.66666667 1072.66666667 1066 1020 1070 c 1
 872 1070 l 2
 837.333333333 1070 812.333333333 1064.66666667 797 1054 c 128
 781.666666667 1043.33333333 774 1024 774 996 c 2
 774 946 l 1
 860 946 l 1
 856.666666667 940 852 930.833333333 846 918.5 c 128
 840 906.166666667 835 895.833333333 831 887.5 c 128
 827 879.166666667 821 869.166666667 813 857.5 c 128
 805 845.833333333 797.333333333 837.833333333 790 833.5 c 128
 782.666666667 829.166666667 773 825 761 821 c 128
 749 817 736.666666667 818 724 824 c 1
 682.666666667 824 647.666666667 844 619 884 c 128
 590.333333333 924 572 968 564 1016 c 0
 556 1052.66666667 552 1087.66666667 552 1121 c 0
 552 1143.66666667 554 1165.33333333 558 1186 c 0
 567.333333333 1238 592.666666667 1280.66666667 634 1314 c 0
 677.333333333 1349.33333333 724.666666667 1367 776 1367 c 0
 788 1367 800 1366 812 1364 c 1
 859.333333333 1374 904.333333333 1379 947 1379 c 0
 1029 1379 1103 1360.66666667 1169 1324 c 0
 1269 1268.66666667 1336.66666667 1186.66666667 1372 1078 c 0
 1384 1037.33333333 1390 995.333333333 1390 952 c 0
 1390 914 1385.33333333 875.333333333 1376 836 c 1
 1376.66666667 801.333333333 1378.66666667 750.833333333 1382 684.5 c 128
 1385.33333333 618.166666667 1387.33333333 564 1388 522 c 0
 1388 516 1388 516 1388 508 c 0
 1388 470 1386.66666667 426.333333333 1384 377 c 0
 1381.33333333 321.666666667 1374.16666667 270 1362.5 222 c 128
 1350.83333333 174 1334.66666667 128 1314 84 c 0
 1249.33333333 -51.3333333333 1139.33333333 -144.666666667 984 -196 c 0
 981.333333333 -197.333333333 952.166666667 -212.5 896.5 -241.5 c 128
 840.833333333 -270.5 786 -298.5 732 -325.5 c 128
 678 -352.5 648 -366 642 -366 c 0
 641 -366 641 -366 640 -366 c 0
 635.333333333 -366 633 -364.333333333 633 -361 c 0
 633 -343.666666667 686 -287.666666667 792 -193 c 0
 804 -182.333333333 816.666666667 -171.333333333 830 -160 c 0
 922.666666667 -78 983.5 -22.1666666667 1012.5 7.5 c 128
 1041.5 37.1666666667 1079.33333333 84 1126 148 c 0
 1188.66666667 233.333333333 1220 334.666666667 1220 452 c 0
EndSplineSet
EndChar

StartChar: less
Encoding: 60 60 31
Width: 1702
Flags: HW
LayerCount: 2
Fore
SplineSet
1232 1828 m 0
 1265.33333333 1851.33333333 1297 1863 1327 1863 c 0
 1339.66666667 1863 1352 1860.66666667 1364 1856 c 0
 1404 1842 1426 1807.33333333 1430 1752 c 0
 1430 1722.66666667 1411.33333333 1695.33333333 1374 1670 c 0
 1338.66666667 1646 1270.16666667 1620.83333333 1168.5 1594.5 c 128
 1066.83333333 1568.16666667 961.666666667 1543 853 1519 c 128
 744.333333333 1495 672.666666667 1476 638 1462 c 0
 572.666666667 1437.33333333 524 1407.33333333 492 1372 c 128
 460 1336.66666667 444 1284 444 1214 c 0
 444 1140.66666667 468 1080 516 1032 c 0
 565.333333333 982.666666667 678 921.333333333 854 848 c 0
 986 793.333333333 1077 752.833333333 1127 726.5 c 128
 1177 700.166666667 1236 661.333333333 1304 610 c 0
 1335.33333333 586.666666667 1346.16666667 555.166666667 1336.5 515.5 c 128
 1326.83333333 475.833333333 1306 449 1274 435 c 128
 1242 421 1208.66666667 426.666666667 1174 452 c 1
 1145.33333333 478.666666667 1078.83333333 517 974.5 567 c 128
 870.166666667 617 764.166666667 666.666666667 656.5 716 c 128
 548.833333333 765.333333333 480.666666667 800.666666667 452 822 c 0
 310.666666667 926.666666667 240 1049.33333333 240 1190 c 0
 240 1402.66666667 330.666666667 1550 512 1632 c 0
 546.666666667 1646.66666667 574.666666667 1658.33333333 596 1667 c 128
 617.333333333 1675.66666667 642.166666667 1683.66666667 670.5 1691 c 128
 698.833333333 1698.33333333 720 1703.5 734 1706.5 c 128
 748 1709.5 779.333333333 1715.5 828 1724.5 c 128
 876.666666667 1733.5 917.333333333 1741.33333333 950 1748 c 0
 1103.33333333 1778 1197.33333333 1804.66666667 1232 1828 c 0
EndSplineSet
EndChar

StartChar: equal
Encoding: 61 61 32
Width: 1702
Flags: HW
LayerCount: 2
Fore
SplineSet
1380 1549 m 2
 1400 1537.66666667 1413.5 1520.33333333 1420.5 1497 c 128
 1427.5 1473.66666667 1428.33333333 1450.66666667 1423 1428 c 128
 1417.66666667 1405.33333333 1406.83333333 1385.5 1390.5 1368.5 c 128
 1374.16666667 1351.5 1354.66666667 1343.33333333 1332 1344 c 1
 920 1530 l 1
 880 1540 824 1546 752 1548 c 0
 749 1548 749 1548 746 1548 c 0
 715.333333333 1548 662 1543.33333333 586 1534 c 0
 505.333333333 1524 450 1515.33333333 420 1508 c 1
 274 1508 l 2
 206 1508 172 1529.33333333 172 1572 c 0
 172 1592.66666667 175.166666667 1610.16666667 181.5 1624.5 c 128
 187.833333333 1638.83333333 197.333333333 1650 210 1658 c 128
 222.666666667 1666 236.166666667 1672.5 250.5 1677.5 c 128
 264.833333333 1682.5 282 1687.33333333 302 1692 c 0
 306.666666667 1692.66666667 310 1693.33333333 312 1694 c 0
 472.666666667 1734 612.666666667 1754 732 1754 c 0
 795.333333333 1754 848 1751.5 890 1746.5 c 128
 932 1741.5 959 1736.33333333 971 1731 c 2
 1380 1549 l 2
1379 1030 m 2
 1399 1019.33333333 1412.66666667 1002.5 1420 979.5 c 128
 1427.33333333 956.5 1428.33333333 933.833333333 1423 911.5 c 128
 1417.66666667 889.166666667 1406.66666667 869.5 1390 852.5 c 128
 1373.33333333 835.5 1354 827.333333333 1332 828 c 1
 920 1014 l 1
 880 1024 824 1030 752 1032 c 0
 749 1032 749 1032 746 1032 c 0
 715.333333333 1032 662 1027.33333333 586 1018 c 0
 505.333333333 1008 450 999.333333333 420 992 c 1
 274 992 l 2
 206 992 172 1013.33333333 172 1056 c 0
 172 1076.66666667 175.166666667 1094.16666667 181.5 1108.5 c 128
 187.833333333 1122.83333333 197.333333333 1134 210 1142 c 128
 222.666666667 1150 236.166666667 1156.5 250.5 1161.5 c 128
 264.833333333 1166.5 282 1171.33333333 302 1176 c 0
 306.666666667 1176.66666667 310 1177.33333333 312 1178 c 0
 472.666666667 1218 612.666666667 1238 732 1238 c 0
 795.333333333 1238 848.166666667 1235.5 890.5 1230.5 c 128
 932.833333333 1225.5 959.666666667 1220.33333333 971 1215 c 2
 1379 1030 l 2
EndSplineSet
EndChar

StartChar: greater
Encoding: 62 62 33
Width: 1702
Flags: HW
LayerCount: 2
Fore
SplineSet
296 1670 m 1
 260 1689.33333333 241.166666667 1717.16666667 239.5 1753.5 c 128
 237.833333333 1789.83333333 253.166666667 1820.83333333 285.5 1846.5 c 128
 317.833333333 1872.16666667 352.666666667 1874 390 1852 c 0
 458 1812 585.333333333 1774 772 1738 c 0
 833.333333333 1726 885.166666667 1715 927.5 1705 c 128
 969.833333333 1695 1016 1682 1066 1666 c 128
 1116 1650 1157.33333333 1633 1190 1615 c 128
 1222.66666667 1597 1255.5 1574.33333333 1288.5 1547 c 128
 1321.5 1519.66666667 1347.5 1489.5 1366.5 1456.5 c 128
 1385.5 1423.5 1400.83333333 1384.5 1412.5 1339.5 c 128
 1424.16666667 1294.5 1430 1244.66666667 1430 1190 c 0
 1430 1049.33333333 1359.33333333 926.666666667 1218 822 c 0
 1189.33333333 800.666666667 1121 765.5 1013 716.5 c 128
 905 667.5 798.833333333 618 694.5 568 c 128
 590.166666667 518 524 479.333333333 496 452 c 0
 467.333333333 424 434.833333333 418.333333333 398.5 435 c 128
 362.166666667 451.666666667 340.333333333 477.5 333 512.5 c 128
 325.666666667 547.5 336.666666667 580 366 610 c 1
 434 660.666666667 493.166666667 699.333333333 543.5 726 c 128
 593.833333333 752.666666667 684.666666667 793.333333333 816 848 c 0
 992 921.333333333 1104.66666667 982.666666667 1154 1032 c 0
 1200.66666667 1078.66666667 1224 1139.33333333 1224 1214 c 0
 1224 1251.33333333 1219.66666667 1283.66666667 1211 1311 c 128
 1202.33333333 1338.33333333 1188.83333333 1361.33333333 1170.5 1380 c 128
 1152.16666667 1398.66666667 1132.66666667 1414 1112 1426 c 128
 1091.33333333 1438 1065.33333333 1450 1034 1462 c 0
 1000 1475.33333333 928 1493.83333333 818 1517.5 c 128
 708 1541.16666667 602 1566.16666667 500 1592.5 c 128
 398 1618.83333333 330 1644.66666667 296 1670 c 1
EndSplineSet
EndChar

StartChar: question
Encoding: 63 63 34
Width: 1376
Flags: HW
LayerCount: 2
Fore
SplineSet
1296 2908 m 0
 1298 2872.66666667 1297.83333333 2839 1295.5 2807 c 128
 1293.16666667 2775 1287.83333333 2742 1279.5 2708 c 128
 1271.16666667 2674 1264.33333333 2648 1259 2630 c 128
 1253.66666667 2612 1244 2583.33333333 1230 2544 c 128
 1216 2504.66666667 1207.33333333 2480 1204 2470 c 1
 1204 2408 l 2
 1204 2404 1202.33333333 2399.5 1199 2394.5 c 128
 1195.66666667 2389.5 1194 2386.66666667 1194 2386 c 0
 1184.66666667 2344 1173.5 2304.33333333 1160.5 2267 c 128
 1147.5 2229.66666667 1136.33333333 2199.16666667 1127 2175.5 c 128
 1117.66666667 2151.83333333 1102 2122 1080 2086 c 128
 1058 2050 1042.16666667 2025 1032.5 2011 c 128
 1022.83333333 1997 1001.83333333 1967.66666667 969.5 1923 c 128
 937.166666667 1878.33333333 915.333333333 1848 904 1832 c 0
 883.333333333 1803.33333333 858.666666667 1769.33333333 830 1730 c 128
 801.333333333 1690.66666667 782 1664.16666667 772 1650.5 c 128
 762 1636.83333333 749.166666667 1617 733.5 1591 c 128
 717.833333333 1565 708.166666667 1545.83333333 704.5 1533.5 c 128
 700.833333333 1521.16666667 696.166666667 1502 690.5 1476 c 128
 684.833333333 1450 681.666666667 1424.83333333 681 1400.5 c 128
 680.333333333 1376.16666667 680 1344 680 1304 c 2
 680 894 l 2
 682 884.666666667 689.166666667 873 701.5 859 c 128
 713.833333333 845 720 836 720 832 c 0
 724 816.666666667 730.5 779.166666667 739.5 719.5 c 128
 748.5 659.833333333 760 615.333333333 774 586 c 1
 792 602 814.666666667 610 842 610 c 0
 873.333333333 610 898.666666667 599.333333333 918 578 c 128
 937.333333333 556.666666667 950.166666667 532.166666667 956.5 504.5 c 128
 962.833333333 476.833333333 966 446 966 412 c 0
 966 382 955.666666667 356.5 935 335.5 c 128
 914.333333333 314.5 889.333333333 304 860 304 c 1
 860 308 l 1
 852.666666667 307.333333333 845.666666667 307 839 307 c 0
 795.666666667 307 752.666666667 323 710 355 c 0
 660 392.333333333 619.666666667 441.666666667 589 503 c 128
 558.333333333 564.333333333 542 626 540 688 c 2
 540 812 l 1
 492 950 l 1
 492 1458 l 2
 492 1492 497.333333333 1527.66666667 508 1565 c 128
 518.666666667 1602.33333333 535 1640.83333333 557 1680.5 c 128
 579 1720.16666667 596.166666667 1749.83333333 608.5 1769.5 c 128
 620.833333333 1789.16666667 638.666666667 1816 662 1850 c 0
 681.333333333 1878 708.833333333 1915.16666667 744.5 1961.5 c 128
 780.166666667 2007.83333333 809.666666667 2047.33333333 833 2080 c 128
 856.333333333 2112.66666667 881.166666667 2151.33333333 907.5 2196 c 128
 933.833333333 2240.66666667 954.666666667 2287.5 970 2336.5 c 128
 985.333333333 2385.5 995.333333333 2437.33333333 1000 2492 c 1
 1006.66666667 2516 1018.83333333 2549.5 1036.5 2592.5 c 128
 1054.16666667 2635.5 1068.16666667 2675.16666667 1078.5 2711.5 c 128
 1088.83333333 2747.83333333 1094 2784.66666667 1094 2822 c 2
 1094 2912 l 2
 1094 2942.66666667 1078.66666667 2973.33333333 1048 3004 c 0
 982.666666667 3069.33333333 884.666666667 3102 754 3102 c 1
 754 3100 l 1
 654 3100 l 2
 637.333333333 3098 623.166666667 3094.33333333 611.5 3089 c 128
 599.833333333 3083.66666667 590.5 3077.83333333 583.5 3071.5 c 128
 576.5 3065.16666667 570 3055.33333333 564 3042 c 128
 558 3028.66666667 553.333333333 3016.5 550 3005.5 c 128
 546.666666667 2994.5 541.666666667 2977.83333333 535 2955.5 c 128
 528.333333333 2933.16666667 522 2913.33333333 516 2896 c 1
 516 2660 l 2
 518 2654.66666667 523 2643.83333333 531 2627.5 c 128
 539 2611.16666667 545.5 2595 550.5 2579 c 128
 555.5 2563 558 2547.33333333 558 2532 c 0
 558 2503.33333333 548 2478.83333333 528 2458.5 c 128
 508 2438.16666667 484 2428 456 2428 c 0
 424.666666667 2428.66666667 399.5 2439.83333333 380.5 2461.5 c 128
 361.5 2483.16666667 352 2511.33333333 352 2546 c 0
 352 2553.33333333 347.5 2572.83333333 338.5 2604.5 c 128
 329.5 2636.16666667 326 2660.66666667 328 2678 c 1
 322.666666667 2701.33333333 320 2723.33333333 320 2744 c 2
 320 2908 l 2
 320 2984.66666667 347.333333333 3069.33333333 402 3162 c 0
 437.333333333 3220 480.666666667 3260 532 3282 c 0
 572 3299.33333333 620.333333333 3308 677 3308 c 0
 693 3308 709.333333333 3307.33333333 726 3306 c 0
 784 3301.33333333 838.333333333 3293.83333333 889 3283.5 c 128
 939.666666667 3273.16666667 990 3257.83333333 1040 3237.5 c 128
 1090 3217.16666667 1132.83333333 3192.66666667 1168.5 3164 c 128
 1204.16666667 3135.33333333 1233.66666667 3099.16666667 1257 3055.5 c 128
 1280.33333333 3011.83333333 1293.33333333 2962.66666667 1296 2908 c 0
990 276 m 0
 1044 276 1082.5 261.833333333 1105.5 233.5 c 128
 1128.5 205.166666667 1140 161.333333333 1140 102 c 0
 1140 70.6666666667 1140.66666667 46.6666666667 1142 30 c 0
 1144 3.33333333333 1137.33333333 -20.6666666667 1122 -42 c 128
 1106.66666667 -63.3333333333 1086.83333333 -78.5 1062.5 -87.5 c 128
 1038.16666667 -96.5 1013 -101.333333333 987 -102 c 128
 961 -102.666666667 937.166666667 -96 915.5 -82 c 128
 893.833333333 -68 879.333333333 -48 872 -22 c 1
 832 -2 812 38 812 98 c 0
 812 148 829.166666667 190.166666667 863.5 224.5 c 128
 897.833333333 258.833333333 940 276 990 276 c 0
EndSplineSet
EndChar

StartChar: at
Encoding: 64 64 35
Width: 2760
Flags: HW
LayerCount: 2
Fore
SplineSet
2092 942 m 2
 2094 968 2095 993.333333333 2095 1018 c 0
 2095 1090 2086.66666667 1157.66666667 2070 1221 c 0
 2046.66666667 1306.33333333 2013 1382.83333333 1969 1450.5 c 128
 1925 1518.16666667 1864 1594.66666667 1786 1680 c 0
 1751.33333333 1718 1712.16666667 1756.16666667 1668.5 1794.5 c 128
 1624.83333333 1832.83333333 1573.5 1872.5 1514.5 1913.5 c 128
 1455.5 1954.5 1395.83333333 1990.66666667 1335.5 2022 c 128
 1275.16666667 2053.33333333 1210 2078.66666667 1140 2098 c 0
 1074 2115.33333333 1011 2124 951 2124 c 0
 944 2124 944 2124 938 2124 c 0
 849.333333333 2122 765.666666667 2100.5 687 2059.5 c 128
 608.333333333 2018.5 541.833333333 1964.5 487.5 1897.5 c 128
 433.166666667 1830.5 391.333333333 1751.66666667 362 1661 c 0
 338 1587 326 1510.66666667 326 1432 c 0
 326 1414 326.666666667 1396 328 1378 c 0
 347.333333333 1087.33333333 387.833333333 858.833333333 449.5 692.5 c 128
 511.166666667 526.166666667 602.666666667 415.333333333 724 360 c 1
 931.333333333 320 1139.33333333 297.333333333 1348 292 c 0
 1388 291.333333333 1429 291 1471 291 c 0
 1643 291 1824 299.333333333 2014 316 c 0
 2048 318.666666667 2085.5 326.5 2126.5 339.5 c 128
 2167.5 352.5 2200.16666667 364.333333333 2224.5 375 c 128
 2248.83333333 385.666666667 2286.33333333 403.333333333 2337 428 c 0
 2346.33333333 432.666666667 2353.33333333 436 2358 438 c 1
 2359.33333333 442 2362 446 2366 450 c 2
 2448 548 l 2
 2464.66666667 572 2488 584.666666667 2518 586 c 128
 2548 587.333333333 2574.33333333 578.5 2597 559.5 c 128
 2619.66666667 540.5 2630.66666667 516.666666667 2630 488 c 0
 2630 461.333333333 2622 438 2606 418 c 2
 2540 338 l 1
 2528 307.333333333 2486 274.333333333 2414 239 c 128
 2342 203.666666667 2242 168 2114 132 c 0
 2090 125.333333333 2064.16666667 119.5 2036.5 114.5 c 128
 2008.83333333 109.5 1977 105.5 1941 102.5 c 128
 1905 99.5 1872.83333333 97.1666666667 1844.5 95.5 c 128
 1816.16666667 93.8333333333 1777.66666667 92.8333333333 1729 92.5 c 128
 1680.33333333 92.1666666667 1642 92 1614 92 c 0
 1599.33333333 91.3333333333 1580.83333333 91 1558.5 91 c 128
 1536.16666667 91 1510 91.3333333333 1480 92 c 0
 1388 92 1388 92 1344 92 c 0
 1255.33333333 92 1193.83333333 92.3333333333 1159.5 93 c 128
 1125.16666667 93.6666666667 1071.66666667 96.1666666667 999 100.5 c 128
 926.333333333 104.833333333 863 112.5 809 123.5 c 128
 755 134.5 702.666666667 149.333333333 652 168 c 0
 575.333333333 196 507.5 237.333333333 448.5 292 c 128
 389.5 346.666666667 340.666666667 409.833333333 302 481.5 c 128
 263.333333333 553.166666667 231.166666667 637 205.5 733 c 128
 179.833333333 829 160.833333333 928 148.5 1030 c 128
 136.166666667 1132 128 1245.33333333 124 1370 c 1
 124 1468 l 1
 132 1717.33333333 210.666666667 1920.16666667 360 2076.5 c 128
 509.333333333 2232.83333333 706 2316.66666667 950 2328 c 1
 1009.33333333 2328 1064.66666667 2322.66666667 1116 2312 c 0
 1416 2246 1688.66666667 2081.33333333 1934 1818 c 0
 2178 1554 2300 1295.33333333 2300 1042 c 2
 2300 888 l 2
 2300 831.333333333 2291.66666667 778.666666667 2275 730 c 128
 2258.33333333 681.333333333 2234.66666667 639.166666667 2204 603.5 c 128
 2173.33333333 567.833333333 2134 542 2086 526 c 0
 2056 516.666666667 2024.66666667 512 1992 512 c 0
 1970.66666667 512 1948.66666667 514 1926 518 c 1
 1901.33333333 514 1877.33333333 512 1854 512 c 0
 1787.33333333 512 1729.66666667 528.666666667 1681 562 c 0
 1615.66666667 607.333333333 1579.33333333 672.666666667 1572 758 c 0
 1570 778.666666667 1566.66666667 797.666666667 1562 815 c 128
 1557.33333333 832.333333333 1555.33333333 848.666666667 1556 864 c 1
 1433.33333333 669.333333333 1296 572 1144 572 c 0
 1072.66666667 572 1009.5 585.666666667 954.5 613 c 128
 899.5 640.333333333 854.666666667 677.166666667 820 723.5 c 128
 785.333333333 769.833333333 757.666666667 825.333333333 737 890 c 128
 716.333333333 954.666666667 703 1022.66666667 697 1094 c 0
 693.666666667 1132 692 1171 692 1211 c 0
 692 1247 693.333333333 1284 696 1322 c 0
 700 1379.33333333 710.166666667 1431.16666667 726.5 1477.5 c 128
 742.833333333 1523.83333333 765 1564 793 1598 c 128
 821 1632 856.666666667 1657.33333333 900 1674 c 0
 934 1687.33333333 971 1694 1011 1694 c 0
 1022.33333333 1694 1034 1693.33333333 1046 1692 c 1
 1046 1694 l 1
 1088 1694 1135.16666667 1684.33333333 1187.5 1665 c 128
 1239.83333333 1645.66666667 1289 1620.66666667 1335 1590 c 128
 1381 1559.33333333 1419 1522 1449 1478 c 0
 1476.33333333 1437.33333333 1490 1397 1490 1357 c 0
 1490 1351 1490 1351 1490 1346 c 0
 1500 1305.33333333 1488.16666667 1273.66666667 1454.5 1251 c 128
 1420.83333333 1228.33333333 1384 1222.66666667 1344 1234 c 128
 1304 1245.33333333 1282 1271.33333333 1278 1312 c 0
 1278 1326.66666667 1279.33333333 1340.66666667 1282 1354 c 1
 1269.33333333 1380 1240.16666667 1408.83333333 1194.5 1440.5 c 128
 1148.83333333 1472.16666667 1110 1488 1078 1488 c 1
 1078 1486 l 1
 1008 1486 l 2
 970.666666667 1486.66666667 943 1472 925 1442 c 0
 908.333333333 1414.66666667 900 1374.66666667 900 1322 c 0
 900 1316 900 1316 900 1310 c 0
 897.333333333 1296.66666667 896 1254.66666667 896 1184 c 0
 896 1051.33333333 916.166666667 950.166666667 956.5 880.5 c 128
 996.833333333 810.833333333 1064.66666667 776 1160 776 c 0
 1183.33333333 776 1205 780.333333333 1225 789 c 128
 1245 797.666666667 1264 812 1282 832 c 128
 1300 852 1314.5 869.333333333 1325.5 884 c 128
 1336.5 898.666666667 1351.33333333 921.5 1370 952.5 c 128
 1388.66666667 983.5 1402 1004.66666667 1410 1016 c 0
 1421.33333333 1033.33333333 1433.16666667 1053.5 1445.5 1076.5 c 128
 1457.83333333 1099.5 1467.5 1117.16666667 1474.5 1129.5 c 128
 1481.5 1141.83333333 1490.5 1154.16666667 1501.5 1166.5 c 128
 1512.5 1178.83333333 1525.83333333 1187.5 1541.5 1192.5 c 128
 1557.16666667 1197.5 1576.66666667 1200 1600 1200 c 0
 1662 1200 1703.33333333 1150.66666667 1724 1052 c 0
 1727.33333333 1036 1732.66666667 1018 1740 998 c 128
 1747.33333333 978 1752.83333333 957.166666667 1756.5 935.5 c 128
 1760.16666667 913.833333333 1762 884 1762 846 c 1
 1768.66666667 831.333333333 1773 811.5 1775 786.5 c 128
 1777 761.5 1782 743.666666667 1790 733 c 128
 1798 722.333333333 1815.33333333 717.333333333 1842 718 c 0
 1850.66666667 718 1863 719 1879 721 c 128
 1895 723 1906.66666667 724 1914 724 c 2
 1998 724 l 1
 2033.33333333 726.666666667 2058.16666667 741.333333333 2072.5 768 c 128
 2086.83333333 794.666666667 2093.33333333 834.666666667 2092 888 c 2
 2092 942 l 2
EndSplineSet
EndChar

StartChar: A
Encoding: 65 65 36
Width: 2980
Flags: HW
LayerCount: 2
Fore
SplineSet
1440 1962 m 0
 1508.66666667 1978.66666667 1569.33333333 1991.66666667 1622 2001 c 128
 1674.66666667 2010.33333333 1727.33333333 2016 1780 2018 c 0
 1808.66666667 2019.33333333 1835.33333333 2020 1860 2020 c 0
 1880 2020 1898.66666667 2019.33333333 1916 2018 c 0
 1954 2016.66666667 2001.83333333 2010.16666667 2059.5 1998.5 c 128
 2117.16666667 1986.83333333 2168 1975.5 2212 1964.5 c 128
 2256 1953.5 2318.66666667 1936.66666667 2400 1914 c 0
 2422 1907.33333333 2442.5 1898.16666667 2461.5 1886.5 c 128
 2480.5 1874.83333333 2498.83333333 1859.5 2516.5 1840.5 c 128
 2534.16666667 1821.5 2548.5 1805.33333333 2559.5 1792 c 128
 2570.5 1778.66666667 2585.83333333 1758.5 2605.5 1731.5 c 128
 2625.16666667 1704.5 2639.33333333 1685.33333333 2648 1674 c 1
 2612 1958 2583 2153.83333333 2561 2261.5 c 128
 2539 2369.16666667 2501.33333333 2481.33333333 2448 2598 c 0
 2441.33333333 2612 2433.83333333 2625.16666667 2425.5 2637.5 c 128
 2417.16666667 2649.83333333 2405.16666667 2662.66666667 2389.5 2676 c 128
 2373.83333333 2689.33333333 2362.16666667 2699.33333333 2354.5 2706 c 128
 2346.83333333 2712.66666667 2330.5 2723.5 2305.5 2738.5 c 128
 2280.5 2753.5 2265 2762.66666667 2259 2766 c 128
 2253 2769.33333333 2234 2780 2202 2798 c 0
 2190 2804.66666667 2177 2812 2163 2820 c 128
 2149 2828 2139.16666667 2833.83333333 2133.5 2837.5 c 128
 2127.83333333 2841.16666667 2120 2845.33333333 2110 2850 c 128
 2100 2854.66666667 2094 2857.83333333 2092 2859.5 c 128
 2090 2861.16666667 2084.5 2863.33333333 2075.5 2866 c 128
 2066.5 2868.66666667 2061.33333333 2870.33333333 2060 2871 c 128
 2058.66666667 2871.66666667 2052.66666667 2872.83333333 2042 2874.5 c 128
 2031.33333333 2876.16666667 2024.33333333 2877 2021 2877 c 128
 2017.66666667 2877 2008.16666667 2877.83333333 1992.5 2879.5 c 128
 1976.83333333 2881.16666667 1965 2882.33333333 1957 2883 c 2
 984 2979 l 1
 961.333333333 2970.33333333 943 2960.83333333 929 2950.5 c 128
 915 2940.16666667 905.166666667 2930.5 899.5 2921.5 c 128
 893.833333333 2912.5 884.666666667 2901.5 872 2888.5 c 128
 859.333333333 2875.5 844 2863.33333333 826 2852 c 0
 816.666666667 2846 804 2838 788 2828 c 128
 772 2818 760.833333333 2811 754.5 2807 c 128
 748.166666667 2803 739 2796.83333333 727 2788.5 c 128
 715 2780.16666667 706.666666667 2773.5 702 2768.5 c 128
 697.333333333 2763.5 690.5 2756.5 681.5 2747.5 c 128
 672.5 2738.5 666 2729.66666667 662 2721 c 128
 658 2712.33333333 652.666666667 2701.66666667 646 2689 c 128
 639.333333333 2676.33333333 633.666666667 2662.66666667 629 2648 c 128
 624.333333333 2633.33333333 619.333333333 2617 614 2599 c 128
 608.666666667 2581 603 2560.33333333 597 2537 c 2
 295 1347 l 1
 372 1398 l 1
 384.666666667 1412 405.833333333 1436.5 435.5 1471.5 c 128
 465.166666667 1506.5 488 1533.16666667 504 1551.5 c 128
 520 1569.83333333 542.666666667 1593.83333333 572 1623.5 c 128
 601.333333333 1653.16666667 627.5 1677 650.5 1695 c 128
 673.5 1713 700.333333333 1731.5 731 1750.5 c 128
 761.666666667 1769.5 792.666666667 1784.66666667 824 1796 c 0
 888.666666667 1819.33333333 945.666666667 1838.5 995 1853.5 c 128
 1044.33333333 1868.5 1084.33333333 1879.5 1115 1886.5 c 128
 1145.66666667 1893.5 1192.16666667 1904 1254.5 1918 c 128
 1316.83333333 1932 1378.66666667 1946.66666667 1440 1962 c 0
2594 754 m 0
 2592 780 2597 804.833333333 2609 828.5 c 128
 2621 852.166666667 2637.33333333 876.833333333 2658 902.5 c 128
 2678.66666667 928.166666667 2692.66666667 948 2700 962 c 1
 2700 974 2694.16666667 991.833333333 2682.5 1015.5 c 128
 2670.83333333 1039.16666667 2664 1054 2662 1060 c 0
 2657.33333333 1071.33333333 2641.83333333 1130.33333333 2615.5 1237 c 128
 2589.16666667 1343.66666667 2575.33333333 1399.33333333 2574 1404 c 0
 2470 1531.33333333 2380 1606 2304 1628 c 0
 2120 1681.33333333 1984 1708 1896 1708 c 0
 1880 1708 1880 1708 1845 1708 c 128
 1810 1708 1810 1708 1801.5 1708 c 128
 1795.83333333 1708 1784.16666667 1707.83333333 1766.5 1707.5 c 128
 1748.83333333 1707.16666667 1737.16666667 1706.66666667 1731.5 1706 c 128
 1725.83333333 1705.33333333 1715.16666667 1704.16666667 1699.5 1702.5 c 128
 1683.83333333 1700.83333333 1671.16666667 1699 1661.5 1697 c 128
 1651.83333333 1695 1638 1692.5 1620 1689.5 c 128
 1602 1686.5 1584.16666667 1683 1566.5 1679 c 128
 1548.83333333 1675 1527.33333333 1670 1502 1664 c 0
 1322.66666667 1626 1175.33333333 1583.66666667 1060 1537 c 128
 944.666666667 1490.33333333 845.333333333 1429 762 1353 c 2
 327 957 l 1
 298 599 l 1
 360 440 l 1
 362.666666667 416 364 402 364 398 c 2
 364 356 l 1
 370 345.333333333 376.5 334.666666667 383.5 324 c 128
 390.5 313.333333333 397.833333333 303 405.5 293 c 128
 413.166666667 283 419.666666667 274.833333333 425 268.5 c 128
 430.333333333 262.166666667 437 254.5 445 245.5 c 128
 453 236.5 458 230.666666667 460 228 c 0
 490 218 512.5 201.666666667 527.5 179 c 128
 542.5 156.333333333 549 132 547 106 c 128
 545 80 538.166666667 54.8333333333 526.5 30.5 c 128
 514.833333333 6.16666666667 497 -14 473 -30 c 128
 449 -46 422.666666667 -54 394 -54 c 0
 355.333333333 -54 313.666666667 -35.5 269 1.5 c 128
 224.333333333 38.5 182.666666667 91.3333333333 144 160 c 0
 131.333333333 182.666666667 113.5 211.5 90.5 246.5 c 128
 67.5 281.5 50.3333333333 309.833333333 39 331.5 c 128
 27.6666666667 353.166666667 22 372 22 388 c 2
 11 1640 l 1
 284 2385 l 2
 293.333333333 2416.33333333 308.333333333 2481.5 329 2580.5 c 128
 349.666666667 2679.5 365.333333333 2743.33333333 376 2772 c 0
 420 2889.33333333 513.333333333 2986.66666667 656 3064 c 0
 670.666666667 3072 695 3089.66666667 729 3117 c 128
 763 3144.33333333 796.5 3167.66666667 829.5 3187 c 128
 862.5 3206.33333333 892.666666667 3216 920 3216 c 2
 1924 3216 l 2
 1924.66666667 3215.33333333 1932.16666667 3208.5 1946.5 3195.5 c 128
 1960.83333333 3182.5 1978.16666667 3170.16666667 1998.5 3158.5 c 128
 2018.83333333 3146.83333333 2040.66666667 3139.33333333 2064 3136 c 0
 2092.66666667 3131.33333333 2120.83333333 3124.83333333 2148.5 3116.5 c 128
 2176.16666667 3108.16666667 2204.83333333 3096.83333333 2234.5 3082.5 c 128
 2264.16666667 3068.16666667 2287.33333333 3056.66666667 2304 3048 c 128
 2320.66666667 3039.33333333 2345.5 3025.33333333 2378.5 3006 c 128
 2411.5 2986.66666667 2432 2974.66666667 2440 2970 c 0
 2584 2888.66666667 2679.33333333 2792 2726 2680 c 0
 2772 2570.66666667 2798 2501.33333333 2804 2472 c 1
 2804 2224 l 1
 2846 2224 l 1
 2978 1240 l 1
 2978 1180 2967.5 1061.83333333 2946.5 885.5 c 128
 2925.5 709.166666667 2914.33333333 614.666666667 2913 602 c 1
 2556 -78 l 2
 2539.33333333 -105.333333333 2516 -125.333333333 2486 -138 c 128
 2456 -150.666666667 2425 -155.166666667 2393 -151.5 c 128
 2361 -147.833333333 2330.16666667 -139.333333333 2300.5 -126 c 128
 2270.83333333 -112.666666667 2246.5 -93 2227.5 -67 c 128
 2208.5 -41 2199 -13 2199 17 c 1
 2602 601 l 1
 2604 615 2603.16666667 642 2599.5 682 c 128
 2595.83333333 722 2594 746 2594 754 c 0
EndSplineSet
EndChar

StartChar: B
Encoding: 66 66 37
Width: 3080
Flags: HW
LayerCount: 2
Fore
SplineSet
308 1246 m 2
 308 1692 l 2
 309.333333333 1740 310.333333333 1788.5 311 1837.5 c 128
 311.666666667 1886.5 311.666666667 1922.83333333 311 1946.5 c 128
 310.333333333 1970.16666667 310.833333333 1998.16666667 312.5 2030.5 c 128
 314.166666667 2062.83333333 314.833333333 2083.83333333 314.5 2093.5 c 128
 314.166666667 2103.16666667 316.166666667 2121 320.5 2147 c 128
 324.833333333 2173 327.5 2189.16666667 328.5 2195.5 c 128
 329.5 2201.83333333 334.333333333 2220.16666667 343 2250.5 c 128
 351.666666667 2280.83333333 358.333333333 2302.66666667 363 2316 c 128
 367.666666667 2329.33333333 377.5 2358.5 392.5 2403.5 c 128
 407.5 2448.5 420 2486.66666667 430 2518 c 0
 490 2702 540.666666667 2834 582 2914 c 0
 602.666666667 2953.33333333 617.5 2981.5 626.5 2998.5 c 128
 635.5 3015.5 649.166666667 3033.5 667.5 3052.5 c 128
 685.833333333 3071.5 701.666666667 3085.5 715 3094.5 c 128
 728.333333333 3103.5 755.333333333 3121.33333333 796 3148 c 0
 857.333333333 3188 898 3211.83333333 918 3219.5 c 128
 938 3227.16666667 985.333333333 3236 1060 3246 c 0
 1110 3252.66666667 1188.66666667 3258 1296 3262 c 0
 1346 3263.33333333 1396.33333333 3264 1447 3264 c 0
 1507 3264 1568 3262.66666667 1630 3260 c 0
 1744 3256 1820 3246.66666667 1858 3232 c 1
 2010.66666667 3206 2206 3100.66666667 2444 2916 c 0
 2465.33333333 2899.33333333 2490.66666667 2880.33333333 2520 2859 c 128
 2549.33333333 2837.66666667 2570 2822.5 2582 2813.5 c 128
 2594 2804.5 2608.33333333 2792 2625 2776 c 128
 2641.66666667 2760 2654 2744.83333333 2662 2730.5 c 128
 2670 2716.16666667 2678.16666667 2698 2686.5 2676 c 128
 2694.83333333 2654 2702.66666667 2628 2710 2598 c 0
 2717.33333333 2567.33333333 2722 2447.33333333 2724 2238 c 2
 2724 2060 l 2
 2724 1986.66666667 2720.83333333 1939.5 2714.5 1918.5 c 128
 2708.16666667 1897.5 2687.33333333 1876.66666667 2652 1856 c 0
 2612.66666667 1833.33333333 2570.16666667 1807.66666667 2524.5 1779 c 128
 2478.83333333 1750.33333333 2444.66666667 1728.83333333 2422 1714.5 c 128
 2399.33333333 1700.16666667 2371.66666667 1684.66666667 2339 1668 c 128
 2306.33333333 1651.33333333 2275.83333333 1638.83333333 2247.5 1630.5 c 128
 2219.16666667 1622.16666667 2184.5 1614.5 2143.5 1607.5 c 128
 2102.5 1600.5 2055.33333333 1595.33333333 2002 1592 c 0
 1896.66666667 1585.33333333 1766.16666667 1572.5 1610.5 1553.5 c 128
 1454.83333333 1534.5 1344 1522 1278 1516 c 1
 1313.33333333 1469.33333333 1340.5 1438.66666667 1359.5 1424 c 128
 1378.5 1409.33333333 1416.66666667 1388.66666667 1474 1362 c 0
 1488.66666667 1355.33333333 1500 1350 1508 1346 c 0
 1583.33333333 1309.33333333 1674.66666667 1290 1782 1288 c 0
 1874.66666667 1285.33333333 1956.33333333 1278.16666667 2027 1266.5 c 128
 2097.66666667 1254.83333333 2184.66666667 1235 2288 1207 c 128
 2391.33333333 1179 2461.33333333 1160.66666667 2498 1152 c 0
 2546 1140.66666667 2616.66666667 1103.33333333 2710 1040 c 128
 2803.33333333 976.666666667 2860 926.666666667 2880 890 c 1
 2880 240 l 1
 2876 231.333333333 2868.33333333 221.833333333 2857 211.5 c 128
 2845.66666667 201.166666667 2830.5 188.833333333 2811.5 174.5 c 128
 2792.5 160.166666667 2778.66666667 149.333333333 2770 142 c 0
 2655.33333333 49.3333333333 2546 0 2442 -6 c 0
 2384 -10 2208 -12 1914 -12 c 1
 1908 -17.3333333333 1901 -24 1893 -32 c 128
 1885 -40 1879.83333333 -45.3333333333 1877.5 -48 c 128
 1875.16666667 -50.6666666667 1871.33333333 -53.1666666667 1866 -55.5 c 128
 1860.66666667 -57.8333333333 1857.16666667 -58.6666666667 1855.5 -58 c 128
 1853.83333333 -57.3333333333 1850.5 -55 1845.5 -51 c 128
 1840.5 -47 1836.16666667 -42.1666666667 1832.5 -36.5 c 128
 1828.83333333 -30.8333333333 1823.33333333 -22.6666666667 1816 -12 c 1
 1446.66666667 -12 1202.66666667 -8.66666666667 1084 -2 c 0
 1056.66666667 -0.666666666667 1035.66666667 3.5 1021 10.5 c 128
 1006.33333333 17.5 998.833333333 25.6666666667 998.5 35 c 128
 998.166666667 44.3333333333 1002.33333333 54 1011 64 c 128
 1019.66666667 74 1032 83.3333333333 1048 92 c 0
 1070 104 1141.33333333 153.333333333 1262 240 c 1
 1336 240 l 1
 1421.33333333 229.333333333 1640.66666667 224 1994 224 c 2
 2560 224 l 1
 2560 424 l 2
 2558.66666667 464.666666667 2558 500 2558 530 c 0
 2558 552 2558 552 2558 570 c 0
 2559.33333333 607.333333333 2559.16666667 637.833333333 2557.5 661.5 c 128
 2555.83333333 685.166666667 2550.5 705.833333333 2541.5 723.5 c 128
 2532.5 741.166666667 2516.66666667 761.333333333 2494 784 c 0
 2412 866 2318 919.333333333 2212 944 c 0
 2144 961.333333333 2076.33333333 980.5 2009 1001.5 c 128
 1941.66666667 1022.5 1895.16666667 1036.16666667 1869.5 1042.5 c 128
 1843.83333333 1048.83333333 1804.5 1054.33333333 1751.5 1059 c 128
 1698.5 1063.66666667 1626.66666667 1066 1536 1066 c 0
 1462.66666667 1066 1379 1084.16666667 1285 1120.5 c 128
 1191 1156.83333333 1112 1200.66666667 1048 1252 c 0
 991.333333333 1297.33333333 963 1338.33333333 963 1375 c 0
 963 1379 963.333333333 1383.33333333 964 1388 c 0
 964 1430 979.333333333 1465.33333333 1010 1494 c 0
 1041.33333333 1521.33333333 1093.5 1556.33333333 1166.5 1599 c 128
 1239.5 1641.66666667 1301.33333333 1674.66666667 1352 1698 c 0
 1382 1711.33333333 1420.16666667 1722.5 1466.5 1731.5 c 128
 1512.83333333 1740.5 1567.16666667 1749 1629.5 1757 c 128
 1691.83333333 1765 1735.33333333 1771.33333333 1760 1776 c 0
 1820 1786.66666667 1922.83333333 1796.66666667 2068.5 1806 c 128
 2214.16666667 1815.33333333 2322 1826.66666667 2392 1840 c 1
 2396.66666667 1885.33333333 2399.33333333 1990 2400 2154 c 0
 2400 2164 2400 2164 2400 2174 c 0
 2400 2326.66666667 2396 2422.66666667 2388 2462 c 0
 2384.66666667 2474 2381 2485.16666667 2377 2495.5 c 128
 2373 2505.83333333 2369.66666667 2515 2367 2523 c 128
 2364.33333333 2531 2360 2539.33333333 2354 2548 c 128
 2348 2556.66666667 2343.66666667 2563.5 2341 2568.5 c 128
 2338.33333333 2573.5 2332.5 2580.16666667 2323.5 2588.5 c 128
 2314.5 2596.83333333 2308.5 2602.66666667 2305.5 2606 c 128
 2302.5 2609.33333333 2294.83333333 2615.66666667 2282.5 2625 c 128
 2270.16666667 2634.33333333 2262 2640.66666667 2258 2644 c 128
 2254 2647.33333333 2243.66666667 2655 2227 2667 c 128
 2210.33333333 2679 2198.66666667 2687.33333333 2192 2692 c 0
 2148 2724 2112.66666667 2749.5 2086 2768.5 c 128
 2059.33333333 2787.5 2024.66666667 2810.5 1982 2837.5 c 128
 1939.33333333 2864.5 1901.83333333 2885.83333333 1869.5 2901.5 c 128
 1837.16666667 2917.16666667 1798 2934 1752 2952 c 128
 1706 2970 1661.33333333 2983.83333333 1618 2993.5 c 128
 1574.66666667 3003.16666667 1525.83333333 3011.33333333 1471.5 3018 c 128
 1417.16666667 3024.66666667 1360.66666667 3028 1302 3028 c 0
 1127.33333333 3028 998 3023.33333333 914 3014 c 1
 897.333333333 2997.33333333 846 2873.33333333 760 2642 c 0
 678.666666667 2423.33333333 638 2294 638 2254 c 0
 638 2251 638 2251 638 2248 c 0
 632.666666667 2070 629.666666667 1892 629 1714 c 0
 629 1638 629 1638 629 1570 c 0
 629 1455.33333333 629.333333333 1356 630 1272 c 0
 632 1154 634.833333333 1006.83333333 638.5 830.5 c 128
 642.166666667 654.166666667 644.666666667 512.666666667 646 406 c 1
 465.333333333 312.666666667 370 266 360 266 c 0
 352 266.666666667 344.666666667 269.833333333 338 275.5 c 128
 331.333333333 281.166666667 328 288 328 296 c 2
 328 610 l 2
 328 690 324.666666667 790.333333333 318 911 c 128
 311.333333333 1031.66666667 308 1143.33333333 308 1246 c 2
EndSplineSet
EndChar

StartChar: C
Encoding: 67 67 38
Width: 1842
Flags: HW
LayerCount: 2
Fore
SplineSet
812 2968 m 1
 772.666666667 2929.33333333 737.833333333 2885.83333333 707.5 2837.5 c 128
 677.166666667 2789.16666667 652 2743.83333333 632 2701.5 c 128
 612 2659.16666667 595 2602.83333333 581 2532.5 c 128
 567 2462.16666667 556.333333333 2405.66666667 549 2363 c 128
 541.666666667 2320.33333333 535.833333333 2252.83333333 531.5 2160.5 c 128
 527.166666667 2068.16666667 524.666666667 2000.5 524 1957.5 c 128
 523.333333333 1914.5 522.333333333 1837.66666667 521 1727 c 0
 520.333333333 1689.66666667 520 1661.33333333 520 1642 c 2
 520 1356 l 2
 520 980 524.666666667 780 534 756 c 0
 544 730.666666667 570 681.666666667 612 609 c 128
 654 536.333333333 682.666666667 490.666666667 698 472 c 0
 733.333333333 427.333333333 785.833333333 387.166666667 855.5 351.5 c 128
 925.166666667 315.833333333 994.666666667 298 1064 298 c 2
 1780 298 l 1
 1780 281.333333333 1756.66666667 253.5 1710 214.5 c 128
 1663.33333333 175.5 1629.33333333 150 1608 138 c 0
 1590 128 1554 106 1500 72 c 1
 1184 72 l 2
 1134 72 1094.5 72.1666666667 1065.5 72.5 c 128
 1036.5 72.8333333333 1001.16666667 73.5 959.5 74.5 c 128
 917.833333333 75.5 884.833333333 77 860.5 79 c 128
 836.166666667 81 807.166666667 84 773.5 88 c 128
 739.833333333 92 712.666666667 97 692 103 c 128
 671.333333333 109 647.833333333 116.166666667 621.5 124.5 c 128
 595.166666667 132.833333333 572.833333333 142.833333333 554.5 154.5 c 128
 536.166666667 166.166666667 516.833333333 179.5 496.5 194.5 c 128
 476.166666667 209.5 457.666666667 226.333333333 441 245 c 128
 424.333333333 263.666666667 408 284.666666667 392 308 c 0
 325.333333333 406 272 508 232 614 c 1
 232 2118 l 2
 232.666666667 2168 235 2212.33333333 239 2251 c 128
 243 2289.66666667 246.333333333 2317 249 2333 c 128
 251.666666667 2349 258.166666667 2377.83333333 268.5 2419.5 c 128
 278.833333333 2461.16666667 286 2490.66666667 290 2508 c 0
 320.666666667 2643.33333333 376.833333333 2760.33333333 458.5 2859 c 128
 540.166666667 2957.66666667 643.333333333 3037.33333333 768 3098 c 0
 788.666666667 3108 811.333333333 3119.16666667 836 3131.5 c 128
 860.666666667 3143.83333333 876.166666667 3151.83333333 882.5 3155.5 c 128
 888.833333333 3159.16666667 899.833333333 3163.83333333 915.5 3169.5 c 128
 931.166666667 3175.16666667 940.666666667 3178 944 3178 c 128
 947.333333333 3178 957.666666667 3178.66666667 975 3180 c 128
 992.333333333 3181.33333333 1006.83333333 3181.5 1018.5 3180.5 c 128
 1030.16666667 3179.5 1051.33333333 3178.83333333 1082 3178.5 c 128
 1112.66666667 3178.16666667 1143.33333333 3178 1174 3178 c 0
 1215.33333333 3178 1251.83333333 3176.33333333 1283.5 3173 c 128
 1315.16666667 3169.66666667 1343.16666667 3165.5 1367.5 3160.5 c 128
 1391.83333333 3155.5 1414.16666667 3147 1434.5 3135 c 128
 1454.83333333 3123 1472 3111.5 1486 3100.5 c 128
 1500 3089.5 1514.66666667 3073.33333333 1530 3052 c 128
 1545.33333333 3030.66666667 1558.33333333 3011.16666667 1569 2993.5 c 128
 1579.66666667 2975.83333333 1593.33333333 2951.33333333 1610 2920 c 0
 1636 2868.66666667 1653 2833.66666667 1661 2815 c 128
 1669 2796.33333333 1673.33333333 2778.66666667 1674 2762 c 0
 1674 2756 1630.83333333 2729.83333333 1544.5 2683.5 c 128
 1458.16666667 2637.16666667 1411.33333333 2614 1404 2614 c 0
 1387.33333333 2614 1370 2634.66666667 1352 2676 c 0
 1337.33333333 2709.33333333 1314.66666667 2752.16666667 1284 2804.5 c 128
 1253.33333333 2856.83333333 1229.33333333 2890.66666667 1212 2906 c 0
 1164 2947.33333333 1063.33333333 2968 910 2968 c 2
 812 2968 l 1
EndSplineSet
EndChar

StartChar: D
Encoding: 68 68 39
Width: 3136
Flags: HW
LayerCount: 2
Fore
SplineSet
388 1090 m 1
 411.333333333 998 428 899.833333333 438 795.5 c 128
 448 691.166666667 455.333333333 565 460 417 c 128
 464.666666667 269 470 155.333333333 476 76 c 1
 324.666666667 -14.6666666667 230.666666667 -60 194 -60 c 0
 191.333333333 -60 186.333333333 -57.6666666667 179 -53 c 128
 171.666666667 -48.3333333333 168 -44.6666666667 168 -42 c 0
 153.333333333 81.3333333333 146 222.333333333 146 381 c 0
 146 392 146 392 146 402 c 0
 146 562 122.666666667 748.666666667 76 962 c 1
 76 2564 l 1
 84.6666666667 2599.33333333 98.5 2633.5 117.5 2666.5 c 128
 136.5 2699.5 156.5 2727.66666667 177.5 2751 c 128
 198.5 2774.33333333 225.166666667 2799 257.5 2825 c 128
 289.833333333 2851 317.833333333 2871.66666667 341.5 2887 c 128
 365.166666667 2902.33333333 395 2921.33333333 431 2944 c 0
 443.666666667 2952 453.333333333 2958 460 2962 c 0
 601.333333333 3051.33333333 797.333333333 3096 1048 3096 c 2
 1534 3096 l 1
 1650.66666667 3071.33333333 1797.16666667 3031.33333333 1973.5 2976 c 128
 2149.83333333 2920.66666667 2283.33333333 2872.66666667 2374 2832 c 0
 2440.66666667 2801.33333333 2528 2746.83333333 2636 2668.5 c 128
 2744 2590.16666667 2810 2528 2834 2482 c 0
 2855.33333333 2443.33333333 2874.16666667 2404.66666667 2890.5 2366 c 128
 2906.83333333 2327.33333333 2921.83333333 2281.5 2935.5 2228.5 c 128
 2949.16666667 2175.5 2959 2135.66666667 2965 2109 c 128
 2971 2082.33333333 2980.66666667 2032.5 2994 1959.5 c 128
 3007.33333333 1886.5 3016 1840 3020 1820 c 0
 3029.33333333 1772 3036 1720.66666667 3040 1666 c 0
 3043.33333333 1616 3045 1571.33333333 3045 1532 c 0
 3045 1528.66666667 3044.66666667 1525.33333333 3044 1522 c 0
 3044 1480 3043.33333333 1422 3042 1348 c 128
 3040.66666667 1274 3040 1211.33333333 3040 1160 c 1
 3010 1074.66666667 2983.16666667 992.5 2959.5 913.5 c 128
 2935.83333333 834.5 2914.83333333 768.833333333 2896.5 716.5 c 128
 2878.16666667 664.166666667 2851.33333333 598 2816 518 c 0
 2742.66666667 353.333333333 2631.33333333 230 2482 148 c 0
 2446 128.666666667 2411.5 109 2378.5 89 c 128
 2345.5 69 2320.66666667 54.3333333333 2304 45 c 128
 2287.33333333 35.6666666667 2271.33333333 26.1666666667 2256 16.5 c 128
 2240.66666667 6.83333333333 2226 0.666666666667 2212 -2 c 128
 2198 -4.66666666667 2184.16666667 -7.5 2170.5 -10.5 c 128
 2156.83333333 -13.5 2136.16666667 -14.5 2108.5 -13.5 c 128
 2080.83333333 -12.5 2053 -11.8333333333 2025 -11.5 c 128
 1997 -11.1666666667 1954.5 -10.5 1897.5 -9.5 c 128
 1840.5 -8.5 1782.66666667 -8 1724 -8 c 0
 1368 -8 1127.33333333 -7.33333333333 1002 -6 c 1
 1316 216 l 1
 2338 216 l 1
 2410.66666667 288.666666667 2466.33333333 364.666666667 2505 444 c 128
 2543.66666667 523.333333333 2586.66666667 637.333333333 2634 786 c 0
 2658 861.333333333 2689.33333333 945.333333333 2728 1038 c 1
 2728 1444 l 2
 2728 1501.33333333 2718 1584.33333333 2698 1693 c 128
 2678 1801.66666667 2668 1880 2668 1928 c 0
 2668 1972.66666667 2647.16666667 2046.83333333 2605.5 2150.5 c 128
 2563.83333333 2254.16666667 2531.33333333 2320 2508 2348 c 0
 2486.66666667 2371.33333333 2430 2417.33333333 2338 2486 c 0
 2294.66666667 2518.66666667 2251 2547.5 2207 2572.5 c 128
 2163 2597.5 2123.5 2618.33333333 2088.5 2635 c 128
 2053.5 2651.66666667 2006.66666667 2669.33333333 1948 2688 c 128
 1889.33333333 2706.66666667 1841 2721.16666667 1803 2731.5 c 128
 1765 2741.83333333 1703.33333333 2758 1618 2780 c 0
 1438 2826.66666667 1317.66666667 2853.66666667 1257 2861 c 128
 1196.33333333 2868.33333333 1066 2872 866 2872 c 0
 731.333333333 2872 640.333333333 2868 593 2860 c 128
 545.666666667 2852 504.666666667 2829.33333333 470 2792 c 0
 460.666666667 2781.33333333 451.333333333 2766.5 442 2747.5 c 128
 432.666666667 2728.5 425.833333333 2713.16666667 421.5 2701.5 c 128
 417.166666667 2689.83333333 410.666666667 2670.33333333 402 2643 c 128
 393.333333333 2615.66666667 388.666666667 2600.66666667 388 2598 c 2
 388 1090 l 1
EndSplineSet
EndChar

StartChar: E
Encoding: 69 69 40
Width: 2096
Flags: HW
LayerCount: 2
Fore
SplineSet
664 1460 m 0
 669 1460 669 1460 675 1460 c 0
 745 1460 818.333333333 1454 895 1442 c 0
 975.666666667 1428.66666667 1046.33333333 1413.83333333 1107 1397.5 c 128
 1167.66666667 1381.16666667 1237.33333333 1365 1316 1349 c 128
 1394.66666667 1333 1466.66666667 1323.33333333 1532 1320 c 1
 1646 1320 l 1
 1556 1380 l 1
 1498.66666667 1422.66666667 1442.66666667 1453.33333333 1388 1472 c 128
 1333.33333333 1490.66666667 1253.33333333 1511.33333333 1148 1534 c 0
 1064 1551.33333333 988.333333333 1565.5 921 1576.5 c 128
 853.666666667 1587.5 778.666666667 1600.66666667 696 1616 c 0
 629.333333333 1628.66666667 570 1645.5 518 1666.5 c 128
 466 1687.5 419.833333333 1713.83333333 379.5 1745.5 c 128
 339.166666667 1777.16666667 304.166666667 1810.33333333 274.5 1845 c 128
 244.833333333 1879.66666667 214 1922 182 1972 c 1
 182 2190 l 2
 182 2405.33333333 207.333333333 2576.5 258 2703.5 c 128
 308.666666667 2830.5 400 2936 532 3020 c 0
 598.666666667 3062.66666667 654 3089.66666667 698 3101 c 128
 742 3112.33333333 814.666666667 3118 916 3118 c 2
 980 3118 l 2
 1223.33333333 3118 1362 3117.33333333 1396 3116 c 128
 1430 3114.66666667 1531.33333333 3106.66666667 1700 3092 c 0
 1716 3090.66666667 1733.66666667 3089.33333333 1753 3088 c 128
 1772.33333333 3086.66666667 1787.5 3085.66666667 1798.5 3085 c 128
 1809.5 3084.33333333 1821.5 3083.33333333 1834.5 3082 c 128
 1847.5 3080.66666667 1857.33333333 3079.16666667 1864 3077.5 c 128
 1870.66666667 3075.83333333 1877.16666667 3073.33333333 1883.5 3070 c 128
 1889.83333333 3066.66666667 1894.16666667 3062.66666667 1896.5 3058 c 128
 1898.83333333 3053.33333333 1900 3047.33333333 1900 3040 c 0
 1900 3025.33333333 1829.33333333 2973.33333333 1688 2884 c 1
 1438.66666667 2907.33333333 1279 2920.5 1209 2923.5 c 128
 1139 2926.5 951.333333333 2928 646 2928 c 1
 500.666666667 2761.33333333 428 2549.33333333 428 2292 c 2
 428 2226 l 2
 430 2154 434.666666667 2112 442 2100 c 0
 512 1981.33333333 591.333333333 1902 680 1862 c 0
 726.666666667 1840 810.333333333 1815 931 1787 c 128
 1051.66666667 1759 1146 1743.33333333 1214 1740 c 0
 1332.66666667 1731.33333333 1455 1703.33333333 1581 1656 c 128
 1707 1608.66666667 1798 1554.66666667 1854 1494 c 1
 1876.66666667 1465.33333333 1888 1429.33333333 1888 1386 c 0
 1888 1360.66666667 1886.5 1339.83333333 1883.5 1323.5 c 128
 1880.5 1307.16666667 1873.5 1291.83333333 1862.5 1277.5 c 128
 1851.5 1263.16666667 1842 1252.66666667 1834 1246 c 128
 1826 1239.33333333 1810.66666667 1227.33333333 1788 1210 c 0
 1710 1152 1581.33333333 1122 1402 1120 c 2
 1350 1120 l 1
 1294 1124 1212.83333333 1138.16666667 1106.5 1162.5 c 128
 1000.16666667 1186.83333333 892 1209.66666667 782 1231 c 0
 676 1251.66666667 585 1262 509 1262 c 0
 506 1262 506 1262 502 1262 c 0
 380 1078.66666667 319.333333333 932.666666667 320 824 c 1
 325.333333333 807.333333333 331.833333333 793.333333333 339.5 782 c 128
 347.166666667 770.666666667 354.333333333 762 361 756 c 128
 367.666666667 750 382 738.666666667 404 722 c 128
 426 705.333333333 445.333333333 690 462 676 c 0
 538.666666667 616 605.333333333 556.666666667 662 498 c 0
 695.333333333 462.666666667 720.333333333 436.333333333 737 419 c 128
 753.666666667 401.666666667 775.166666667 380.666666667 801.5 356 c 128
 827.833333333 331.333333333 850.166666667 313.333333333 868.5 302 c 128
 886.833333333 290.666666667 908.666666667 278.833333333 934 266.5 c 128
 959.333333333 254.166666667 985 245.666666667 1011 241 c 128
 1037 236.333333333 1065.33333333 234 1096 234 c 2
 2032 234 l 1
 1764 46 l 1
 1370 46 l 2
 1114 46 968 48 932 52 c 0
 760.666666667 68 598 156 444 316 c 0
 382.666666667 380 300 458 196 550 c 0
 178.666666667 565.333333333 159.833333333 580.833333333 139.5 596.5 c 128
 119.166666667 612.166666667 104.666666667 623.333333333 96 630 c 128
 87.3333333333 636.666666667 78.6666666667 645.5 70 656.5 c 128
 61.3333333333 667.5 55.8333333333 679.833333333 53.5 693.5 c 128
 51.1666666667 707.166666667 50 725.333333333 50 748 c 0
 50 790 55.5 832.333333333 66.5 875 c 128
 77.5 917.666666667 95.3333333333 963.166666667 120 1011.5 c 128
 144.666666667 1059.83333333 163.833333333 1095.5 177.5 1118.5 c 128
 191.166666667 1141.5 213.333333333 1177.33333333 244 1226 c 0
 282.666666667 1287.33333333 344.5 1341.66666667 429.5 1389 c 128
 514.5 1436.33333333 592.666666667 1460 664 1460 c 0
EndSplineSet
EndChar

StartChar: F
Encoding: 70 70 41
Width: 1974
Flags: HW
LayerCount: 2
Fore
SplineSet
406 1524 m 1
 372.666666667 1474 352.333333333 1427.83333333 345 1385.5 c 128
 337.666666667 1343.16666667 333 1267 331 1157 c 0
 330.333333333 1133 330 1114.66666667 330 1102 c 2
 330 902 l 1
 337.333333333 876 353.666666667 809.666666667 379 703 c 128
 404.333333333 596.333333333 427.666666667 511.166666667 449 447.5 c 128
 470.333333333 383.833333333 496.666666667 326 528 274 c 0
 534 264 540.333333333 253.833333333 547 243.5 c 128
 553.666666667 233.166666667 558.666666667 225.166666667 562 219.5 c 128
 565.333333333 213.833333333 568.666666667 208.333333333 572 203 c 128
 575.333333333 197.666666667 577.5 193.666666667 578.5 191 c 128
 579.5 188.333333333 580 186 580 184 c 0
 580 176.666666667 551.166666667 157.666666667 493.5 127 c 128
 435.833333333 96.3333333333 399.333333333 78 384 72 c 1
 364.666666667 78 343.166666667 100.333333333 319.5 139 c 128
 295.833333333 177.666666667 275.833333333 217 259.5 257 c 128
 243.166666667 297 231.333333333 330.666666667 224 358 c 0
 213.333333333 397.333333333 201 441.666666667 187 491 c 128
 173 540.333333333 159.833333333 588.666666667 147.5 636 c 128
 135.166666667 683.333333333 120.666666667 742.666666667 104 814 c 1
 104 1036 l 2
 104 1043 104 1043 104 1058 c 0
 104 1109.33333333 104.166666667 1146.33333333 104.5 1169 c 128
 104.833333333 1191.66666667 105.666666667 1220.16666667 107 1254.5 c 128
 108.333333333 1288.83333333 110.833333333 1313.83333333 114.5 1329.5 c 128
 118.166666667 1345.16666667 123.166666667 1364.33333333 129.5 1387 c 128
 135.833333333 1409.66666667 144.166666667 1428.33333333 154.5 1443 c 128
 164.833333333 1457.66666667 177 1473.66666667 191 1491 c 128
 205 1508.33333333 222 1526.66666667 242 1546 c 0
 276.666666667 1580.66666667 321.666666667 1614.33333333 377 1647 c 128
 432.333333333 1679.66666667 480 1696 520 1696 c 2
 1046 1696 l 1
 461 1846 l 1
 442 1846 442 1846 409 1846 c 128
 376 1846 376 1846 360 1846 c 128
 349.333333333 1846 334.833333333 1846.33333333 316.5 1847 c 128
 298.166666667 1847.66666667 284.333333333 1848.5 275 1849.5 c 128
 265.666666667 1850.5 253.833333333 1852.16666667 239.5 1854.5 c 128
 225.166666667 1856.83333333 214 1859.83333333 206 1863.5 c 128
 198 1867.16666667 189 1871.5 179 1876.5 c 128
 169 1881.5 161 1887.5 155 1894.5 c 128
 149 1901.5 143 1909.66666667 137 1919 c 128
 131 1928.33333333 126 1938.66666667 122 1950 c 1
 122 2522 l 2
 124 2550.66666667 128.333333333 2576.33333333 135 2599 c 128
 141.666666667 2621.66666667 151 2647.5 163 2676.5 c 128
 175 2705.5 184.666666667 2732.66666667 192 2758 c 0
 215.333333333 2848 267 2930.83333333 347 3006.5 c 128
 427 3082.16666667 513.333333333 3136.66666667 606 3170 c 0
 624.666666667 3176.66666667 860.666666667 3180 1314 3180 c 0
 1560.66666667 3180 1714 3179.33333333 1774 3178 c 2
 1834 3178 l 2
 1852.66666667 3178 1862 3170.66666667 1862 3156 c 1
 1852.66666667 3136.66666667 1840 3120.33333333 1824 3107 c 128
 1808 3093.66666667 1786.33333333 3078.5 1759 3061.5 c 128
 1731.66666667 3044.5 1709.33333333 3029.33333333 1692 3016 c 1
 544 3016 l 1
 485.333333333 2957.33333333 446 2895.33333333 426 2830 c 0
 419.333333333 2808 410.333333333 2780.33333333 399 2747 c 128
 387.666666667 2713.66666667 380 2689.66666667 376 2675 c 128
 372 2660.33333333 367.5 2639.16666667 362.5 2611.5 c 128
 357.5 2583.83333333 354.333333333 2553.66666667 353 2521 c 128
 351.666666667 2488.33333333 351.333333333 2448 352 2400 c 2
 352 2022 l 1
 410 2007.33333333 488.5 1992.66666667 587.5 1978 c 128
 686.5 1963.33333333 772.333333333 1950.83333333 845 1940.5 c 128
 917.666666667 1930.16666667 991.666666667 1912.33333333 1067 1887 c 128
 1142.33333333 1861.66666667 1199.33333333 1830 1238 1792 c 0
 1252.66666667 1777.33333333 1269.5 1763 1288.5 1749 c 128
 1307.5 1735 1322.16666667 1722.66666667 1332.5 1712 c 128
 1342.83333333 1701.33333333 1351.33333333 1687.33333333 1358 1670 c 1
 1358 1660.66666667 1356.66666667 1652 1354 1644 c 1
 1318 1608 1266 1575.33333333 1198 1546 c 0
 1162.66666667 1531.33333333 898.666666667 1524 406 1524 c 1
EndSplineSet
EndChar

StartChar: G
Encoding: 71 71 42
Width: 2980
Flags: HW
LayerCount: 2
Fore
SplineSet
2464 262 m 1
 2569.33333333 378 2630.66666667 530.666666667 2648 720 c 1
 2628.66666667 876.666666667 2574 1018 2484 1144 c 1
 2432.66666667 1182.66666667 2351.33333333 1222.66666667 2240 1264 c 1
 2176 1309.33333333 2118.33333333 1345.83333333 2067 1373.5 c 128
 2015.66666667 1401.16666667 1953.66666667 1424.5 1881 1443.5 c 128
 1808.33333333 1462.5 1730 1472 1646 1472 c 2
 1444 1472 l 1
 1431.33333333 1452.66666667 1420.66666667 1430.66666667 1412 1406 c 1
 1367.33333333 1387.33333333 1325.33333333 1369.33333333 1286 1352 c 128
 1246.66666667 1334.66666667 1219.5 1322.83333333 1204.5 1316.5 c 128
 1189.5 1310.16666667 1176.66666667 1305.33333333 1166 1302 c 1
 1153.33333333 1302 1144 1304.66666667 1138 1310 c 128
 1132 1315.33333333 1129.33333333 1323.33333333 1130 1334 c 0
 1130 1341.33333333 1159.33333333 1402.66666667 1218 1518 c 1
 1284.66666667 1566 1348 1606.66666667 1408 1640 c 1
 1468 1640 l 2
 1481.33333333 1640.66666667 1520.33333333 1646.16666667 1585 1656.5 c 128
 1649.66666667 1666.83333333 1706.66666667 1672 1756 1672 c 0
 1802.66666667 1672 1847.5 1670.33333333 1890.5 1667 c 128
 1933.5 1663.66666667 1969.16666667 1660.16666667 1997.5 1656.5 c 128
 2025.83333333 1652.83333333 2060.5 1645.66666667 2101.5 1635 c 128
 2142.5 1624.33333333 2171.83333333 1616.33333333 2189.5 1611 c 128
 2207.16666667 1605.66666667 2240 1595.16666667 2288 1579.5 c 128
 2336 1563.83333333 2368.66666667 1553.33333333 2386 1548 c 0
 2568 1490.66666667 2704.66666667 1374 2796 1198 c 0
 2873.33333333 1049.33333333 2912 922 2912 816 c 0
 2912 698 2884.16666667 582.5 2828.5 469.5 c 128
 2772.83333333 356.5 2699 264.333333333 2607 193 c 128
 2515 121.666666667 2419.33333333 86 2320 86 c 2
 1900 86 l 2
 1838.66666667 86 1768 85.8333333333 1688 85.5 c 128
 1608 85.1666666667 1563.33333333 84.8333333333 1554 84.5 c 128
 1544.66666667 84.1666666667 1513.83333333 85.5 1461.5 88.5 c 128
 1409.16666667 91.5 1370.16666667 94.5 1344.5 97.5 c 128
 1318.83333333 100.5 1259.33333333 107.333333333 1166 118 c 0
 1110.66666667 124 1061.5 131.166666667 1018.5 139.5 c 128
 975.5 147.833333333 935 159.333333333 897 174 c 128
 859 188.666666667 826.833333333 202.666666667 800.5 216 c 128
 774.166666667 229.333333333 743.833333333 249.5 709.5 276.5 c 128
 675.166666667 303.5 646.166666667 327.5 622.5 348.5 c 128
 598.833333333 369.5 565.333333333 400.666666667 522 442 c 0
 466.666666667 493.333333333 415.5 552.333333333 368.5 619 c 128
 321.5 685.666666667 279.166666667 759.166666667 241.5 839.5 c 128
 203.833333333 919.833333333 171.166666667 997.5 143.5 1072.5 c 128
 115.833333333 1147.5 86.6666666667 1234 56 1332 c 1
 56 2258 l 1
 100.666666667 2391.33333333 182 2524.66666667 300 2658 c 0
 406 2775.33333333 492.5 2858.16666667 559.5 2906.5 c 128
 626.5 2954.83333333 738.666666667 3014 896 3084 c 0
 930 3099.33333333 970.333333333 3118 1017 3140 c 128
 1063.66666667 3162 1097.83333333 3178 1119.5 3188 c 128
 1141.16666667 3198 1169.5 3209.5 1204.5 3222.5 c 128
 1239.5 3235.5 1271.33333333 3244.66666667 1300 3250 c 128
 1328.66666667 3255.33333333 1364 3260 1406 3264 c 128
 1448 3268 1495.33333333 3270 1548 3270 c 0
 1676 3270 1762.5 3267.5 1807.5 3262.5 c 128
 1852.5 3257.5 1937.33333333 3241.33333333 2062 3214 c 0
 2124 3200.66666667 2205 3184.5 2305 3165.5 c 128
 2405 3146.5 2499.33333333 3126 2588 3104 c 0
 2650.66666667 3090 2654 3063.33333333 2598 3024 c 0
 2572 3004 2512 2962 2418 2898 c 1
 2381.33333333 2912.66666667 2335 2926.5 2279 2939.5 c 128
 2223 2952.5 2158.16666667 2965.66666667 2084.5 2979 c 128
 2010.83333333 2992.33333333 1966 3000.66666667 1950 3004 c 0
 1837.33333333 3028 1739 3046 1655 3058 c 0
 1577.66666667 3069.33333333 1494 3075 1404 3075 c 0
 1396.66666667 3075 1389.33333333 3074.66666667 1382 3074 c 0
 1283.33333333 3073.33333333 1195.33333333 3062 1118 3040 c 0
 1059.33333333 3023.33333333 1010.66666667 3008 972 2994 c 128
 933.333333333 2980 901.5 2968 876.5 2958 c 128
 851.5 2948 824.5 2932.33333333 795.5 2911 c 128
 766.5 2889.66666667 744.5 2872.5 729.5 2859.5 c 128
 714.5 2846.5 685.333333333 2820.66666667 642 2782 c 0
 500.666666667 2654.66666667 397.333333333 2486 332 2276 c 0
 288 2135.33333333 266 1985.66666667 266 1827 c 0
 266 1749.66666667 271.333333333 1670 282 1588 c 0
 290 1526 320.666666667 1425.5 374 1286.5 c 128
 427.333333333 1147.5 473.333333333 1038.66666667 512 960 c 0
 553.333333333 876 620.833333333 778.833333333 714.5 668.5 c 128
 808.166666667 558.166666667 890 482.666666667 960 442 c 0
 1062.66666667 382 1134.33333333 343.666666667 1175 327 c 0
 1254.33333333 294.333333333 1359.33333333 274.333333333 1490 267 c 0
 1552 263.666666667 1630.66666667 262 1726 262 c 2
 2464 262 l 1
EndSplineSet
EndChar

StartChar: H
Encoding: 72 72 43
Width: 3554
Flags: HW
LayerCount: 2
Fore
SplineSet
80 1922 m 0
 105.333333333 1918.66666667 128.166666667 1911.5 148.5 1900.5 c 128
 168.833333333 1889.5 191.333333333 1876 216 1860 c 128
 240.666666667 1844 266.666666667 1831 294 1821 c 1
 666 2908 l 1
 784 3118 l 1
 793.333333333 3141.33333333 809.5 3156.66666667 832.5 3164 c 128
 855.5 3171.33333333 878.5 3171.33333333 901.5 3164 c 128
 924.5 3156.66666667 945 3144.33333333 963 3127 c 128
 981 3109.66666667 990.333333333 3090.66666667 991 3070 c 1
 850 2816 l 1
 480 1735 l 1
 508 1720.33333333 571.5 1684.66666667 670.5 1628 c 128
 769.5 1571.33333333 866.666666667 1521.66666667 962 1479 c 1
 1654 1396 l 1
 2156 1396 l 2
 2166 1395.33333333 2177 1395 2189 1395 c 0
 2229 1395 2278.66666667 1400 2338 1410 c 0
 2416 1422.66666667 2485.33333333 1436.83333333 2546 1452.5 c 128
 2606.66666667 1468.16666667 2684.83333333 1489.33333333 2780.5 1516 c 128
 2876.16666667 1542.66666667 2934.66666667 1558.66666667 2956 1564 c 0
 3052.66666667 1589.33333333 3126 1631 3176 1689 c 1
 2726 3025 l 1
 2638 3076 l 1
 2622.66666667 3096 2614.66666667 3116.66666667 2614 3138 c 128
 2613.33333333 3159.33333333 2620.33333333 3178 2635 3194 c 128
 2649.66666667 3210 2666.5 3222.66666667 2685.5 3232 c 128
 2704.5 3241.33333333 2725.83333333 3244.16666667 2749.5 3240.5 c 128
 2773.16666667 3236.83333333 2793.66666667 3226 2811 3208 c 1
 2988 2893 l 1
 3310 1927 l 1
 3332.66666667 1946.33333333 3359.83333333 1957.33333333 3391.5 1960 c 128
 3423.16666667 1962.66666667 3450.83333333 1955.5 3474.5 1938.5 c 128
 3498.16666667 1921.5 3510 1897.33333333 3510 1866 c 0
 3510 1840.66666667 3502.66666667 1814.33333333 3488 1787 c 128
 3473.33333333 1759.66666667 3455.16666667 1731.66666667 3433.5 1703 c 128
 3411.83333333 1674.33333333 3397.33333333 1652.66666667 3390 1638 c 1
 3390 972 l 1
 3294 708 l 1
 3294 540 l 1
 3256 492.666666667 3199.83333333 421 3125.5 325 c 128
 3051.16666667 229 2991.66666667 153.333333333 2947 98 c 128
 2902.33333333 42.6666666667 2875.33333333 13.3333333333 2866 10 c 1
 2804 -45.3333333333 2749.33333333 -73 2702 -73 c 0
 2670.66666667 -73 2645.16666667 -62 2625.5 -40 c 128
 2605.83333333 -18 2596 10 2596 44 c 0
 2596 89.3333333333 2637.33333333 126 2720 154 c 1
 2779.33333333 208 2896.66666667 354.666666667 3072 594 c 1
 3070 741 l 1
 3146 998 l 1
 3146 1432 l 1
 3062 1386 2969.33333333 1352 2868 1330 c 0
 2804 1316 2753.33333333 1302.16666667 2716 1288.5 c 128
 2678.66666667 1274.83333333 2653.66666667 1263.16666667 2641 1253.5 c 128
 2628.33333333 1243.83333333 2605.33333333 1232 2572 1218 c 128
 2538.66666667 1204 2494.66666667 1190 2440 1176 c 1
 1644 1176 l 1
 918 1290 l 2
 900 1292.66666667 842.666666667 1316.5 746 1361.5 c 128
 649.333333333 1406.5 590 1435.33333333 568 1448 c 1
 466 1492 l 1
 466 998 l 1
 552 748 l 1
 552 594 l 1
 567.333333333 572.666666667 608.666666667 522.166666667 676 442.5 c 128
 743.333333333 362.833333333 789.333333333 301.333333333 814 258 c 0
 848 196 878.666666667 160 906 150 c 0
 960.666666667 130 988 101.333333333 988 64 c 0
 988 32.6666666667 979.5 5.16666666667 962.5 -18.5 c 128
 945.5 -42.1666666667 924 -54 898 -54 c 0
 866.666666667 -54 836.333333333 -46.3333333333 807 -31 c 128
 777.666666667 -15.6666666667 750.833333333 5.66666666667 726.5 33 c 128
 702.166666667 60.3333333333 681.333333333 86.3333333333 664 111 c 128
 646.666666667 135.666666667 627.833333333 164.666666667 607.5 198 c 128
 587.166666667 231.333333333 572.666666667 254 564 266 c 0
 560 271.333333333 540.833333333 296 506.5 340 c 128
 472.166666667 384 442.666666667 423.833333333 418 459.5 c 128
 393.333333333 495.166666667 378.666666667 522 374 540 c 1
 374 708 l 1
 298 962 l 1
 298 1608 l 1
 156.666666667 1662.66666667 63.3333333333 1706 18 1738 c 0
 -5.33333333333 1754.66666667 -17.6666666667 1778.66666667 -19 1810 c 128
 -20.3333333333 1841.33333333 -11.3333333333 1868.66666667 8 1892 c 128
 27.3333333333 1915.33333333 51.3333333333 1925.33333333 80 1922 c 0
EndSplineSet
EndChar

StartChar: I
Encoding: 73 73 44
Width: 1130
Flags: W
HStem: 30 21G<204.333 206.667> 3225 20G<215.333 258.667>
VStem: 110 258<3048.25 3240.48> 650 276<769.492 2234.94>
LayerCount: 2
Fore
SplineSet
110 3210 m 1
 152.666666667 3233.33333333 194.666666667 3245 236 3245 c 0
 281.333333333 3245 325.333333333 3230.66666667 368 3202 c 1
 368 3164 l 1
 380 3142.66666667 411.833333333 3099.5 463.5 3034.5 c 0
 515.166666667 2969.5 555.333333333 2916 584 2874 c 0
 612.666666667 2831.33333333 636.333333333 2794.66666667 655 2764 c 0
 673.666666667 2733.33333333 691 2701.5 707 2668.5 c 0
 723 2635.5 734.166666667 2611.83333333 740.5 2597.5 c 0
 746.833333333 2583.16666667 759 2552.83333333 777 2506.5 c 0
 795 2460.16666667 808 2426.66666667 816 2406 c 0
 837.333333333 2352.66666667 852.666666667 2306 862 2266 c 0
 871.333333333 2226 880.833333333 2173.66666667 890.5 2109 c 0
 900.166666667 2044.33333333 912 1980.66666667 926 1918 c 1
 926 1006 l 1
 912.666666667 950.666666667 898.666666667 904.333333333 884 867 c 0
 869.333333333 829.666666667 856.833333333 802.333333333 846.5 785 c 0
 836.166666667 767.666666667 814.833333333 735.666666667 782.5 689 c 0
 750.166666667 642.333333333 722.666666667 601.333333333 700 566 c 0
 624 450.666666667 571.333333333 358.666666667 542 290 c 0
 513.333333333 223.333333333 486.5 177.333333333 461.5 152 c 0
 436.5 126.666666667 391.333333333 101.333333333 326 76 c 0
 309.333333333 70 291.333333333 63.1666666667 272 55.5 c 0
 252.666666667 47.8333333333 237.833333333 42.1666666667 227.5 38.5 c 0
 217.166666667 34.8333333333 209.333333333 32 204 30 c 1
 204.666666667 34 203 40.6666666667 199 50 c 0
 195 59.3333333333 192.333333333 67.3333333333 191 74 c 0
 189.666666667 80.6666666667 192 89.3333333333 198 100 c 0
 232.666666667 144.666666667 272.333333333 212.666666667 317 304 c 0
 361.666666667 395.333333333 406.666666667 473.333333333 452 538 c 0
 482.666666667 582 507.5 620 526.5 652 c 0
 545.5 684 560.833333333 717 572.5 751 c 0
 584.166666667 785 592.666666667 813 598 835 c 0
 603.333333333 857 611.166666667 892.666666667 621.5 942 c 0
 631.833333333 991.333333333 641.333333333 1034.66666667 650 1072 c 1
 650 1842 l 1
 632.666666667 1910.66666667 618.666666667 1981.33333333 608 2054 c 0
 592.666666667 2144 559.166666667 2253.5 507.5 2382.5 c 0
 455.833333333 2511.5 406.666666667 2608.66666667 360 2674 c 0
 296 2762.66666667 212.666666667 2890 110 3056 c 1
 110 3210 l 1
EndSplineSet
EndChar

StartChar: J
Encoding: 74 74 45
Width: 1932
Flags: HW
LayerCount: 2
Fore
SplineSet
662 134 m 0
 609.333333333 134 526.666666667 162.666666667 414 220 c 128
 301.333333333 277.333333333 183.333333333 348.666666667 60 434 c 1
 60 448 64.5 462.166666667 73.5 476.5 c 128
 82.5 490.833333333 94.6666666667 503.833333333 110 515.5 c 128
 125.333333333 527.166666667 139.666666667 537.166666667 153 545.5 c 128
 166.333333333 553.833333333 180.333333333 561.833333333 195 569.5 c 128
 209.666666667 577.166666667 217.333333333 581.333333333 218 582 c 0
 224 586 231.333333333 591.666666667 240 599 c 128
 248.666666667 606.333333333 255.166666667 611.333333333 259.5 614 c 128
 263.833333333 616.666666667 269.333333333 617.666666667 276 617 c 128
 282.666666667 616.333333333 290 612 298 604 c 0
 334 568 427.333333333 510.666666667 578 432 c 0
 712 362 793.333333333 327 822 327 c 0
 825.333333333 327 828 327.333333333 830 328 c 0
 940 328 1054 374 1172 466 c 0
 1199.33333333 488 1222.16666667 507.833333333 1240.5 525.5 c 128
 1258.83333333 543.166666667 1271.66666667 555.833333333 1279 563.5 c 128
 1286.33333333 571.166666667 1299.33333333 586.333333333 1318 609 c 128
 1346 643 1346 643 1360 660 c 2
 1408 720 l 2
 1487.33333333 821.333333333 1543.33333333 918.666666667 1576 1012 c 1
 1576 1370 l 2
 1576 1488 1574.5 1591.66666667 1571.5 1681 c 128
 1568.5 1770.33333333 1565.66666667 1831.66666667 1563 1865 c 128
 1560.33333333 1898.33333333 1553.83333333 1958.83333333 1543.5 2046.5 c 128
 1533.16666667 2134.16666667 1526.66666667 2192 1524 2220 c 1
 1510 2244 1494 2312 1476 2424 c 0
 1460 2524 1416 2646 1344 2790 c 0
 1264 2950.66666667 1214 3063.33333333 1194 3128 c 1
 1211.33333333 3128 1220 3134.66666667 1220 3148 c 0
 1220 3153.33333333 1286 3184 1418 3240 c 1
 1451.33333333 3240 1470 3239.33333333 1474 3238 c 1
 1495.33333333 3177.33333333 1529.33333333 3090.66666667 1576 2978 c 0
 1634 2838 1679.33333333 2716.66666667 1712 2614 c 128
 1744.66666667 2511.33333333 1770.5 2397.83333333 1789.5 2273.5 c 128
 1808.5 2149.16666667 1821 2026.83333333 1827 1906.5 c 128
 1833 1786.16666667 1837.33333333 1621.33333333 1840 1412 c 1
 1840 1322 l 2
 1840 1201.33333333 1836.66666667 1115.33333333 1830 1064 c 0
 1824 1017.33333333 1760.66666667 908.666666667 1640 738 c 0
 1478 512 1269.33333333 344.666666667 1014 236 c 0
 854 168 736.666666667 134 662 134 c 0
EndSplineSet
EndChar

StartChar: K
Encoding: 75 75 46
Width: 2842
Flags: HW
LayerCount: 2
Fore
SplineSet
2404 2802 m 1
 2375.33333333 2808 2342.33333333 2816.16666667 2305 2826.5 c 128
 2267.66666667 2836.83333333 2240.16666667 2843.66666667 2222.5 2847 c 128
 2204.83333333 2850.33333333 2175.66666667 2853.33333333 2135 2856 c 0
 2113 2856.66666667 2088 2857 2060 2857 c 0
 2035.33333333 2857 2008.66666667 2856.66666667 1980 2856 c 0
 1950 2855.33333333 1902 2855 1836 2855 c 128
 1770 2855 1724 2854.66666667 1698 2854 c 1
 1682 2850 1633.33333333 2844 1552 2836 c 0
 1445.33333333 2825.33333333 1362.5 2803.5 1303.5 2770.5 c 128
 1244.5 2737.5 1182.66666667 2679.33333333 1118 2596 c 0
 1104 2577.33333333 1070.5 2539 1017.5 2481 c 128
 964.5 2423 917.666666667 2370.16666667 877 2322.5 c 128
 836.333333333 2274.83333333 798.333333333 2219 763 2155 c 128
 727.666666667 2091 710 2034.66666667 710 1986 c 0
 710 1973.33333333 706 1962 698 1952 c 1
 704.666666667 1926.66666667 711.166666667 1896.5 717.5 1861.5 c 128
 723.833333333 1826.5 728.166666667 1799.83333333 730.5 1781.5 c 128
 732.833333333 1763.16666667 737.166666667 1728.16666667 743.5 1676.5 c 128
 749.833333333 1624.83333333 753.333333333 1595.33333333 754 1588 c 1
 828 1514 914 1424.66666667 1012 1320 c 0
 1025.33333333 1305.33333333 1043.33333333 1285.5 1066 1260.5 c 128
 1088.66666667 1235.5 1103.16666667 1219.5 1109.5 1212.5 c 128
 1115.83333333 1205.5 1126.66666667 1194.33333333 1142 1179 c 128
 1157.33333333 1163.66666667 1168.16666667 1153.66666667 1174.5 1149 c 128
 1180.83333333 1144.33333333 1191.5 1136.33333333 1206.5 1125 c 128
 1221.5 1113.66666667 1235.83333333 1103.66666667 1249.5 1095 c 128
 1263.16666667 1086.33333333 1281.33333333 1075.33333333 1304 1062 c 0
 1362 1027.33333333 1403.33333333 997.333333333 1428 972 c 0
 1484.66666667 914 1604.83333333 847.166666667 1788.5 771.5 c 128
 1972.16666667 695.833333333 2134.66666667 642.666666667 2276 612 c 0
 2298.66666667 607.333333333 2332 599.333333333 2376 588 c 128
 2420 576.666666667 2457.5 568.333333333 2488.5 563 c 128
 2519.5 557.666666667 2556 553.333333333 2598 550 c 0
 2612 548.666666667 2628 547.166666667 2646 545.5 c 128
 2664 543.833333333 2675.66666667 542.666666667 2681 542 c 128
 2686.33333333 541.333333333 2693.5 539.666666667 2702.5 537 c 128
 2711.5 534.333333333 2719 530.5 2725 525.5 c 128
 2731 520.5 2738.66666667 513.333333333 2748 504 c 1
 2745.33333333 502 2711.5 479.333333333 2646.5 436 c 128
 2581.5 392.666666667 2547.33333333 370 2544 368 c 1
 2544 372 l 1
 2482 372 2432.83333333 374.833333333 2396.5 380.5 c 128
 2360.16666667 386.166666667 2318.16666667 396 2270.5 410 c 128
 2222.83333333 424 2178 435.333333333 2136 444 c 0
 1736 532 1422.66666667 664.666666667 1196 842 c 0
 1182.66666667 852.666666667 1145 880.333333333 1083 925 c 128
 1021 969.666666667 967 1011.16666667 921 1049.5 c 128
 875 1087.83333333 834.666666667 1127.33333333 800 1168 c 1
 800 1210 l 1
 795.333333333 1188.66666667 785.833333333 1144.66666667 771.5 1078 c 128
 757.166666667 1011.33333333 745.333333333 956.666666667 736 914 c 128
 726.666666667 871.333333333 713.166666667 817 695.5 751 c 128
 677.833333333 685 661.166666667 629.333333333 645.5 584 c 128
 629.833333333 538.666666667 611 493.166666667 589 447.5 c 128
 567 401.833333333 544.666666667 366 522 340 c 0
 490 302.666666667 467.166666667 276 453.5 260 c 128
 439.833333333 244 423.166666667 226 403.5 206 c 128
 383.833333333 186 371 173.333333333 365 168 c 128
 359 162.666666667 346 153.333333333 326 140 c 128
 306 126.666666667 291 117.666666667 281 113 c 128
 271 108.333333333 250.333333333 97.5 219 80.5 c 128
 187.666666667 63.5 159.333333333 48 134 34 c 1
 134 56 l 1
 84 40 58.6666666667 46.6666666667 58 76 c 0
 58 82.6666666667 58.8333333333 88.3333333333 60.5 93 c 128
 62.1666666667 97.6666666667 66 102.166666667 72 106.5 c 128
 78 110.833333333 82.8333333333 114 86.5 116 c 128
 90.1666666667 118 97.8333333333 121.666666667 109.5 127 c 128
 121.166666667 132.333333333 130 136.666666667 136 140 c 0
 168 156 207.666666667 195 255 257 c 0
 257 260.333333333 258.666666667 262.666666667 260 264 c 0
 327.333333333 339.333333333 374 440 400 566 c 1
 429.333333333 692.666666667 449.666666667 783.833333333 461 839.5 c 128
 472.333333333 895.166666667 483.833333333 966.333333333 495.5 1053 c 128
 507.166666667 1139.66666667 514 1227.33333333 516 1316 c 2
 516 1466 l 1
 508 1478 493.333333333 1492 472 1508 c 1
 462.666666667 1764.66666667 439.333333333 1958 402 2088 c 0
 392.666666667 2120 376.166666667 2180.33333333 352.5 2269 c 128
 328.833333333 2357.66666667 308.833333333 2431.16666667 292.5 2489.5 c 128
 276.166666667 2547.83333333 255.666666667 2613 231 2685 c 128
 206.333333333 2757 183.333333333 2814.66666667 162 2858 c 1
 127.333333333 2919.33333333 110 3002 110 3106 c 2
 110 3196 l 1
 232 3264 300 3298 314 3298 c 0
 326.666666667 3298 338 3288 348 3268 c 1
 348 3182 l 2
 348 3096.66666667 364 3020 396 2952 c 0
 419.333333333 2902 442.5 2845 465.5 2781 c 128
 488.5 2717 506.666666667 2662.66666667 520 2618 c 128
 533.333333333 2573.33333333 551.666666667 2510.16666667 575 2428.5 c 128
 598.333333333 2346.83333333 615.333333333 2288 626 2252 c 1
 661.333333333 2300 690.833333333 2339.33333333 714.5 2370 c 128
 738.166666667 2400.66666667 755.333333333 2422 766 2434 c 128
 776.666666667 2446 792.833333333 2463.66666667 814.5 2487 c 128
 836.166666667 2510.33333333 854.666666667 2530.66666667 870 2548 c 0
 984.666666667 2676.66666667 1093.33333333 2770.66666667 1196 2830 c 0
 1274 2874.66666667 1333.33333333 2907.5 1374 2928.5 c 128
 1414.66666667 2949.5 1459.83333333 2968.5 1509.5 2985.5 c 128
 1559.16666667 3002.5 1606.83333333 3013.16666667 1652.5 3017.5 c 128
 1698.16666667 3021.83333333 1756.66666667 3024 1828 3024 c 2
 2202 3024 l 2
 2319.33333333 3024 2440 3005.33333333 2564 2968 c 0
 2584 2962 2594 2953.33333333 2594 2942 c 0
 2594 2924.66666667 2567.33333333 2897 2514 2859 c 128
 2460.66666667 2821 2424 2802 2404 2802 c 1
EndSplineSet
EndChar

StartChar: L
Encoding: 76 76 47
Width: 2128
Flags: HW
LayerCount: 2
Fore
SplineSet
2094 104 m 0
 2094 69.3333333333 2054.66666667 22.3333333333 1976 -37 c 0
 1942 -63 1925.66666667 -74 1927 -70 c 1
 928 -70 l 1
 826 -44.6666666667 725.166666667 8.66666666667 625.5 90 c 128
 525.833333333 171.333333333 440.5 265.333333333 369.5 372 c 128
 298.5 478.666666667 246 586.666666667 212 696 c 0
 196 748.666666667 172.666666667 799.333333333 142 848 c 128
 111.333333333 896.666666667 87.3333333333 956.666666667 70 1028 c 1
 70 2228 l 1
 79.3333333333 2320 94.8333333333 2409 116.5 2495 c 128
 138.166666667 2581 164.666666667 2673.83333333 196 2773.5 c 128
 227.333333333 2873.16666667 250.666666667 2954.66666667 266 3018 c 0
 286 3108.66666667 307.333333333 3171.5 330 3206.5 c 128
 352.666666667 3241.5 395.333333333 3274 458 3304 c 0
 510.666666667 3329.33333333 538 3342 540 3342 c 0
 552.666666667 3342 563.833333333 3334 573.5 3318 c 128
 583.166666667 3302 588 3285.33333333 588 3268 c 0
 588 3252.66666667 584.333333333 3238.66666667 577 3226 c 128
 569.666666667 3213.33333333 560 3200.83333333 548 3188.5 c 128
 536 3176.16666667 528 3166.66666667 524 3160 c 0
 463.333333333 2943.33333333 415.666666667 2751.66666667 381 2585 c 128
 346.333333333 2418.33333333 320.666666667 2231.33333333 304 2024 c 0
 301.333333333 1991.33333333 300 1834 300 1552 c 2
 300 1262 l 2
 300 1251.33333333 301.666666667 1237.33333333 305 1220 c 128
 308.333333333 1202.66666667 313.333333333 1182.83333333 320 1160.5 c 128
 326.666666667 1138.16666667 332.333333333 1119.83333333 337 1105.5 c 128
 341.666666667 1091.16666667 348 1072.5 356 1049.5 c 128
 364 1026.5 368 1014.66666667 368 1014 c 2
 420 858 l 1
 446 794.666666667 472.5 736.5 499.5 683.5 c 128
 526.5 630.5 558.333333333 577.666666667 595 525 c 128
 631.666666667 472.333333333 670.166666667 426.166666667 710.5 386.5 c 128
 750.833333333 346.833333333 797.166666667 311.5 849.5 280.5 c 128
 901.833333333 249.5 957.333333333 226 1016 210 c 0
 1038.66666667 204 1056.5 199.333333333 1069.5 196 c 128
 1082.5 192.666666667 1098.83333333 189.666666667 1118.5 187 c 128
 1138.16666667 184.333333333 1153.16666667 182.5 1163.5 181.5 c 128
 1173.83333333 180.5 1194.16666667 179.833333333 1224.5 179.5 c 128
 1254.83333333 179.166666667 1280.5 179 1301.5 179 c 128
 1322.5 179 1360 179.166666667 1414 179.5 c 128
 1468 179.833333333 1518 180 1564 180 c 2
 2044 180 l 2
 2077.33333333 180 2094 154.666666667 2094 104 c 0
EndSplineSet
EndChar

StartChar: M
Encoding: 77 77 48
Width: 4644
Flags: HW
LayerCount: 2
Fore
SplineSet
394 2004 m 1
 367.333333333 1964.66666667 351.666666667 1892.66666667 347 1788 c 0
 345 1749.33333333 344 1708 344 1664 c 0
 344 1588 346.666666667 1504 352 1412 c 0
 360 1266 364 1185.33333333 364 1170 c 0
 364 1130 365.833333333 1096 369.5 1068 c 128
 373.166666667 1040 379 1007.83333333 387 971.5 c 128
 395 935.166666667 401.333333333 900.666666667 406 868 c 0
 410.666666667 833.333333333 414.333333333 806.833333333 417 788.5 c 128
 419.666666667 770.166666667 423.333333333 749.666666667 428 727 c 128
 432.666666667 704.333333333 435.833333333 689 437.5 681 c 128
 439.166666667 673 443.666666667 657.333333333 451 634 c 128
 458.333333333 610.666666667 463.666666667 594.166666667 467 584.5 c 128
 470.333333333 574.833333333 478.166666667 552.333333333 490.5 517 c 128
 502.833333333 481.666666667 513.333333333 452 522 428 c 0
 570.666666667 288.666666667 616 198 658 156 c 1
 683.333333333 145.333333333 696 133 696 119 c 0
 696 101 676.666666667 80.6666666667 638 58 c 0
 561.333333333 12 506 -24.6666666667 472 -52 c 0
 464.666666667 -58 457 -61.1666666667 449 -61.5 c 128
 441 -61.8333333333 433.166666667 -59.8333333333 425.5 -55.5 c 128
 417.833333333 -51.1666666667 410.166666667 -45.5 402.5 -38.5 c 128
 394.833333333 -31.5 387.333333333 -22.8333333333 380 -12.5 c 128
 372.666666667 -2.16666666667 365.666666667 8 359 18 c 128
 352.333333333 28 346.166666667 38.8333333333 340.5 50.5 c 128
 334.833333333 62.1666666667 329.833333333 72.3333333333 325.5 81 c 128
 321.166666667 89.6666666667 317.333333333 98 314 106 c 0
 214 330 150.666666667 530.666666667 124 708 c 0
 118.666666667 744.666666667 111.333333333 786.833333333 102 834.5 c 128
 92.6666666667 882.166666667 85.8333333333 923.833333333 81.5 959.5 c 128
 77.1666666667 995.166666667 74 1040.66666667 72 1096 c 2
 72 1934 l 1
 84.6666666667 1957.33333333 103.5 1993 128.5 2041 c 128
 153.5 2089 173.333333333 2126.83333333 188 2154.5 c 128
 202.666666667 2182.16666667 222.833333333 2218.33333333 248.5 2263 c 128
 274.166666667 2307.66666667 296.5 2344.5 315.5 2373.5 c 128
 334.5 2402.5 357.666666667 2436.16666667 385 2474.5 c 128
 412.333333333 2512.83333333 438.5 2545.5 463.5 2572.5 c 128
 488.5 2599.5 516.666666667 2627 548 2655 c 128
 579.333333333 2683 611.333333333 2707.33333333 644 2728 c 0
 655.333333333 2735.33333333 672 2746.16666667 694 2760.5 c 128
 716 2774.83333333 730.5 2784.33333333 737.5 2789 c 128
 744.5 2793.66666667 756.166666667 2801.16666667 772.5 2811.5 c 128
 788.833333333 2821.83333333 800.5 2828.5 807.5 2831.5 c 128
 814.5 2834.5 825.166666667 2839.5 839.5 2846.5 c 128
 853.833333333 2853.5 866 2858.33333333 876 2861 c 128
 886 2863.66666667 899.166666667 2867.33333333 915.5 2872 c 128
 931.833333333 2876.66666667 948.166666667 2880.83333333 964.5 2884.5 c 128
 980.833333333 2888.16666667 1000 2892 1022 2896 c 1
 1130 2896 l 2
 1208.66666667 2896 1280.5 2898.16666667 1345.5 2902.5 c 128
 1410.5 2906.83333333 1457.5 2911 1486.5 2915 c 128
 1515.5 2919 1547.83333333 2920.66666667 1583.5 2920 c 128
 1619.16666667 2919.33333333 1658 2914.66666667 1700 2906 c 0
 1728 2900.66666667 1772.33333333 2874.83333333 1833 2828.5 c 128
 1893.66666667 2782.16666667 1955 2728.5 2017 2667.5 c 128
 2079 2606.5 2133.66666667 2540.33333333 2181 2469 c 128
 2228.33333333 2397.66666667 2252 2338 2252 2290 c 0
 2252 2248.66666667 2255.66666667 2203.16666667 2263 2153.5 c 128
 2270.33333333 2103.83333333 2274.66666667 2054.66666667 2276 2006 c 0
 2276.66666667 1971.33333333 2277.83333333 1943.5 2279.5 1922.5 c 128
 2281.16666667 1901.5 2285.16666667 1880 2291.5 1858 c 128
 2297.83333333 1836 2302.16666667 1821.66666667 2304.5 1815 c 128
 2306.83333333 1808.33333333 2315.16666667 1790.33333333 2329.5 1761 c 128
 2343.83333333 1731.66666667 2354 1710.66666667 2360 1698 c 1
 2360 1770 l 1
 2366.66666667 1787.33333333 2378.66666667 1818.5 2396 1863.5 c 128
 2413.33333333 1908.5 2425.16666667 1940 2431.5 1958 c 128
 2437.83333333 1976 2447.5 2004.16666667 2460.5 2042.5 c 128
 2473.5 2080.83333333 2482.83333333 2112.66666667 2488.5 2138 c 128
 2494.16666667 2163.33333333 2500.83333333 2194.66666667 2508.5 2232 c 128
 2516.16666667 2269.33333333 2521.83333333 2307 2525.5 2345 c 128
 2529.16666667 2383 2532 2423.33333333 2534 2466 c 0
 2540 2615.33333333 2558.33333333 2723.16666667 2589 2789.5 c 128
 2619.66666667 2855.83333333 2681.33333333 2920.66666667 2774 2984 c 0
 2860.66666667 3043.33333333 2928.66666667 3078 2978 3088 c 1
 3036 3088 l 2
 3058 3088.66666667 3090.5 3090.16666667 3133.5 3092.5 c 128
 3176.5 3094.83333333 3207.33333333 3096 3226 3096 c 2
 3272 3096 l 2
 3299.33333333 3098 3324.66666667 3099 3348 3099 c 0
 3380.66666667 3099 3409.33333333 3097 3434 3093 c 0
 3478 3085.66666667 3524.66666667 3072.5 3574 3053.5 c 128
 3623.33333333 3034.5 3663.33333333 3021.33333333 3694 3014 c 0
 3730.66666667 3005.33333333 3805.33333333 2969.83333333 3918 2907.5 c 128
 4030.66666667 2845.16666667 4098 2802.66666667 4120 2780 c 0
 4152.66666667 2745.33333333 4210.16666667 2677.66666667 4292.5 2577 c 128
 4374.83333333 2476.33333333 4424 2410.66666667 4440 2380 c 0
 4470 2322.66666667 4496.83333333 2228 4520.5 2096 c 128
 4544.16666667 1964 4556 1848 4556 1748 c 0
 4556 1542 4540.5 1348.5 4509.5 1167.5 c 128
 4478.5 986.5 4433.33333333 784 4374 560 c 0
 4361.33333333 512 4347.5 476.333333333 4332.5 453 c 128
 4317.5 429.666666667 4299.33333333 418 4278 418 c 1
 4278 420 l 1
 4240.66666667 385.333333333 4176.16666667 344 4084.5 296 c 128
 3992.83333333 248 3930.66666667 208.666666667 3898 178 c 0
 3858 139.333333333 3820.66666667 112 3786 96 c 128
 3751.33333333 80 3702.83333333 62.6666666667 3640.5 44 c 128
 3578.16666667 25.3333333333 3516.66666667 2 3456 -26 c 1
 3620 128 l 1
 3708.66666667 206 3797.33333333 267.333333333 3886 312 c 0
 3980 358.666666667 4039.33333333 406 4064 454 c 0
 4123.33333333 568 4158 667.333333333 4168 752 c 0
 4175.33333333 808 4188.83333333 896.333333333 4208.5 1017 c 128
 4228.16666667 1137.66666667 4243 1244 4253 1336 c 128
 4263 1428 4268 1522.66666667 4268 1620 c 0
 4268 1818 4249 1977.16666667 4211 2097.5 c 128
 4173 2217.83333333 4104.66666667 2332.66666667 4006 2442 c 0
 3912 2546 3855.33333333 2606 3836 2622 c 1
 3761.33333333 2671.33333333 3700.66666667 2708.66666667 3654 2734 c 128
 3607.33333333 2759.33333333 3572.16666667 2776.16666667 3548.5 2784.5 c 128
 3524.83333333 2792.83333333 3485.83333333 2805.33333333 3431.5 2822 c 128
 3377.16666667 2838.66666667 3321.33333333 2858 3264 2880 c 1
 3076 2880 l 1
 3040.66666667 2898.66666667 3010.66666667 2908 2986 2908 c 2
 2896 2908 l 1
 2877.33333333 2874.66666667 2862.5 2812.83333333 2851.5 2722.5 c 128
 2840.5 2632.16666667 2831.16666667 2537.83333333 2823.5 2439.5 c 128
 2815.83333333 2341.16666667 2808 2275.33333333 2800 2242 c 0
 2735.33333333 1980 2670 1790.66666667 2604 1674 c 0
 2587.33333333 1644.66666667 2524.66666667 1601.33333333 2416 1544 c 2
 2340 1502 l 1
 2324 1528 2303.83333333 1539.83333333 2279.5 1537.5 c 128
 2255.16666667 1535.16666667 2236.66666667 1519.33333333 2224 1490 c 1
 2186.66666667 1490 2152.33333333 1503.5 2121 1530.5 c 128
 2089.66666667 1557.5 2064.33333333 1592.16666667 2045 1634.5 c 128
 2025.66666667 1676.83333333 2010.5 1721.16666667 1999.5 1767.5 c 128
 1988.5 1813.83333333 1982 1859.33333333 1980 1904 c 0
 1980 1908 1979.5 1924.33333333 1978.5 1953 c 128
 1977.5 1981.66666667 1976.66666667 2000.83333333 1976 2010.5 c 128
 1975.33333333 2020.16666667 1974 2038.66666667 1972 2066 c 128
 1970 2093.33333333 1968 2113.66666667 1966 2127 c 128
 1964 2140.33333333 1960.83333333 2158.83333333 1956.5 2182.5 c 128
 1952.16666667 2206.16666667 1947.33333333 2225.66666667 1942 2241 c 128
 1936.66666667 2256.33333333 1930.16666667 2272.83333333 1922.5 2290.5 c 128
 1914.83333333 2308.16666667 1906 2324 1896 2338 c 0
 1874 2371.33333333 1823.5 2425.83333333 1744.5 2501.5 c 128
 1665.5 2577.16666667 1608 2627.33333333 1572 2652 c 0
 1536.66666667 2677.33333333 1508.33333333 2692.66666667 1487 2698 c 0
 1468.33333333 2702 1430 2704 1372 2704 c 0
 1361 2704 1361 2704 1348 2704 c 2
 1068 2704 l 2
 957.333333333 2702 862.666666667 2690.66666667 784 2670 c 0
 782.666666667 2667.33333333 776 2660 764 2648 c 2
 718 2600 l 1
 666 2538.66666667 608.5 2448.16666667 545.5 2328.5 c 128
 482.5 2208.83333333 432 2100.66666667 394 2004 c 1
EndSplineSet
EndChar

StartChar: N
Encoding: 78 78 49
Width: 4004
Flags: HW
LayerCount: 2
Fore
SplineSet
720 298 m 1
 708.666666667 288 665 262 589 220 c 0
 523.666666667 184.666666667 482.333333333 167 465 167 c 0
 461.666666667 167 459.333333333 167.333333333 458 168 c 0
 457.333333333 169.333333333 453.666666667 177.333333333 447 192 c 128
 440.333333333 206.666666667 434.166666667 223.166666667 428.5 241.5 c 128
 422.833333333 259.833333333 418.666666667 279.333333333 416 300 c 0
 410.666666667 335.333333333 397.166666667 383.666666667 375.5 445 c 128
 353.833333333 506.333333333 329.5 570 302.5 636 c 128
 275.5 702 258.666666667 745.333333333 252 766 c 2
 198 928 l 1
 150 1092 115.333333333 1240.33333333 94 1373 c 0
 72.6666666667 1501.66666667 62 1652.66666667 62 1826 c 0
 62 1834 62 1834 62 1842 c 2
 62 1998 l 2
 63.3333333333 2060 64 2111.66666667 64 2153 c 0
 64 2169 64 2169 64 2182 c 0
 63.3333333333 2228 63.5 2267 64.5 2299 c 128
 65.5 2331 69.1666666667 2362.33333333 75.5 2393 c 128
 81.8333333333 2423.66666667 92.6666666667 2462 108 2508 c 0
 161.333333333 2668.66666667 248.166666667 2808.5 368.5 2927.5 c 128
 488.833333333 3046.5 632 3121.33333333 798 3152 c 0
 807.333333333 3154 820.166666667 3155.5 836.5 3156.5 c 128
 852.833333333 3157.5 875.833333333 3158 905.5 3158 c 128
 950 3158 950 3158 986.5 3158 c 128
 1023 3158 1023 3158 1101 3158 c 128
 1179 3158 1179 3158 1230 3158 c 2
 1364 3158 l 2
 1404 3156.66666667 1440.83333333 3156 1474.5 3156 c 128
 1508.16666667 3156 1538.66666667 3156.66666667 1566 3158 c 0
 1595.33333333 3159.33333333 1622.33333333 3160 1647 3160 c 0
 1667.66666667 3160 1686.66666667 3159.33333333 1704 3158 c 0
 1742 3156.66666667 1778.16666667 3147.66666667 1812.5 3131 c 128
 1846.83333333 3114.33333333 1884 3086.66666667 1924 3048 c 0
 1980 2993.33333333 2022 2949.33333333 2050 2916 c 128
 2078 2882.66666667 2103.5 2843.5 2126.5 2798.5 c 128
 2149.5 2753.5 2173.33333333 2694 2198 2620 c 0
 2215.33333333 2570 2228.33333333 2530.16666667 2237 2500.5 c 128
 2245.66666667 2470.83333333 2253.33333333 2444.5 2260 2421.5 c 128
 2266.66666667 2398.5 2270.5 2371.16666667 2271.5 2339.5 c 128
 2272.5 2307.83333333 2273.33333333 2281.5 2274 2260.5 c 128
 2274.66666667 2239.5 2274.5 2198.5 2273.5 2137.5 c 128
 2272.5 2076.5 2272 2021.33333333 2272 1972 c 0
 2272 1860.66666667 2274.16666667 1766.66666667 2278.5 1690 c 128
 2282.83333333 1613.33333333 2287 1558.33333333 2291 1525 c 128
 2295 1491.66666667 2303.83333333 1436.66666667 2317.5 1360 c 128
 2331.16666667 1283.33333333 2342 1220 2350 1170 c 0
 2378.66666667 986 2407.16666667 837.333333333 2435.5 724 c 128
 2463.83333333 610.666666667 2506 502 2562 398 c 1
 2613.33333333 309.333333333 2652.66666667 258.666666667 2680 246 c 0
 2772.66666667 200.666666667 2876.66666667 178 2992 178 c 0
 3032 178 3059 178.166666667 3073 178.5 c 128
 3087 178.833333333 3107 179.333333333 3133 180 c 128
 3159 180.666666667 3176.33333333 182.333333333 3185 185 c 128
 3193.66666667 187.666666667 3206 191.166666667 3222 195.5 c 128
 3238 199.833333333 3250.5 205.666666667 3259.5 213 c 128
 3268.5 220.333333333 3278.83333333 229 3290.5 239 c 128
 3302.16666667 249 3314.66666667 261.333333333 3328 276 c 0
 3410 367.333333333 3468.83333333 452.5 3504.5 531.5 c 128
 3540.16666667 610.5 3566.66666667 708 3584 824 c 0
 3627.33333333 1120 3650.66666667 1332.66666667 3654 1462 c 1
 3659.33333333 1482 3662 1643.33333333 3662 1946 c 0
 3662.66666667 1966.66666667 3663 1986.33333333 3663 2005 c 0
 3663 2271.66666667 3660.66666667 2424 3656 2462 c 0
 3649.33333333 2523.33333333 3634 2584 3610 2644 c 0
 3495.33333333 2940 3438 3110.66666667 3438 3156 c 0
 3436.66666667 3164 3440.66666667 3171.83333333 3450 3179.5 c 128
 3459.33333333 3187.16666667 3476.33333333 3196.83333333 3501 3208.5 c 128
 3525.66666667 3220.16666667 3543.33333333 3229.33333333 3554 3236 c 0
 3608 3266 3656 3288 3698 3302 c 1
 3727.33333333 3294 3738.66666667 3278.66666667 3732 3256 c 1
 3745.33333333 3220.66666667 3764.83333333 3162.5 3790.5 3081.5 c 128
 3816.16666667 3000.5 3843.33333333 2928 3872 2864 c 0
 3913.33333333 2771.33333333 3937 2704.66666667 3943 2664 c 0
 3947.66666667 2630.66666667 3950 2560.66666667 3950 2454 c 0
 3950 2419 3950 2419 3950 2378 c 2
 3950 2080 l 2
 3949.33333333 2033.33333333 3948.83333333 1967 3948.5 1881 c 128
 3948.16666667 1795 3948 1738.66666667 3948 1712 c 128
 3948 1685.33333333 3947.16666667 1641.16666667 3945.5 1579.5 c 128
 3943.83333333 1517.83333333 3942 1476.66666667 3940 1456 c 128
 3938 1435.33333333 3934.66666667 1399.66666667 3930 1349 c 128
 3925.33333333 1298.33333333 3920.16666667 1258.66666667 3914.5 1230 c 128
 3908.83333333 1201.33333333 3901 1160.33333333 3891 1107 c 128
 3881 1053.66666667 3870.16666667 1002.16666667 3858.5 952.5 c 128
 3846.83333333 902.833333333 3832.66666667 842.666666667 3816 772 c 1
 3775.33333333 684.666666667 3738.5 613.666666667 3705.5 559 c 128
 3672.5 504.333333333 3619.33333333 423 3546 315 c 0
 3532 294.333333333 3521.33333333 278.666666667 3514 268 c 0
 3469.33333333 202.666666667 3404.83333333 150.333333333 3320.5 111 c 128
 3236.16666667 71.6666666667 3143.33333333 52 3042 52 c 0
 3018 52 2978.5 54.5 2923.5 59.5 c 128
 2868.5 64.5 2827.33333333 67.3333333333 2800 68 c 0
 2745.33333333 70 2671 86.1666666667 2577 116.5 c 128
 2483 146.833333333 2420.66666667 174.666666667 2390 200 c 0
 2348 234 2305.16666667 293.833333333 2261.5 379.5 c 128
 2217.83333333 465.166666667 2184.66666667 548 2162 628 c 2
 2116 786 l 2
 2100.66666667 842.666666667 2088.16666667 897.666666667 2078.5 951 c 128
 2068.83333333 1004.33333333 2059.5 1063.66666667 2050.5 1129 c 128
 2041.5 1194.33333333 2032.66666667 1250 2024 1296 c 0
 2005.33333333 1397.33333333 1993.33333333 1466.16666667 1988 1502.5 c 128
 1982.66666667 1538.83333333 1978 1592 1974 1662 c 128
 1970 1732 1968 1828 1968 1950 c 2
 1968 2028 l 2
 1968 2060 1968.33333333 2099.5 1969 2146.5 c 128
 1969.66666667 2193.5 1969.83333333 2222.66666667 1969.5 2234 c 128
 1969.16666667 2245.33333333 1967.66666667 2263.66666667 1965 2289 c 128
 1962.33333333 2314.33333333 1958.5 2335.66666667 1953.5 2353 c 128
 1948.5 2370.33333333 1940.66666667 2394 1930 2424 c 0
 1885.33333333 2543.33333333 1835.66666667 2646.83333333 1781 2734.5 c 128
 1726.33333333 2822.16666667 1660 2892.66666667 1582 2946 c 1
 620 2946 l 1
 467.333333333 2763.33333333 382 2606.66666667 364 2476 c 0
 354.666666667 2392 350 2280 350 2140 c 0
 350 2092.66666667 350.666666667 2041.66666667 352 1987 c 0
 356 1773.66666667 362.666666667 1642 372 1592 c 0
 377.333333333 1564.66666667 387.166666667 1510.66666667 401.5 1430 c 128
 415.833333333 1349.33333333 426.333333333 1293.83333333 433 1263.5 c 128
 439.666666667 1233.16666667 449.833333333 1188.83333333 463.5 1130.5 c 128
 477.166666667 1072.16666667 492 1020.5 508 975.5 c 128
 524 930.5 542.666666667 884 564 836 c 0
 612 728.666666667 647.833333333 634.666666667 671.5 554 c 128
 695.166666667 473.333333333 711.333333333 388 720 298 c 1
EndSplineSet
EndChar

StartChar: O
Encoding: 79 79 50
Width: 2694
Flags: W
HStem: 29 204<969.798 1836.98> 3037 195<662.113 1402.52>
VStem: 20 266<882.414 2638.92> 2374 280<790.16 2209.66>
LayerCount: 2
Fore
SplineSet
2654 1394 m 2
 2654 1359 2654 1359 2654 1300 c 0
 2654 1281 2654 1281 2654 1263 c 0
 2654 1163 2651.33333333 1096.66666667 2646 1064 c 0
 2640.66666667 1026.66666667 2620 954.333333333 2584 847 c 0
 2581.33333333 838.333333333 2579.33333333 832 2578 828 c 0
 2538 708.666666667 2503.66666667 626 2475 580 c 0
 2446.33333333 534 2388.66666667 467.333333333 2302 380 c 0
 2248.66666667 326 2143.33333333 260.833333333 1986 184.5 c 0
 1828.66666667 108.166666667 1708.66666667 62.6666666667 1626 48 c 0
 1561.33333333 35.3333333333 1482.33333333 29 1389 29 c 0
 1342.33333333 29 1292 30.6666666667 1238 34 c 0
 1076.66666667 43.3333333333 949.333333333 64.6666666667 856 98 c 0
 819.333333333 110.666666667 779 124.166666667 735 138.5 c 0
 691 152.833333333 656.833333333 164 632.5 172 c 0
 608.166666667 180 590 187.333333333 578 194 c 0
 476.666666667 244 377.333333333 330.666666667 280 454 c 0
 268 469.333333333 251.166666667 490.666666667 229.5 518 c 0
 207.833333333 545.333333333 195 561.833333333 191 567.5 c 0
 187 573.166666667 179.5 585.666666667 168.5 605 c 0
 157.5 624.333333333 148.833333333 642.5 142.5 659.5 c 0
 136.166666667 676.5 127.333333333 701.333333333 116 734 c 0
 109.333333333 753.333333333 98.6666666667 782.166666667 84 820.5 c 0
 69.3333333333 858.833333333 58.3333333333 888.666666667 51 910 c 0
 43.6666666667 931.333333333 36.6666666667 958.666666667 30 992 c 0
 23.3333333333 1025.33333333 20 1058 20 1090 c 2
 20 2390 l 1
 42.6666666667 2482 73.1666666667 2566.16666667 111.5 2642.5 c 0
 149.833333333 2718.83333333 196.333333333 2787.16666667 251 2847.5 c 0
 305.666666667 2907.83333333 364.166666667 2961.33333333 426.5 3008 c 0
 488.833333333 3054.66666667 560 3099.33333333 640 3142 c 0
 717.333333333 3182.66666667 764.666666667 3206.33333333 782 3213 c 0
 816.666666667 3225 872 3231.33333333 948 3232 c 0
 964 3232 964 3232 1086 3232 c 0
 1100 3232 1136.5 3231.33333333 1195.5 3230 c 0
 1254.5 3228.66666667 1304.66666667 3228 1346 3228 c 2
 1470 3228 l 1
 1584.66666667 3191.33333333 1680.16666667 3150.83333333 1756.5 3106.5 c 0
 1832.83333333 3062.16666667 1880.66666667 3026.66666667 1900 3000 c 1
 1988 2991.33333333 2061.33333333 2972.83333333 2120 2944.5 c 0
 2178.66666667 2916.16666667 2238.66666667 2869.33333333 2300 2804 c 0
 2355.33333333 2744.66666667 2393.5 2699.5 2414.5 2668.5 c 0
 2435.5 2637.5 2460 2587.33333333 2488 2518 c 0
 2510.66666667 2460.66666667 2540.16666667 2376.66666667 2576.5 2266 c 0
 2612.83333333 2155.33333333 2638.66666667 2070.66666667 2654 2012 c 1
 2654 1394 l 2
1600 2868 m 1
 1570 2880 1529.66666667 2896.33333333 1479 2917 c 0
 1405.66666667 2946.33333333 1353 2966.83333333 1321 2978.5 c 0
 1289 2990.16666667 1248.66666667 3002 1200 3014 c 0
 1151.33333333 3026 1103.66666667 3033 1057 3035 c 0
 1029 3036.33333333 996 3037 958 3037 c 0
 932 3037 904 3036.66666667 874 3036 c 0
 776 3036 704.666666667 3030.66666667 660 3020 c 1
 634.666666667 2998.66666667 615.666666667 2982.33333333 603 2971 c 0
 590.333333333 2959.66666667 572.666666667 2942.83333333 550 2920.5 c 0
 527.333333333 2898.16666667 507.333333333 2876 490 2854 c 0
 433.333333333 2783.33333333 387 2699.83333333 351 2603.5 c 0
 315 2507.16666667 294.666666667 2412 290 2318 c 0
 287.333333333 2264.66666667 286 2090.66666667 286 1796 c 2
 286 1328 l 2
 288 1318.66666667 292.666666667 1299.66666667 300 1271 c 0
 307.333333333 1242.33333333 314 1213.66666667 320 1185 c 0
 326 1156.33333333 331.333333333 1127.33333333 336 1098 c 0
 347.333333333 1022 357.5 962.833333333 366.5 920.5 c 0
 375.5 878.166666667 387.666666667 840 403 806 c 0
 418.333333333 772 435.166666667 742.833333333 453.5 718.5 c 0
 471.833333333 694.166666667 498.333333333 661.333333333 533 620 c 0
 547 604 547 604 554 596 c 0
 619.333333333 516 679.666666667 458.333333333 735 423 c 0
 790.333333333 387.666666667 875.333333333 352 990 316 c 0
 1038.66666667 300 1081.5 287 1118.5 277 c 0
 1155.5 267 1195.83333333 259.5 1239.5 254.5 c 0
 1283.16666667 249.5 1314.33333333 246.166666667 1333 244.5 c 0
 1351.66666667 242.833333333 1391.83333333 241 1453.5 239 c 0
 1515.16666667 237 1558 235.333333333 1582 234 c 0
 1596.66666667 233.333333333 1611 233 1625 233 c 0
 1717.66666667 233 1802.66666667 246.666666667 1880 274 c 0
 1969.33333333 304.666666667 2043 347.166666667 2101 401.5 c 0
 2159 455.833333333 2207.33333333 521.333333333 2246 598 c 0
 2267.33333333 641.333333333 2310 760.666666667 2374 956 c 1
 2374 1816 l 1
 2312 2131.33333333 2260 2328.66666667 2218 2408 c 0
 2196.66666667 2448 2172.5 2487 2145.5 2525 c 0
 2118.5 2563 2086.83333333 2601 2050.5 2639 c 0
 2014.16666667 2677 1973.16666667 2708.66666667 1927.5 2734 c 0
 1881.83333333 2759.33333333 1835.33333333 2774.66666667 1788 2780 c 0
 1772 2782 1754.83333333 2784.66666667 1736.5 2788 c 0
 1718.16666667 2791.33333333 1696.66666667 2796.33333333 1672 2803 c 0
 1647.33333333 2809.66666667 1628.16666667 2818.66666667 1614.5 2830 c 0
 1600.83333333 2841.33333333 1596 2854 1600 2868 c 1
EndSplineSet
EndChar

StartChar: P
Encoding: 80 80 51
Width: 2588
Flags: HW
LayerCount: 2
Fore
SplineSet
2232 2166 m 2
 2230.66666667 2402.66666667 2169.33333333 2601.33333333 2048 2762 c 1
 2039.33333333 2768 1999.5 2795.16666667 1928.5 2843.5 c 128
 1857.5 2891.83333333 1806.66666667 2928 1776 2952 c 0
 1733.33333333 2987.33333333 1707.66666667 3007.33333333 1699 3012 c 0
 1674.33333333 3026.66666667 1635.33333333 3033.66666667 1582 3033 c 0
 1576.66666667 3032.33333333 1570.66666667 3032 1564 3032 c 2
 1392 3032 l 1
 1266.66666667 3028 1159.83333333 3019.83333333 1071.5 3007.5 c 128
 983.166666667 2995.16666667 900.666666667 2974 824 2944 c 0
 758.666666667 2918.66666667 686.333333333 2853.5 607 2748.5 c 128
 527.666666667 2643.5 472 2542.66666667 440 2446 c 0
 432 2420 415.333333333 2374.16666667 390 2308.5 c 128
 364.666666667 2242.83333333 345.666666667 2185 333 2135 c 128
 320.333333333 2085 314 2034 314 1982 c 2
 314 1748 l 2
 314 1659.33333333 320.166666667 1544.16666667 332.5 1402.5 c 128
 344.833333333 1260.83333333 358.666666667 1165.33333333 374 1116 c 0
 415.333333333 984 456.5 869.5 497.5 772.5 c 128
 538.5 675.5 587.333333333 593.333333333 644 526 c 0
 777.333333333 367.333333333 906.666666667 241.333333333 1032 148 c 0
 1060.66666667 128 1074.5 99.3333333333 1073.5 62 c 128
 1072.5 24.6666666667 1056.66666667 -3.33333333333 1026 -22 c 2
 948 -70 l 1
 918 -84.6666666667 893 -89.6666666667 873 -85 c 128
 853 -80.3333333333 830 -64.6666666667 804 -38 c 0
 784.666666667 -18.6666666667 734.333333333 29.8333333333 653 107.5 c 128
 571.666666667 185.166666667 504.333333333 252.833333333 451 310.5 c 128
 397.666666667 368.166666667 356.666666667 420.666666667 328 468 c 0
 238 616 169.5 774.166666667 122.5 942.5 c 128
 75.5 1110.83333333 47.3333333333 1298 38 1504 c 0
 34 1594 32 1663.33333333 32 1712 c 2
 32 1942 l 2
 32 2068.66666667 63.8333333333 2221.83333333 127.5 2401.5 c 128
 191.166666667 2581.16666667 265.333333333 2718.66666667 350 2814 c 0
 364 2830 383.833333333 2855 409.5 2889 c 128
 435.166666667 2923 462.666666667 2954.66666667 492 2984 c 0
 534 3024 592.5 3066.16666667 667.5 3110.5 c 128
 742.5 3154.83333333 812.666666667 3191.33333333 878 3220 c 0
 896 3229.33333333 970.5 3242.33333333 1101.5 3259 c 128
 1232.5 3275.66666667 1316.66666667 3284 1354 3284 c 2
 1678 3284 l 2
 1730 3284 1777.33333333 3276.83333333 1820 3262.5 c 128
 1862.66666667 3248.16666667 1896.16666667 3231.83333333 1920.5 3213.5 c 128
 1944.83333333 3195.16666667 1976.5 3170.33333333 2015.5 3139 c 128
 2054.5 3107.66666667 2089.33333333 3082.66666667 2120 3064 c 0
 2192 3020 2249 2976.16666667 2291 2932.5 c 128
 2333 2888.83333333 2368 2832 2396 2762 c 0
 2407.33333333 2734 2423.5 2703.33333333 2444.5 2670 c 128
 2465.5 2636.66666667 2482 2606.5 2494 2579.5 c 128
 2506 2552.5 2512 2522.66666667 2512 2490 c 2
 2512 1638 l 1
 2506.66666667 1633.33333333 2493.16666667 1624.83333333 2471.5 1612.5 c 128
 2449.83333333 1600.16666667 2432.83333333 1588.66666667 2420.5 1578 c 128
 2408.16666667 1567.33333333 2405.33333333 1558 2412 1550 c 0
 2422.66666667 1538 2419.33333333 1524.66666667 2402 1510 c 128
 2384.66666667 1495.33333333 2360.16666667 1482 2328.5 1470 c 128
 2296.83333333 1458 2269.5 1448.33333333 2246.5 1441 c 128
 2223.5 1433.66666667 2206.66666667 1428.66666667 2196 1426 c 0
 2168.66666667 1420 2117 1400 2041 1366 c 128
 1965 1332 1915.33333333 1312.66666667 1892 1308 c 1
 1809.33333333 1249.33333333 1730.66666667 1220 1656 1220 c 2
 1454 1220 l 2
 1436 1220 1418.5 1220.66666667 1401.5 1222 c 128
 1384.5 1223.33333333 1366.5 1225.83333333 1347.5 1229.5 c 128
 1328.5 1233.16666667 1313.16666667 1236.16666667 1301.5 1238.5 c 128
 1289.83333333 1240.83333333 1273.5 1245.16666667 1252.5 1251.5 c 128
 1231.5 1257.83333333 1217.5 1262 1210.5 1264 c 128
 1203.5 1266 1188.33333333 1271 1165 1279 c 128
 1141.66666667 1287 1128.66666667 1291.33333333 1126 1292 c 128
 1123.33333333 1292.66666667 1110.66666667 1296.16666667 1088 1302.5 c 128
 1065.33333333 1308.83333333 1044.5 1314.66666667 1025.5 1320 c 128
 1006.5 1325.33333333 985.333333333 1331.66666667 962 1339 c 128
 938.666666667 1346.33333333 919 1353 903 1359 c 128
 887 1365 876.666666667 1370 872 1374 c 256
 867.333333333 1378 870 1381 880 1383 c 0
 884 1383.66666667 891.666666667 1384.66666667 903 1386 c 0
 925 1388 936 1390.66666667 936 1394 c 0
 935.333333333 1394.66666667 916.666666667 1398.66666667 880 1406 c 128
 825 1417 825 1417 770 1428 c 2
 716 1438 l 1
 664 1452.66666667 599.333333333 1481.33333333 522 1524 c 0
 515.333333333 1528 505.666666667 1533.16666667 493 1539.5 c 128
 480.333333333 1545.83333333 471.833333333 1550.16666667 467.5 1552.5 c 128
 463.166666667 1554.83333333 457.333333333 1559 450 1565 c 128
 442.666666667 1571 437.833333333 1577 435.5 1583 c 128
 433.166666667 1589 431 1596.66666667 429 1606 c 128
 427 1615.33333333 426 1626.66666667 426 1640 c 0
 426 1670.66666667 441.333333333 1697.33333333 472 1720 c 2
 546 1768 l 2
 560 1778.66666667 576.666666667 1784.66666667 596 1786 c 128
 615.333333333 1787.33333333 632.666666667 1784 648 1776 c 2
 732 1732 l 1
 805.333333333 1709.33333333 875.833333333 1684.5 943.5 1657.5 c 128
 1011.16666667 1630.5 1064.5 1608 1103.5 1590 c 128
 1142.5 1572 1191.83333333 1553.5 1251.5 1534.5 c 128
 1311.16666667 1515.5 1376.66666667 1500 1448 1488 c 1
 1496 1488 l 2
 1504 1487 1504 1487 1524 1484.5 c 128
 1537.33333333 1482.83333333 1551.66666667 1481.33333333 1567 1480 c 128
 1582.33333333 1478.66666667 1598 1478 1614 1478 c 2
 1708 1478 l 2
 1730.66666667 1478 1742.66666667 1478.66666667 1744 1480 c 0
 1788.66666667 1511.33333333 1853.83333333 1541.83333333 1939.5 1571.5 c 128
 2025.16666667 1601.16666667 2085.33333333 1625.33333333 2120 1644 c 0
 2127.33333333 1647.33333333 2137.33333333 1650.83333333 2150 1654.5 c 128
 2162.66666667 1658.16666667 2178.33333333 1662 2197 1666 c 128
 2215.66666667 1670 2227.33333333 1672.66666667 2232 1674 c 1
 2232 2166 l 2
EndSplineSet
EndChar

StartChar: Q
Encoding: 81 81 52
Width: 2718
Flags: HW
LayerCount: 2
Fore
SplineSet
1050 776 m 1
 1046 807.333333333 1054.83333333 836.5 1076.5 863.5 c 128
 1098.16666667 890.5 1122.16666667 910.5 1148.5 923.5 c 128
 1174.83333333 936.5 1196.66666667 943.333333333 1214 944 c 0
 1231.33333333 944 1247.5 942.5 1262.5 939.5 c 128
 1277.5 936.5 1293.33333333 930.5 1310 921.5 c 128
 1326.66666667 912.5 1338.5 905.833333333 1345.5 901.5 c 128
 1352.5 897.166666667 1365.83333333 887.5 1385.5 872.5 c 128
 1405.16666667 857.5 1416.66666667 848.666666667 1420 846 c 0
 1612.66666667 692.666666667 1746.66666667 610 1822 598 c 1
 1896 598 l 1
 2046.66666667 806.666666667 2122 986.666666667 2122 1138 c 2
 2122 1436 l 2
 2123.33333333 1458.66666667 2124 1482 2124 1506 c 0
 2124 1664.66666667 2098.66666667 1843.33333333 2048 2042 c 0
 1990 2270 1926 2430.66666667 1856 2524 c 0
 1811.33333333 2584 1774.66666667 2623.33333333 1746 2642 c 2
 1620 2726 l 2
 1423.33333333 2855.33333333 1258 2920 1124 2920 c 0
 851.333333333 2920 646.666666667 2881.33333333 510 2804 c 1
 484 2769.33333333 460.666666667 2728.83333333 440 2682.5 c 128
 419.333333333 2636.16666667 402.333333333 2591.5 389 2548.5 c 128
 375.666666667 2505.5 363.166666667 2454.16666667 351.5 2394.5 c 128
 339.833333333 2334.83333333 331 2283.66666667 325 2241 c 128
 319 2198.33333333 312 2144.66666667 304 2080 c 0
 294 1980.66666667 289 1867.33333333 289 1740 c 0
 289 1698.66666667 289.333333333 1656 290 1612 c 0
 294.666666667 1430.66666667 304 1294.66666667 318 1204 c 0
 329.333333333 1129.33333333 343.666666667 1060.5 361 997.5 c 128
 378.333333333 934.5 392.666666667 888.166666667 404 858.5 c 128
 415.333333333 828.833333333 436.666666667 775.333333333 468 698 c 0
 533.333333333 538 609.333333333 423.333333333 696 354 c 0
 700 351.333333333 706.166666667 346.5 714.5 339.5 c 128
 722.833333333 332.5 728 328.166666667 730 326.5 c 128
 732 324.833333333 736 321.666666667 742 317 c 128
 748 312.333333333 752 309.833333333 754 309.5 c 128
 756 309.166666667 759.5 307.666666667 764.5 305 c 128
 769.5 302.333333333 773.5 301.166666667 776.5 301.5 c 128
 779.5 301.833333333 783.5 301.666666667 788.5 301 c 128
 793.5 300.333333333 798.666666667 300.333333333 804 301 c 128
 809.333333333 301.666666667 815.166666667 302.333333333 821.5 303 c 128
 827.833333333 303.666666667 835.333333333 304.666666667 844 306 c 0
 1016.66666667 334.666666667 1110 352 1124 358 c 1
 1074.66666667 431.333333333 1050 510.666666667 1050 596 c 2
 1050 776 l 1
1240 164 m 1
 1098.66666667 90.6666666667 928 54 728 54 c 0
 623.333333333 54 504 138 370 306 c 1
 276.666666667 417.333333333 185.333333333 618 96 908 c 0
 76.6666666667 971.333333333 59.8333333333 1074.5 45.5 1217.5 c 128
 31.1666666667 1360.5 24 1484 24 1588 c 2
 24 1770 l 1
 21.3333333333 1802 20 1835.66666667 20 1871 c 0
 20 1984.33333333 33.3333333333 2112 60 2254 c 0
 94.6666666667 2438.66666667 136 2600.66666667 184 2740 c 0
 207.333333333 2808.66666667 238.666666667 2863.16666667 278 2903.5 c 128
 317.333333333 2943.83333333 370.666666667 2980.66666667 438 3014 c 1
 482 3014 l 1
 672.666666667 3115.33333333 866 3166 1062 3166 c 2
 1154 3166 l 2
 1331.33333333 3166 1542 3090 1786 2938 c 0
 1850 2898 1906.66666667 2855.16666667 1956 2809.5 c 128
 2005.33333333 2763.83333333 2054.66666667 2710 2104 2648 c 0
 2159.33333333 2582.66666667 2229.33333333 2400 2314 2100 c 0
 2332.66666667 2040.66666667 2349.33333333 1949.66666667 2364 1827 c 128
 2378.66666667 1704.33333333 2386 1601.33333333 2386 1518 c 2
 2386 1168 l 2
 2386 973.333333333 2314 773.333333333 2170 568 c 0
 2107.33333333 480.666666667 2068 432.666666667 2052 424 c 0
 1982.66666667 374.666666667 1914.66666667 350 1848 350 c 0
 1803.33333333 350.666666667 1766.16666667 352.666666667 1736.5 356 c 128
 1706.83333333 359.333333333 1681.5 363.5 1660.5 368.5 c 128
 1639.5 373.5 1617.16666667 383 1593.5 397 c 128
 1569.83333333 411 1548.83333333 424.5 1530.5 437.5 c 128
 1512.16666667 450.5 1483.16666667 471.166666667 1443.5 499.5 c 128
 1403.83333333 527.833333333 1364.66666667 554.666666667 1326 580 c 1
 1355.33333333 495.333333333 1392.83333333 417.666666667 1438.5 347 c 128
 1484.16666667 276.333333333 1544 204.666666667 1618 132 c 0
 1634 116.666666667 1656.33333333 94.3333333333 1685 65 c 0
 1721 29 1747.83333333 2.5 1765.5 -14.5 c 128
 1783.16666667 -31.5 1807 -52.8333333333 1837 -78.5 c 128
 1867 -104.166666667 1892.33333333 -122.666666667 1913 -134 c 128
 1933.66666667 -145.333333333 1960.33333333 -158.666666667 1993 -174 c 128
 2025.66666667 -189.333333333 2059 -200.5 2093 -207.5 c 128
 2127 -214.5 2166.66666667 -221.166666667 2212 -227.5 c 128
 2257.33333333 -233.833333333 2308 -238.666666667 2364 -242 c 1
 2518 -242 l 2
 2525.33333333 -242 2538.66666667 -214.333333333 2558 -159 c 128
 2577.33333333 -103.666666667 2588 -75.3333333333 2590 -74 c 0
 2598 -74 2604.83333333 -85.8333333333 2610.5 -109.5 c 128
 2616.16666667 -133.166666667 2620.16666667 -162.666666667 2622.5 -198 c 128
 2624.83333333 -233.333333333 2626.33333333 -262.833333333 2627 -286.5 c 128
 2627.66666667 -310.166666667 2628 -330.666666667 2628 -348 c 0
 2628 -382 2613.33333333 -408.666666667 2584 -428 c 2
 2526 -470 l 2
 2508.66666667 -483.333333333 2486 -490 2458 -490 c 0
 2366.66666667 -486 2294.5 -482.333333333 2241.5 -479 c 128
 2188.5 -475.666666667 2133 -469.833333333 2075 -461.5 c 128
 2017 -453.166666667 1970.16666667 -443.333333333 1934.5 -432 c 128
 1898.83333333 -420.666666667 1860 -404.666666667 1818 -384 c 128
 1776 -363.333333333 1737 -339.166666667 1701 -311.5 c 128
 1665 -283.833333333 1624.66666667 -249.333333333 1580 -208 c 0
 1450 -88.6666666667 1336.66666667 35.3333333333 1240 164 c 1
EndSplineSet
EndChar

StartChar: R
Encoding: 82 82 53
Width: 3350
Flags: HW
LayerCount: 2
Fore
SplineSet
3148 390 m 1
 3166 391.333333333 3188.83333333 380.666666667 3216.5 358 c 128
 3244.16666667 335.333333333 3268 306 3288 270 c 0
 3288.66666667 266.666666667 3290.5 259.666666667 3293.5 249 c 128
 3296.5 238.333333333 3298.5 230 3299.5 224 c 128
 3300.5 218 3300.83333333 210.833333333 3300.5 202.5 c 128
 3300.16666667 194.166666667 3297.66666667 187.166666667 3293 181.5 c 128
 3288.33333333 175.833333333 3281.33333333 171.333333333 3272 168 c 1
 3218 168 l 1
 3197.33333333 160.666666667 3168.33333333 148.666666667 3131 132 c 128
 3093.66666667 115.333333333 3062.33333333 102 3037 92 c 128
 3011.66666667 82 2977.33333333 73.3333333333 2934 66 c 0
 2899.33333333 60 2863.66666667 57 2827 57 c 0
 2816.33333333 57 2806 57.3333333333 2796 58 c 2
 2312 58 l 2
 2302.66666667 57.3333333333 2293 57 2283 57 c 0
 2215.66666667 57 2140.33333333 67 2057 87 c 0
 1961.66666667 109.666666667 1867.16666667 140.5 1773.5 179.5 c 128
 1679.83333333 218.5 1591.66666667 259.5 1509 302.5 c 128
 1426.33333333 345.5 1350 389.333333333 1280 434 c 0
 1244.66666667 456.666666667 1213.16666667 480.833333333 1185.5 506.5 c 128
 1157.83333333 532.166666667 1135.5 555.5 1118.5 576.5 c 128
 1101.5 597.5 1077.66666667 624.333333333 1047 657 c 128
 1016.33333333 689.666666667 983.333333333 721.333333333 948 752 c 0
 934.666666667 763.333333333 922.5 774 911.5 784 c 128
 900.5 794 890.666666667 803 882 811 c 128
 873.333333333 819 865.166666667 827.5 857.5 836.5 c 128
 849.833333333 845.5 843.5 852.333333333 838.5 857 c 128
 833.5 861.666666667 828.166666667 868.833333333 822.5 878.5 c 128
 816.833333333 888.166666667 812.666666667 894.833333333 810 898.5 c 128
 807.333333333 902.166666667 803.166666667 909.666666667 797.5 921 c 128
 791.833333333 932.333333333 788.166666667 939.833333333 786.5 943.5 c 128
 784.833333333 947.166666667 780.666666667 956.5 774 971.5 c 128
 767.333333333 986.5 762.666666667 996.666666667 760 1002 c 0
 749.333333333 1024.66666667 744 1045 744 1063 c 128
 744 1081 747.333333333 1104 754 1132 c 1
 734 1173.33333333 718 1206 706 1230 c 1
 706 1274 l 1
 709.333333333 1296 719.166666667 1320.83333333 735.5 1348.5 c 128
 751.833333333 1376.16666667 767.333333333 1395.33333333 782 1406 c 2
 838 1448 l 2
 872.666666667 1474.66666667 912.666666667 1498.83333333 958 1520.5 c 128
 1003.33333333 1542.16666667 1047.33333333 1556.66666667 1090 1564 c 1
 1164 1564 l 1
 1164 1582 l 1
 1267.33333333 1587.33333333 1333.5 1590 1362.5 1590 c 128
 1391.5 1590 1441.83333333 1588.66666667 1513.5 1586 c 128
 1585.16666667 1583.33333333 1655.33333333 1582 1724 1582 c 2
 1922 1582 l 1
 1962.66666667 1588 2001.5 1590.83333333 2038.5 1590.5 c 128
 2075.5 1590.16666667 2108.5 1588.16666667 2137.5 1584.5 c 128
 2166.5 1580.83333333 2216.66666667 1573.33333333 2288 1562 c 1
 2333.33333333 1598.66666667 2382 1634 2434 1668 c 1
 2434 2262 l 1
 2431.33333333 2309.33333333 2426.33333333 2355 2419 2399 c 128
 2411.66666667 2443 2401.83333333 2492.66666667 2389.5 2548 c 128
 2377.16666667 2603.33333333 2369.33333333 2639.33333333 2366 2656 c 0
 2363.33333333 2670.66666667 2360.83333333 2682 2358.5 2690 c 128
 2356.16666667 2698 2351.33333333 2706.16666667 2344 2714.5 c 128
 2336.66666667 2722.83333333 2331.33333333 2728.33333333 2328 2731 c 128
 2324.66666667 2733.66666667 2314.16666667 2740.5 2296.5 2751.5 c 128
 2278.83333333 2762.5 2265.33333333 2771.33333333 2256 2778 c 0
 2218.66666667 2803.33333333 2154 2833.16666667 2062 2867.5 c 128
 1970 2901.83333333 1916 2923.33333333 1900 2932 c 0
 1844.66666667 2961.33333333 1763.66666667 2978 1657 2982 c 0
 1629 2983.33333333 1601.33333333 2984 1574 2984 c 0
 1498.66666667 2984 1427.33333333 2979.66666667 1360 2971 c 0
 1268 2959 1194 2944.66666667 1138 2928 c 0
 1042.66666667 2899.33333333 977.333333333 2874.66666667 942 2854 c 0
 883.333333333 2820 828.666666667 2779.33333333 778 2732 c 0
 586.666666667 2552.66666667 468.666666667 2408.66666667 424 2300 c 0
 389.333333333 2214 356.333333333 2121.66666667 325 2023 c 128
 293.666666667 1924.33333333 278 1850.66666667 278 1802 c 2
 278 972 l 1
 282.666666667 914 296.833333333 841.5 320.5 754.5 c 128
 344.166666667 667.5 368.166666667 588.333333333 392.5 517 c 128
 416.833333333 445.666666667 438 373.333333333 456 300 c 0
 470 240.666666667 477 192.666666667 477 156 c 0
 477 147.333333333 476.666666667 139.333333333 476 132 c 0
 470 76 416 48 314 48 c 0
 288 48 268.666666667 59.3333333333 256 82 c 0
 190.666666667 206.666666667 140 376 104 590 c 0
 100 614 89.5 664.833333333 72.5 742.5 c 128
 55.5 820.166666667 45.3333333333 891.333333333 42 956 c 1
 42 1802 l 1
 61.3333333333 2046.66666667 140 2284.66666667 278 2516 c 0
 299.333333333 2552 324.666666667 2589.66666667 354 2629 c 128
 383.333333333 2668.33333333 416.5 2708.66666667 453.5 2750 c 128
 490.5 2791.33333333 530.666666667 2829.66666667 574 2865 c 128
 617.333333333 2900.33333333 659.333333333 2927.33333333 700 2946 c 0
 708 2949.33333333 723.166666667 2957.66666667 745.5 2971 c 128
 767.833333333 2984.33333333 786 2994.66666667 800 3002 c 0
 1030.66666667 3121.33333333 1298.33333333 3181 1603 3181 c 0
 1639.66666667 3181 1676.66666667 3180 1714 3178 c 0
 1812 3173.33333333 1935 3141.33333333 2083 3082 c 128
 2231 3022.66666667 2344.66666667 2960 2424 2894 c 0
 2430 2888.66666667 2442 2878.66666667 2460 2864 c 128
 2478 2849.33333333 2489.83333333 2839.66666667 2495.5 2835 c 128
 2501.16666667 2830.33333333 2511 2821.33333333 2525 2808 c 128
 2539 2794.66666667 2548.33333333 2784.5 2553 2777.5 c 128
 2560 2767 2560 2767 2574 2746 c 128
 2583.33333333 2732 2590 2719 2594 2707 c 128
 2598 2695 2602.16666667 2680.66666667 2606.5 2664 c 128
 2610.83333333 2647.33333333 2614 2629.33333333 2616 2610 c 1
 2629.33333333 2577.33333333 2636 2559.33333333 2636 2556 c 2
 2636 2446 l 2
 2638 2436 2647.16666667 2413.16666667 2663.5 2377.5 c 128
 2679.83333333 2341.83333333 2688 2313.33333333 2688 2292 c 2
 2688 1652 l 2
 2688 1624 2679.83333333 1595.66666667 2663.5 1567 c 128
 2647.16666667 1538.33333333 2626.83333333 1513 2602.5 1491 c 128
 2578.16666667 1469 2550 1447.5 2518 1426.5 c 128
 2486 1405.5 2456.66666667 1388.33333333 2430 1375 c 128
 2403.33333333 1361.66666667 2377.33333333 1350 2352 1340 c 1
 1164 1340 l 1
 1120.66666667 1324 1087.33333333 1309 1064 1295 c 128
 1040.66666667 1281 1010.66666667 1259.33333333 974 1230 c 1
 985.333333333 1207.33333333 991.833333333 1186 993.5 1166 c 128
 995.166666667 1146 994 1123.33333333 990 1098 c 1
 999.333333333 1091.33333333 1008.66666667 1077.33333333 1018 1056 c 1
 1028.66666667 1042.66666667 1042.5 1025 1059.5 1003 c 128
 1076.5 981 1089.16666667 964.833333333 1097.5 954.5 c 128
 1105.83333333 944.166666667 1115 933.333333333 1125 922 c 128
 1135 910.666666667 1143.33333333 902 1150 896 c 0
 1250.66666667 808 1310.66666667 752 1330 728 c 0
 1358 691.333333333 1391.16666667 661.166666667 1429.5 637.5 c 128
 1467.83333333 613.833333333 1512.16666667 590.666666667 1562.5 568 c 128
 1612.83333333 545.333333333 1652.66666667 524.666666667 1682 506 c 0
 1722 480 1755 461.666666667 1781 451 c 128
 1807 440.333333333 1845.33333333 429.333333333 1896 418 c 0
 1932 410 2008.83333333 391.833333333 2126.5 363.5 c 128
 2244.16666667 335.166666667 2335.33333333 314.666666667 2400 302 c 1
 2467.33333333 312.666666667 2586 324.666666667 2756 338 c 128
 2926 351.333333333 3056.66666667 367.333333333 3148 386 c 1
 3148 390 l 1
2294 1488 m 1
 2294 1544 l 1
 2294 1488 l 1
EndSplineSet
EndChar

